<svg xmlns="http://www.w3.org/2000/svg" xmlns:xlink="http://www.w3.org/1999/xlink" width="495.534" height="509.199" viewBox="0 0 495.534 509.199"><defs><clipPath id="a"><rect width="495.534" height="509.199" fill="none"/></clipPath><clipPath id="c"><rect width="2.398" height="2.398" fill="none"/></clipPath><clipPath id="f"><rect width="2.036" height="2.036" fill="none"/></clipPath><clipPath id="k"><rect width="36.448" height="18.197" fill="none"/></clipPath><clipPath id="l"><rect width="4.108" height="4.091" fill="none"/></clipPath><clipPath id="m"><rect width="4.008" height="3.996" fill="none"/></clipPath><clipPath id="n"><rect width="51.452" height="4.261" fill="none"/></clipPath><clipPath id="o"><rect width="25.469" height="4.72" fill="none"/></clipPath><clipPath id="r"><rect width="97.716" height="13.748" fill="none"/></clipPath></defs><g clip-path="url(#a)"><rect width="149.589" height="100.159" transform="translate(20.277 83.68)" fill="#fff"/><g clip-path="url(#a)"><path d="M166.606,170.249s-.016-.626-.024-1.822-.013-2.973-.024-5.285c-.012-4.635-.03-11.435-.054-20.144-.026-17.4-.066-42.414-.112-72.908l.214.214c-41.22.016-93.22.035-149.577.054h-.012l.268-.268c-.007,35.682-.014,69.613-.022,100.159L17.017,170l107.769.122,30.79.066c3.572.012,6.322.023,8.19.03l2.115.014c.475,0,.725.014.725.014s-.231.01-.7.014l-2.088.014-8.14.03-30.734.066-107.93.122h-.245v-.246c-.007-30.546-.016-64.478-.023-100.159v-.268h.28l149.577.053h.215v.214c-.047,30.55-.086,55.608-.112,73.042-.024,8.687-.042,15.471-.054,20.1-.011,2.294-.019,4.05-.024,5.244s-.024,1.776-.024,1.776" transform="translate(3.26 13.591)" fill="#e0e0e0"/><path d="M16.973,77.572c0-.148,33.462-.269,74.729-.269s74.736.121,74.736.269-33.455.268-74.736.268-74.729-.119-74.729-.268" transform="translate(3.304 15.047)" fill="#e0e0e0"/><g transform="translate(23.781 86.911)" opacity="0.3"><g clip-path="url(#c)"><path d="M22.3,73.949a1.2,1.2,0,1,1-1.2-1.2,1.2,1.2,0,0,1,1.2,1.2" transform="translate(-19.906 -72.75)" fill="#e0e0e0"/></g></g><g transform="translate(27.889 86.911)" opacity="0.3"><g clip-path="url(#c)"><path d="M25.743,73.949a1.2,1.2,0,1,1-1.2-1.2,1.2,1.2,0,0,1,1.2,1.2" transform="translate(-23.345 -72.75)" fill="#e0e0e0"/></g></g><g transform="translate(31.939 86.911)" opacity="0.3"><g clip-path="url(#c)"><path d="M29.133,73.949a1.2,1.2,0,1,1-1.2-1.2,1.2,1.2,0,0,1,1.2,1.2" transform="translate(-26.735 -72.75)" fill="#e0e0e0"/></g></g><rect width="39.902" height="39.902" transform="translate(33.137 103.063)" fill="#e0e0e0"/><path d="M136.344,95.756c0,.148-15.563.269-34.756.269S66.83,95.9,66.83,95.756s15.559-.269,34.758-.269,34.756.121,34.756.269" transform="translate(13.008 18.586)" fill="#e0e0e0"/><path d="M136.344,101.963c0,.148-15.563.269-34.756.269s-34.758-.121-34.758-.269,15.559-.268,34.758-.268,34.756.119,34.756.268" transform="translate(13.008 19.795)" fill="#e0e0e0"/><path d="M136.344,108.17c0,.148-15.563.269-34.756.269s-34.758-.121-34.758-.269,15.559-.268,34.758-.268,34.756.119,34.756.268" transform="translate(13.008 21.003)" fill="#e0e0e0"/><path d="M107.914,114.377a9.245,9.245,0,0,1-1.615.1l-4.4.086c-3.717.049-8.852.079-14.523.079s-10.81-.03-14.527-.079l-4.4-.086a9.253,9.253,0,0,1-1.614-.1,9.251,9.251,0,0,1,1.614-.1l4.4-.086c3.717-.048,8.852-.078,14.527-.078s10.807.03,14.523.078l4.4.086a9.243,9.243,0,0,1,1.615.1" transform="translate(13.008 22.211)" fill="#e0e0e0"/><rect width="18.752" height="18.752" transform="translate(35.634 156.42)" fill="#e0e0e0"/><rect width="18.752" height="18.752" transform="translate(69.642 156.42)" fill="#e0e0e0"/><rect width="18.752" height="18.752" transform="translate(103.65 156.42)" fill="#e0e0e0"/><rect width="18.752" height="18.752" transform="translate(137.658 156.42)" fill="#e0e0e0"/><path d="M382.026,102.363a17.358,17.358,0,0,1-3.179,3.338l.828,4.192-6.463,2.867-2.553-3.427a17.315,17.315,0,0,1-4.608.117L363.672,113l-6.6-2.543.616-4.227a17.247,17.247,0,0,1-3.337-3.179l-4.193.828L347.3,97.415l3.426-2.554a17.314,17.314,0,0,1-.115-4.608l-3.548-2.379,2.542-6.6,4.227.618a17.288,17.288,0,0,1,3.179-3.338l-.827-4.193,6.462-2.867,2.554,3.427a17.4,17.4,0,0,1,4.607-.116l2.379-3.547,6.6,2.542-.619,4.227A17.253,17.253,0,0,1,381.5,81.21l4.193-.828,2.866,6.462L385.131,89.4a17.314,17.314,0,0,1,.116,4.608l3.548,2.377-2.542,6.6Zm-7.138-7.207a7.584,7.584,0,1,0-9.8,4.35,7.584,7.584,0,0,0,9.8-4.35" transform="translate(67.554 13.871)" fill="#d1cfcf"/><path d="M372.777,92.975a5.7,5.7,0,0,1-.818,1.692,7.542,7.542,0,0,1-4.1,3,7.635,7.635,0,0,1-3.564.208,7.765,7.765,0,0,1-3.7-1.762,7.781,7.781,0,0,1-2.413-3.826,7.736,7.736,0,0,1,3.315-8.6,7.781,7.781,0,0,1,4.357-1.219,7.777,7.777,0,0,1,3.926,1.174,7.662,7.662,0,0,1,2.5,2.547,7.544,7.544,0,0,1,1.024,4.979,5.737,5.737,0,0,1-.528,1.8c-.051-.016.227-.637.361-1.823a7.565,7.565,0,0,0-1.119-4.8,7.406,7.406,0,0,0-6.172-3.482,7.422,7.422,0,0,0-4.119,1.177,7.345,7.345,0,0,0-3.132,8.13,7.4,7.4,0,0,0,2.264,3.635,7.41,7.41,0,0,0,6.912,1.563,7.559,7.559,0,0,0,4.049-2.807c.7-.969.908-1.616.957-1.594" transform="translate(69.665 16.052)" fill="#d1cfcf"/><path d="M382.068,102.4a1.475,1.475,0,0,1,.266.023l.8.1,3.167.424-.075.044c.643-1.693,1.486-3.918,2.505-6.611l.041.131C387.7,95.8,386.5,95,385.218,94.151l-.064-.042.008-.078a17.286,17.286,0,0,0-.13-4.572l-.013-.085.069-.053,3.42-2.563-.049.188-2.882-6.456.189.1-4.191.835-.106.021-.069-.085a17.165,17.165,0,0,0-3.307-3.14L378,78.156l.016-.113c.19-1.309.4-2.755.612-4.227l.123.209-6.6-2.534.241-.076c-.74,1.105-1.551,2.319-2.375,3.549l-.069.1-.124-.013a17.247,17.247,0,0,0-4.553.118l-.125.02-.075-.1-2.555-3.425.257.067L356.309,74.6l.125-.24c.262,1.324.544,2.754.827,4.193l.026.129-.1.081a17.221,17.221,0,0,0-3.136,3.294h0l-.209.088h-.013l-.016,0-.033,0-.066-.01-.135-.019-.265-.039L352.779,82l-1.06-.154-2.107-.309.234-.136q-1.288,3.344-2.545,6.6l-.08-.257,3.547,2.38.107.073-.014.128a17.1,17.1,0,0,0,.112,4.552l.019.127-.1.076-3.427,2.551.066-.251,2.859,6.464-.221-.115,4.194-.822.115-.023.075.092a17.082,17.082,0,0,0,3.3,3.148l.092.068-.017.112c-.215,1.449-.422,2.853-.624,4.224l-.115-.195,6.591,2.557-.2.063,2.388-3.542.053-.079.094.011a17.265,17.265,0,0,0,4.568-.1l.085-.013.051.069,2.542,3.435-.155-.041,6.475-2.838-.056.108c-.319-1.676-.582-3.051-.8-4.2l-.008-.042.033-.026a17.993,17.993,0,0,0,2.493-2.4c.234-.284.413-.5.546-.662a1.567,1.567,0,0,1,.183-.217,2.158,2.158,0,0,1-.154.239c-.111.155-.277.387-.518.686a16.772,16.772,0,0,1-2.461,2.467l.024-.068c.234,1.143.514,2.515.854,4.187l.016.076-.072.031-6.45,2.9-.093.042-.062-.082c-.793-1.057-1.632-2.177-2.564-3.418l.136.056a17.554,17.554,0,0,1-4.647.13l.146-.069-2.369,3.554-.074.111-.124-.048-6.6-2.53-.135-.051.022-.143c.2-1.373.4-2.778.609-4.228l.075.18a17.521,17.521,0,0,1-3.378-3.21l.189.069-4.191.833-.158.031-.065-.147q-1.4-3.148-2.872-6.458l-.068-.152.133-.1,3.424-2.555-.081.2a17.482,17.482,0,0,1-.119-4.664l.093.2-3.549-2.376-.142-.1.062-.161q1.251-3.252,2.539-6.6l.063-.162.172.025,2.106.308,1.061.155.53.078.266.038.134.019.067.011.032,0,.017,0h.013c-.416.174-.115.048-.207.086h0a17.588,17.588,0,0,1,3.216-3.376l-.076.211c-.283-1.44-.565-2.868-.826-4.193l-.035-.17.158-.07c2.224-.984,4.418-1.957,6.464-2.864l.157-.069.1.137,2.551,3.429-.2-.082a17.612,17.612,0,0,1,4.663-.113l-.194.09c.824-1.228,1.64-2.441,2.382-3.545l.09-.135.151.059,6.594,2.551.145.056-.023.153c-.216,1.472-.43,2.916-.624,4.225l-.075-.179a17.535,17.535,0,0,1,3.369,3.218l-.176-.063,4.194-.82.134-.026.055.125,2.853,6.468.05.113-.1.074-3.435,2.543.056-.137a17.485,17.485,0,0,1,.1,4.645l-.056-.119c1.275.861,2.466,1.668,3.538,2.392l.073.05-.031.081-2.58,6.583-.021.053-.055-.008-3.129-.495-.809-.135a2.083,2.083,0,0,1-.278-.056" transform="translate(67.511 13.83)" fill="#d1cfcf"/><path d="M412.523,84.665a14.37,14.37,0,0,1-2.637,2.769l.686,3.478-5.362,2.379-2.118-2.842a14.345,14.345,0,0,1-3.823.1L397.3,93.489l-5.473-2.111.513-3.506a14.3,14.3,0,0,1-2.769-2.638l-3.479.687-2.377-5.36,2.842-2.119a14.391,14.391,0,0,1-.1-3.823l-2.944-1.972,2.109-5.474,3.507.513a14.369,14.369,0,0,1,2.637-2.769l-.686-3.479,5.36-2.379L398.56,61.9a14.391,14.391,0,0,1,3.823-.1l1.972-2.944,5.473,2.11-.513,3.506a14.339,14.339,0,0,1,2.77,2.637l3.479-.686,2.377,5.362L415.1,73.909a14.3,14.3,0,0,1,.1,3.823l2.944,1.974-2.109,5.473ZM406.6,78.686a6.292,6.292,0,1,0-8.134,3.609,6.292,6.292,0,0,0,8.134-3.609" transform="translate(74.65 11.457)" fill="#d1cfcf" fill-rule="evenodd"/><path d="M395.869,59.7a22.539,22.539,0,0,1-4.133,4.341l1.076,5.455-8.408,3.73-3.321-4.458a22.549,22.549,0,0,1-6,.152l-3.1,4.616-8.581-3.309.8-5.5a22.481,22.481,0,0,1-4.341-4.136l-5.455,1.076-3.73-8.408,4.458-3.322a22.536,22.536,0,0,1-.151-5.995l-4.617-3.094,3.309-8.584,5.5.8a22.559,22.559,0,0,1,4.136-4.343l-1.076-5.456,8.408-3.728L373.972,24a22.6,22.6,0,0,1,6-.151l3.094-4.615,8.582,3.307-.8,5.5a22.461,22.461,0,0,1,4.344,4.136l5.455-1.076,3.73,8.407-4.458,3.322a22.543,22.543,0,0,1,.151,5.995l4.616,3.094L401.369,60.5Zm-9.285-9.377a9.867,9.867,0,1,0-12.756,5.658,9.868,9.868,0,0,0,12.756-5.658" transform="translate(68.2 3.745)" fill="#d1cfcf" fill-rule="evenodd"/><path d="M342.027,49.63s-.013-.319-.019-.92-.011-1.5-.019-2.646c-.011-2.324-.026-5.709-.045-10.023-.023-8.63-.054-20.961-.091-35.83l.174.177L281.382.423h-.006l.211-.211c-.008,17.865-.016,34.736-.023,49.419l-.189-.189,43.8.094,12.414.05,3.295.023.852.011c.192,0,.3.011.3.011s-.088.007-.274.011l-.831.011-3.257.023-12.372.05-43.918.094h-.188v-.19c-.007-14.683-.014-31.554-.022-49.419V0h.215l60.645.036h.176V.211c-.037,14.915-.068,27.285-.091,35.941-.019,4.3-.035,7.668-.045,9.982q-.013,1.7-.019,2.614c-.007.588-.02.882-.02.882" transform="translate(54.729)" fill="#e0e0e0"/><path d="M342.473,6.349c0,.117-13.691.211-30.576.211s-30.577-.094-30.577-.211,13.688-.211,30.577-.211,30.576.094,30.576.211" transform="translate(54.758 1.195)" fill="#e0e0e0"/><path d="M285.752,3.431a.817.817,0,1,1-.817-.821.818.818,0,0,1,.817.821" transform="translate(55.303 0.508)" fill="#e0e0e0"/><path d="M288.243,3.431a.817.817,0,1,1-.817-.821.818.818,0,0,1,.817.821" transform="translate(55.788 0.508)" fill="#e0e0e0"/><path d="M290.735,3.431a.817.817,0,1,1-.817-.821.819.819,0,0,1,.817.821" transform="translate(56.273 0.508)" fill="#e0e0e0"/><rect width="140.231" height="56.961" transform="translate(143.45 7.97)" fill="#fff"/><path d="M260.345,63.668s-.011-.35-.017-1.018-.008-1.662-.016-2.956c-.01-2.6-.023-6.416-.039-11.335-.019-9.831-.049-24.052-.084-41.651l.155.155-140.222.066h-.01l.222-.221c0,19.946-.007,39.2-.01,56.96l-.213-.213,100.543.1,29.166.059,7.808.027,2.02.013c.456,0,.694.013.694.013s-.221.008-.668.013l-2,.013-7.764.026-29.117.06-100.687.1H119.9v-.213c0-17.76-.006-37.014-.01-56.96V6.486h.232l140.222.066h.156v.156c-.036,17.639-.065,31.892-.084,41.746-.018,4.9-.031,8.71-.039,11.3-.008,1.281-.013,2.259-.017,2.927s-.017.987-.017.987" transform="translate(23.337 1.262)" fill="#e0e0e0"/><path d="M120.195,13.138c0-.123,31.344-.222,70-.222s70.008.1,70.008.222-31.338.222-70.008.222-70-.1-70-.222" transform="translate(23.396 2.514)" fill="#e0e0e0"/><g transform="translate(147.425 11.199)" opacity="0.3"><g clip-path="url(#f)"><path d="M125.441,10.392a1.018,1.018,0,1,1-1.018-1.018,1.018,1.018,0,0,1,1.018,1.018" transform="translate(-123.405 -9.374)" fill="#ebebeb"/></g></g><g transform="translate(150.913 11.199)" opacity="0.3"><g clip-path="url(#f)"><path d="M128.36,10.392a1.018,1.018,0,1,1-1.018-1.018,1.017,1.017,0,0,1,1.018,1.018" transform="translate(-126.324 -9.374)" fill="#ebebeb"/></g></g><g transform="translate(154.35 11.199)" opacity="0.3"><g clip-path="url(#f)"><path d="M131.237,10.392a1.018,1.018,0,1,1-1.018-1.018,1.017,1.017,0,0,1,1.018,1.018" transform="translate(-129.201 -9.374)" fill="#ebebeb"/></g></g><rect width="33.872" height="33.872" transform="translate(155.368 24.91)" fill="#e0e0e0"/><path d="M242.024,28.485c0,.123-17.431.222-38.926.222s-38.929-.1-38.929-.222,17.426-.222,38.929-.222,38.926.1,38.926.222" transform="translate(31.955 5.501)" fill="#e0e0e0"/><path d="M242.024,34.261c0,.123-17.431.222-38.926.222s-38.929-.1-38.929-.222,17.426-.222,38.929-.222,38.926.1,38.926.222" transform="translate(31.955 6.626)" fill="#e0e0e0"/><path d="M214.287,40.037a2.236,2.236,0,0,1-.509.045l-1.46.042-5.371.07-17.719.065-17.72-.065-5.371-.07-1.46-.042a2.249,2.249,0,0,1-.509-.045,2.218,2.218,0,0,1,.509-.044l1.46-.042,5.371-.07,17.72-.066,17.719.066,5.371.07,1.46.042a2.206,2.206,0,0,1,.509.044" transform="translate(31.955 7.75)" fill="#e0e0e0"/></g><rect width="167.405" height="136.381" transform="translate(290.628 106.367)" fill="#e0e0e0"/><rect width="167.405" height="136.381" transform="translate(278.724 115.036)" fill="#ebebeb"/><rect width="171.872" height="140.019" transform="translate(262.324 124.531)" fill="#fff"/><g clip-path="url(#a)"><path d="M391.505,244.312s-.02-.888-.029-2.582-.018-4.209-.031-7.476c-.016-6.548-.037-16.142-.066-28.372-.033-24.443-.079-59.415-.135-101.59l.26.259-171.856.053h-.016l.312-.312c-.013,50.633-.024,98.443-.036,140.019l-.276-.276,124.194.139,35.144.073,9.311.033,2.4.016c.54,0,.823.017.823.017s-.263.011-.792.016l-2.369.016-9.256.033-35.081.073-124.374.14h-.278v-.278c-.01-41.576-.02-89.386-.033-140.019v-.312h.327l171.856.053h.259v.259c-.056,42.243-.1,77.272-.135,101.753-.029,12.206-.051,21.778-.067,28.314-.013,3.247-.023,5.737-.03,7.427-.008,1.675-.027,2.525-.027,2.525" transform="translate(42.691 20.239)" fill="#263238"/><path d="M236.237,210.171l-1.846.675,1.846.671v.693l-2.639-1v-.719l2.639-1Z" transform="translate(45.469 40.776)" fill="#e8505b"/><path d="M237.762,208.342h.771l-1.829,5.221h-.771Z" transform="translate(45.924 40.553)" fill="#e8505b"/><path d="M241.846,209v3.879h-.9v-1.59h-1.762v1.59h-.9V209h.9v1.529h1.762V209Z" transform="translate(46.382 40.682)" fill="#e8505b"/><path d="M242.907,209.733h-1.241V209h3.38v.731H243.8v3.148h-.9Z" transform="translate(47.04 40.682)" fill="#e8505b"/><path d="M248.426,212.88l-.006-2.327-1.141,1.916h-.4l-1.136-1.866v2.277H244.9V209h.743l1.452,2.411L248.52,209h.737l.011,3.879Z" transform="translate(47.668 40.682)" fill="#e8505b"/><path d="M249.322,209h.9v3.148h1.945v.731h-2.843Z" transform="translate(48.53 40.682)" fill="#e8505b"/><path d="M254.66,210.487v.72l-2.637,1v-.693l1.845-.67-1.845-.676v-.687Z" transform="translate(49.056 40.775)" fill="#e8505b"/><path d="M391.355,114.042c0,.172-38.341.312-85.625.312-47.3,0-85.634-.14-85.634-.312s38.334-.311,85.634-.311c47.284,0,85.625.139,85.625.311" transform="translate(42.841 22.137)" fill="#263238"/><path d="M224.751,109.052a1.1,1.1,0,1,1-1.1-1.1,1.1,1.1,0,0,1,1.1,1.1" transform="translate(43.318 21.012)" fill="#263238"/><path d="M228.294,109.052a1.1,1.1,0,1,1-1.1-1.1,1.1,1.1,0,0,1,1.1,1.1" transform="translate(44.008 21.012)" fill="#263238"/><path d="M231.837,109.052a1.1,1.1,0,1,1-1.1-1.1,1.1,1.1,0,0,1,1.1,1.1" transform="translate(44.698 21.012)" fill="#263238"/><path d="M229.252,243.567c-.173,0-.313-29.066-.313-64.912s.14-64.92.313-64.92.311,29.06.311,64.92-.14,64.912-.311,64.912" transform="translate(44.562 22.138)" fill="#e0e0e0"/><rect width="70.786" height="50.458" transform="translate(59.843 26.913)" fill="#c25461"/><path d="M121.439,28.846c0,.172-15.978.311-35.684.311s-35.688-.139-35.688-.311,15.975-.311,35.688-.311,35.684.139,35.684.311" transform="translate(9.745 5.554)" fill="#fff"/><path d="M55.24,25.848a.961.961,0,1,1-.953-.837.9.9,0,0,1,.953.837" transform="translate(10.381 4.868)" fill="#fff"/><path d="M58.147,25.848a.961.961,0,1,1-.953-.837.9.9,0,0,1,.953.837" transform="translate(10.947 4.868)" fill="#fff"/><path d="M61.056,25.848a.961.961,0,1,1-.953-.837.9.9,0,0,1,.953.837" transform="translate(11.513 4.868)" fill="#fff"/><rect width="63.99" height="45.615" transform="translate(418.878 203.01)" fill="#c25461"/><path d="M415.126,175.632c0,.111-14.444.2-32.259.2s-32.261-.09-32.261-.2,14.441-.2,32.261-.2,32.259.09,32.259.2" transform="translate(68.244 34.147)" fill="#fff"/><path d="M355.28,172.935a.869.869,0,1,1-.861-.756.813.813,0,0,1,.861.756" transform="translate(68.819 33.514)" fill="#fff"/><path d="M357.909,172.935a.869.869,0,1,1-.861-.756.813.813,0,0,1,.861.756" transform="translate(69.331 33.514)" fill="#fff"/><path d="M360.538,172.935a.869.869,0,1,1-.861-.756.814.814,0,0,1,.861.756" transform="translate(69.843 33.514)" fill="#fff"/><rect width="47.172" height="33.626" transform="translate(0.02 202.354)" fill="#c25461"/><path d="M47.562,173.584c0,.082-10.648.149-23.779.149S0,173.667,0,173.584s10.647-.148,23.783-.148,23.779.067,23.779.148" transform="translate(0 33.759)" fill="#fff"/><path d="M3.447,171.6a.6.6,0,0,1-.636.558.563.563,0,1,1,0-1.116.6.6,0,0,1,.636.558" transform="translate(0.424 33.292)" fill="#fff"/><path d="M5.384,171.6a.6.6,0,0,1-.634.558.563.563,0,1,1,0-1.116.6.6,0,0,1,.634.558" transform="translate(0.801 33.292)" fill="#fff"/><path d="M7.322,171.6a.6.6,0,0,1-.636.558.563.563,0,1,1,0-1.116.6.6,0,0,1,.636.558" transform="translate(1.178 33.292)" fill="#fff"/><path d="M299.308,88.482s-.018-.326-.026-.937q-.009-.946-.027-2.689c-.016-2.373-.036-5.819-.063-10.226-.03-8.833-.075-21.511-.129-36.987l.246.247-78.712.065h-.006l.312-.312c-.01,18.055-.018,35.246-.025,50.839l-.287-.287c23.094.059,42.734.106,56.626.141l16.241.078,4.333.035,1.125.017a3.748,3.748,0,0,1,.392.017,2.46,2.46,0,0,1-.358.017l-1.092.017-4.277.036-16.177.076c-13.938.035-33.642.082-56.814.141h-.286v-.287c-.008-15.594-.017-32.785-.025-50.839v-.311h.317l78.712.065h.247v.246c-.054,15.541-.1,28.27-.129,37.14-.027,4.383-.048,7.812-.063,10.171q-.018,1.711-.027,2.643c-.008.594-.026.885-.026.885" transform="translate(42.877 7.267)" fill="#e8505b"/><path d="M299.263,43.956c0,.173-17.631.313-39.372.313s-39.377-.14-39.377-.313,17.626-.309,39.377-.309,39.372.139,39.372.309" transform="translate(42.923 8.496)" fill="#e8505b"/><path d="M225.725,40.938a.968.968,0,1,1-.96-.843.908.908,0,0,1,.96.843" transform="translate(43.563 7.804)" fill="#e8505b"/><path d="M228.655,40.938a.968.968,0,1,1-.96-.843.907.907,0,0,1,.96.843" transform="translate(44.133 7.804)" fill="#e8505b"/><path d="M231.585,40.938a.968.968,0,1,1-.961-.843.907.907,0,0,1,.961.843" transform="translate(44.704 7.804)" fill="#e8505b"/></g><g clip-path="url(#a)"><path d="M96.218,228.491l31.21,105.349a11.014,11.014,0,0,0,10.562,7.886l126.628.349a11.706,11.706,0,1,0,.031-23.413H216.224L177.446,210.611H109.569a13.924,13.924,0,0,0-13.351,17.88" transform="translate(18.615 40.995)" fill="#7f7f7f"/><path d="M195.2,308.372c0,.247-12.912.447-28.834.447s-28.838-.2-28.838-.447,12.908-.446,28.838-.446,28.834.2,28.834.446" transform="translate(26.769 59.937)" fill="#7f7f7f"/><path d="M103.919,213.412c.234-.078,8.856,25.146,19.257,56.331s18.646,56.54,18.412,56.619-8.855-25.14-19.258-56.336-18.644-56.537-18.411-56.614" transform="translate(20.227 41.54)" fill="#7f7f7f"/><path d="M182.65,413.968l-7.717-.182V320.363h7.717Z" transform="translate(34.05 62.358)" fill="#7f7f7f"/><path d="M148.1,400.2h71.837l-32.542-11.31h-7.717Z" transform="translate(28.827 75.697)" fill="#7f7f7f"/><path d="M132.889,196.375l11.884,59.384-2.122,44.5,79.9-13.288L219.414,248l-.06-32.246,19.591,37.966L254.2,224.258l-27.93-50.591,0,.006a47.138,47.138,0,0,0-18.273-11.829,37.645,37.645,0,0,0-11.449-2.193h0a45.894,45.894,0,0,1-27.66.017c-1.123.141-2.682.289-4.645.521l-.36.043a35.325,35.325,0,0,0-30.833,33.218Z" transform="translate(25.867 31.075)" fill="#272e56"/><path d="M165.234,160.1s-32.828.249-36.894,34.921l-.552,25.423,28.273-.245Z" transform="translate(24.874 31.163)" fill="#272e56"/><path d="M243.583,197.506c0,.247-25.834.447-57.691.447s-57.7-.2-57.7-.447,25.825-.446,57.7-.446,57.691.2,57.691.446" transform="translate(24.953 38.357)" fill="#fafafa"/><path d="M243.583,202.108c0,.246-25.834.446-57.691.446s-57.7-.2-57.7-.446,25.825-.447,57.7-.447,57.691.2,57.691.447" transform="translate(24.953 39.253)" fill="#fafafa"/><path d="M241.734,193.694c0,.246-25.419.447-56.766.447s-56.772-.2-56.772-.447,25.413-.447,56.772-.447,56.766.2,56.766.447" transform="translate(24.953 37.615)" fill="#fafafa"/><path d="M204.93,248.618c-.247-.006-.137-14.057.244-31.382s.89-31.37,1.136-31.364.137,14.054-.244,31.385-.891,31.368-1.136,31.362" transform="translate(39.863 36.18)" fill="#263238"/><path d="M195.561,219.319s15.529,1.111,18.325,5.216,7.054,15.814,5.442,15.9a4.413,4.413,0,0,1-2.788-.88l-4.257-7.543s.685,7.287-1.861,7.432-15.153,2.666-15.153,2.666Z" transform="translate(38.008 42.69)" fill="#d1cfcf"/><path d="M127.805,205.16l-.057,40.033a15.206,15.206,0,0,0,18.425,14.037l62.609-12.9-.134-25.672-54.021,10.366-.719-27.172Z" transform="translate(24.866 39.68)" fill="#272e56"/><path d="M159.211,258.078a4.191,4.191,0,0,1,.825-.229c.613-.14,1.417-.319,2.428-.547l9.2-1.947,32.59-6.661-.32.391c-.014-8.06-.029-16.965-.045-26.371l.526.435-11.006,2.116-43.026,8.19-.467.088.017-.468c.409-11.914.749-21.839.99-28.869.142-3.418.256-6.129.336-8.061.049-.878.088-1.579.118-2.12a3.382,3.382,0,0,1,.08-.724,3.458,3.458,0,0,1,.038.731c0,.541,0,1.244,0,2.125-.03,1.935-.073,4.647-.128,8.069-.164,7.027-.394,16.95-.671,28.863l-.45-.379,43-8.321,11.009-2.109.526-.1v.534c-.017,9.405-.031,18.31-.044,26.371v.327l-.321.062-32.652,6.345-9.245,1.73-2.451.425a4.384,4.384,0,0,1-.851.105" transform="translate(29.181 37.625)" fill="#263238"/><path d="M192.962,160.218c.029-.01.117.192.257.587a11.978,11.978,0,0,1,.485,1.77,14.526,14.526,0,0,1-.294,6.738,17.71,17.71,0,0,1-5.433,8.385,16.864,16.864,0,0,1-11.4,4.3,15.472,15.472,0,0,1-11.268-4.576,15.871,15.871,0,0,1-4.191-9.065,14.285,14.285,0,0,1,.788-6.7,9.612,9.612,0,0,1,.8-1.652c.215-.36.34-.54.367-.524.091.048-.38.8-.842,2.291a14.917,14.917,0,0,0-.491,6.5,15.53,15.53,0,0,0,4.156,8.572,14.817,14.817,0,0,0,10.677,4.255,16.254,16.254,0,0,0,10.852-4.028,17.475,17.475,0,0,0,5.372-7.948,15.171,15.171,0,0,0,.554-6.5c-.205-1.552-.486-2.387-.4-2.413" transform="translate(31.344 31.044)" fill="#263238"/><path d="M190.3,245.566a19.337,19.337,0,0,1,.013-3.951c.092-2.43.209-5.783.233-9.489s-.057-7.062-.122-9.493a19.463,19.463,0,0,1,.033-3.951,15.791,15.791,0,0,1,.6,3.912c.227,2.434.4,5.807.385,9.537s-.241,7.1-.5,9.527a15.878,15.878,0,0,1-.642,3.906" transform="translate(37.027 42.566)" fill="#fafafa"/><path d="M187.6,246.086a18.31,18.31,0,0,1-.112-3.921c.029-2.761.063-5.931.1-9.433,0-3.5-.006-6.674-.008-9.433a18.348,18.348,0,0,1,.15-3.921,16.143,16.143,0,0,1,.48,3.9c.165,2.418.287,5.763.27,9.46s-.174,7.041-.363,9.454a16.245,16.245,0,0,1-.517,3.895" transform="translate(36.493 42.701)" fill="#fafafa"/><path d="M244.115,374.877l11.832,32.586,16.792,23.076a3.552,3.552,0,0,1-4.222,5.376c-6.771-2.81-31.628-13.269-32.359-15.7-.848-2.817-16.895-37.863-16.895-37.863Z" transform="translate(42.679 72.969)" fill="#d1cfcf"/><g transform="translate(277.987 491.002)" opacity="0.6"><g clip-path="url(#k)"><path d="M269.142,428.606,232.693,411l.534,1.368a5.337,5.337,0,0,0,2.438,2.77c2.989,1.613,11.343,5.884,30.139,13.783a3.554,3.554,0,0,0,3.338-.318" transform="translate(-232.694 -411.001)" fill="#fff"/></g></g><g transform="translate(278.052 477.925)" opacity="0.6"><g clip-path="url(#l)"><path d="M235.257,400.129a2.152,2.152,0,0,1,1.567,2.4,2.067,2.067,0,0,1-2.368,1.573,2.268,2.268,0,0,1-1.646-2.553,2.146,2.146,0,0,1,2.645-1.363" transform="translate(-232.748 -400.055)" fill="#fff"/></g></g><path d="M252.448,417.285c.217.019.287-1.958,1.854-3.615,1.517-1.7,3.48-1.944,3.443-2.16,0-.09-.509-.182-1.307.006a5.661,5.661,0,0,0-4.1,4.466c-.118.811.017,1.308.108,1.3" transform="translate(49.108 80.079)" fill="#263238"/><path d="M255.766,419.891c.209.08.836-1.373,2.321-2.5,1.46-1.161,3.024-1.413,3-1.634.03-.2-1.792-.282-3.463,1.033-1.684,1.3-2.056,3.082-1.854,3.1" transform="translate(49.775 80.903)" fill="#263238"/><path d="M247.036,414.242c.211.094,1.166-2.147,3.32-4.106,2.126-1.992,4.436-2.763,4.359-2.982-.016-.192-2.59.294-4.874,2.424-2.306,2.1-3,4.634-2.805,4.664" transform="translate(48.079 79.244)" fill="#263238"/><path d="M243.329,405.66c.161.16,1.657-1.281,3.946-2.269,2.277-1.02,4.346-1.146,4.339-1.374.028-.194-2.2-.413-4.645.677-2.459,1.067-3.8,2.854-3.64,2.965" transform="translate(47.361 78.221)" fill="#263238"/><path d="M240.218,397.7c.173.148,1.548-1.627,4.045-2.469,2.478-.9,4.659-.369,4.7-.593.027-.088-.484-.355-1.4-.5a7.748,7.748,0,0,0-6.569,2.3c-.625.68-.857,1.208-.781,1.259" transform="translate(46.755 76.704)" fill="#263238"/><path d="M244.021,394.659a2.988,2.988,0,0,0-.431-1.239,9.09,9.09,0,0,0-2.217-2.823,4.045,4.045,0,0,0-2.314-1.17,1.427,1.427,0,0,0-1.383.879,2.327,2.327,0,0,0,.055,1.658,5.023,5.023,0,0,0,5.787,2.733,5.822,5.822,0,0,0,4.225-4.914,2.019,2.019,0,0,0-.521-1.6,1.4,1.4,0,0,0-1.634-.16,4.98,4.98,0,0,0-1.7,1.934,10.174,10.174,0,0,0-1.228,3.369,3.053,3.053,0,0,0-.061,1.309,16.172,16.172,0,0,1,1.748-4.4,4.653,4.653,0,0,1,1.522-1.65.746.746,0,0,1,.891.081,1.387,1.387,0,0,1,.281,1.073,5.2,5.2,0,0,1-3.713,4.217,4.36,4.36,0,0,1-4.945-2.25,1.678,1.678,0,0,1-.088-1.155.777.777,0,0,1,.757-.5,3.655,3.655,0,0,1,1.977.954,13.431,13.431,0,0,1,2.99,3.646" transform="translate(46.238 75.491)" fill="#263238"/><path d="M286.066,367.764l-1.023,26.484s26.576,9.935,26.863,14.848l-51.421-.141-.1-41.33Z" transform="translate(50.684 71.557)" fill="#d1cfcf"/><g transform="translate(318.331 463.449)" opacity="0.6"><g clip-path="url(#m)"><path d="M267.966,388.023a2.1,2.1,0,0,0-1.459,2.393,2.018,2.018,0,0,0,2.359,1.466,2.213,2.213,0,0,0,1.532-2.54,2.094,2.094,0,0,0-2.622-1.254" transform="translate(-266.464 -387.938)" fill="#fff"/></g></g><g transform="translate(311.159 476.392)" opacity="0.6"><g clip-path="url(#n)"><path d="M260.471,402.894l-.01-4.121,49.408,1.647s2.287,1,2.023,2.614Z" transform="translate(-260.461 -398.772)" fill="#fff"/></g></g><path d="M282.489,389.732c-.008.251-1.265.362-2.5,1.166-1.259.77-1.9,1.856-2.13,1.756-.231-.049.147-1.549,1.664-2.5s3.024-.655,2.968-.425" transform="translate(54.072 75.815)" fill="#263238"/><path d="M286.791,391.59c.057.244-1.031.669-1.888,1.728-.886,1.036-1.105,2.181-1.355,2.172-.237.038-.406-1.434.682-2.73s2.555-1.408,2.56-1.17" transform="translate(55.158 76.202)" fill="#263238"/><path d="M288.833,397.689c-.229.053-.575-1.2.073-2.576s1.824-1.919,1.931-1.708c.141.207-.624.943-1.138,2.077-.541,1.124-.616,2.181-.865,2.207" transform="translate(56.162 76.567)" fill="#263238"/><path d="M282.23,384.767c-.106.228-1.257-.121-2.676-.027-1.422.062-2.527.536-2.658.321-.145-.183.937-1.11,2.61-1.195s2.848.7,2.724.9" transform="translate(53.895 74.717)" fill="#263238"/><g transform="translate(311.072 444.567)" opacity="0.3"><g clip-path="url(#o)"><path d="M285.857,372.132l-.176,4.72-25.273-.3-.02-4.253Z" transform="translate(-260.388 -372.133)"/></g></g><path d="M282.722,380.822a4.82,4.82,0,0,1-2.576-.02,11.535,11.535,0,0,1-2.692-.835,12.019,12.019,0,0,1-1.478-.788,3.155,3.155,0,0,1-.775-.608,1.1,1.1,0,0,1-.112-1.336,1.38,1.38,0,0,1,1.1-.571,3.366,3.366,0,0,1,.965.136,9.106,9.106,0,0,1,3.97,2.118c1.19,1.109,1.595,2.048,1.509,2.1-.113.082-.692-.7-1.9-1.62a10.222,10.222,0,0,0-2.294-1.3,9.793,9.793,0,0,0-1.477-.461c-.544-.143-1.007-.149-1.148.093-.05.092-.057.129.056.288a2.569,2.569,0,0,0,.57.444,13.509,13.509,0,0,0,1.358.781,14.187,14.187,0,0,0,2.487.961,17.872,17.872,0,0,1,2.437.622" transform="translate(53.511 73.316)" fill="#263238"/><path d="M281.286,381.776a4.1,4.1,0,0,1-.673-2.49,8.315,8.315,0,0,1,1.019-4.38,2.129,2.129,0,0,1,1.646-1.3,1.2,1.2,0,0,1,1.073.722,3.479,3.479,0,0,1,.262.945,5.7,5.7,0,0,1,0,1.735,5.881,5.881,0,0,1-1.107,2.656c-1.008,1.331-2.056,1.628-2.078,1.542-.084-.125.793-.608,1.566-1.886a5.945,5.945,0,0,0,.821-2.418,5.3,5.3,0,0,0-.044-1.487c-.078-.547-.282-.988-.486-.934-.256,0-.692.406-.9.842a8.5,8.5,0,0,0-.643,1.394,9.247,9.247,0,0,0-.505,2.568c-.074,1.509.191,2.449.055,2.487" transform="translate(54.619 72.722)" fill="#263238"/><path d="M271.939,261.5c-30.375,3.143-70.649,7.269-70.649,7.269l5.494,49.445s59.165-15.637,58.743-14.369,2.741,105.207,2.741,105.207H303.9l.669-117.709A29.587,29.587,0,0,0,271.939,261.5" transform="translate(39.181 50.869)" fill="#263238"/><path d="M140.445,282.824v15.333c0,10.436,11.888,21.506,22.324,21.506h8.071c6.36,0,16.324-4.63,21.458-8.383l3.086-2.254,37.1,114.936s42.453-7.611,42.453-8.95-28.75-94.137-42.021-137.209c-5.418-17.586-24.26-27.811-41.667-21.842-.593.2-1.186.423-1.781.661-19.018,7.607-49.022,26.2-49.022,26.2" transform="translate(27.337 49.489)" fill="#263238"/><path d="M263.093,414.65a1.663,1.663,0,0,1-.188-.409c-.125-.325-.28-.73-.469-1.229-.4-1.084-.989-2.688-1.683-4.771-1.425-4.156-3.372-10.206-5.745-17.694-4.733-14.976-11.077-35.724-17.985-58.667-3.435-11.481-6.707-22.413-9.686-32.368-1.478-4.973-2.884-9.7-4.2-14.13q-.987-3.317-1.908-6.4a57.793,57.793,0,0,0-1.931-5.816,23.834,23.834,0,0,0-5.994-8.486,50.479,50.479,0,0,0-6.278-4.889c-1.817-1.222-3.265-2.12-4.253-2.718-.454-.284-.821-.512-1.117-.7a1.687,1.687,0,0,1-.364-.265,1.733,1.733,0,0,1,.41.185l1.161.62c1.02.548,2.5,1.4,4.356,2.584a48.286,48.286,0,0,1,6.424,4.812,24.111,24.111,0,0,1,6.236,8.609,57.532,57.532,0,0,1,2.009,5.859q.941,3.075,1.957,6.389l4.28,14.108c3,9.948,6.293,20.873,9.753,32.345l17.733,58.738c2.294,7.451,4.159,13.505,5.471,17.772.645,2.042,1.154,3.653,1.524,4.82.156.511.282.926.383,1.259a1.635,1.635,0,0,1,.1.438" transform="translate(39.181 49.851)" fill="#455a64"/><path d="M261.537,284.506c.221.153-1.8,3.186-3.491,7.3-1.72,4.107-2.442,7.678-2.7,7.631-.225-.021.115-3.75,1.882-7.973,1.741-4.233,4.141-7.107,4.314-6.962" transform="translate(49.69 55.377)" fill="#455a64"/><path d="M268.109,288.51c.105.249-2.962,1.59-6.149,4.118-3.212,2.5-5.24,5.162-5.457,5-.195-.11,1.573-3.1,4.906-5.7,3.313-2.622,6.639-3.633,6.7-3.417" transform="translate(49.925 56.152)" fill="#455a64"/><path d="M224.979,418.739c-.234.074-10.257-30.683-22.384-68.691s-21.771-68.893-21.536-68.968,10.255,30.676,22.387,68.7,21.768,68.888,21.534,68.962" transform="translate(35.242 54.712)" fill="#455a64"/><path d="M179.71,256.461l121.44,1.168,22.645-64.008-88.33.6-20.5,57.559-35.254.527Z" transform="translate(34.98 37.688)" fill="#9e9e9e"/><path d="M257.469,226.621a4.918,4.918,0,1,1,5.558-4.181,4.916,4.916,0,0,1-5.558,4.181" transform="translate(49.292 42.206)" fill="#c25461"/><path d="M173.859,102.576c1.146-4.258,4.351-6.356,8.525-7.778a13.756,13.756,0,0,1,12.544,2.036c2.347,1.787,4.185,4.383,6.971,5.352,4.589,1.595,9.965-1.84,14.364.219a6.266,6.266,0,0,1-2.966,11.932c2.994,1.093,3.924,5.364,2.175,8.028s-5.341,3.671-8.475,3.087-5.865-2.486-8.236-4.616-4.5-4.541-7.028-6.476-5.6-3.4-8.788-3.228c-4.308.232-8.007,3.481-9.926,7.346s-2.364,8.278-2.6,12.586-.315,8.689-1.592,12.811c-.149.484-.378,1.025-.863,1.174-.7.214-1.294-.528-1.641-1.172a63.334,63.334,0,0,1-7.236-23.545c-.487-4.775-.361-9.3,2.264-13.314s9.259-6.978,12.513-4.441" transform="translate(30.922 18.316)" fill="#263238"/><path d="M164.807,121.618l-2.2,48.337c-.374,8.22.755,20.371,13.778,20.371,11.3-.852,14.639-11.411,14.981-19.082.162-3.639.3-6.673.346-7.046,0,0,12.357-.6,13.8-12.735.7-5.866,1.152-18.065,1.434-29.105a22.768,22.768,0,0,0-20.359-23.211l-1.173-.125c-12.724-.607-20.348,9.861-20.6,22.6" transform="translate(31.639 19.269)" fill="#d1cfcf"/><path d="M189.494,154.437a28.433,28.433,0,0,1-15.367-6.189s2.815,9.146,15.06,9.342Z" transform="translate(33.893 28.856)" fill="#9e9e9e"/><path d="M165.893,125.669c-.2-.111-8.089-3.359-8.708,4.979s7.88,7.24,7.912,7,.8-11.98.8-11.98" transform="translate(30.589 24.322)" fill="#d1cfcf"/><path d="M162.438,133.874c-.035-.03-.153.091-.406.185a1.45,1.45,0,0,1-1.087-.059c-.858-.388-1.5-1.842-1.424-3.347a4.807,4.807,0,0,1,.56-2.05,1.681,1.681,0,0,1,1.176-1.033.742.742,0,0,1,.828.461c.094.242.03.4.072.422.023.023.19-.127.148-.475a.925.925,0,0,0-.289-.547,1.1,1.1,0,0,0-.787-.271,2.047,2.047,0,0,0-1.614,1.18,4.954,4.954,0,0,0-.676,2.285c-.07,1.684.673,3.321,1.852,3.758a1.559,1.559,0,0,0,1.345-.122c.274-.188.331-.37.3-.387" transform="translate(30.936 24.751)" fill="#9e9e9e"/><path d="M209.654,120.4a17.652,17.652,0,0,1-15.221-5.173c-2.69-2.822-4.587-6.669-8.171-8.2a9.933,9.933,0,0,0-7.66.229,19.185,19.185,0,0,0-6.283,4.652c1.692,6.427-.62,13.153-2.9,19.4a3.318,3.318,0,0,1-1.172,1.815c-1.063.651-2.472-.1-3.234-1.085a10.315,10.315,0,0,1-1.677-5.657,34.38,34.38,0,0,1,1.515-13.471,23.412,23.412,0,0,1,7.646-11.066,22.174,22.174,0,0,1,16.086-4.2,27.222,27.222,0,0,1,15.105,7.286,15.957,15.957,0,0,1,4.478,6.421" transform="translate(31.772 18.973)" fill="#263238"/></g><path d="M343.654,149.193,320.9,244.364h6.364l22.415-95.17Z" transform="translate(62.463 29.04)" fill="#263238"/><g clip-path="url(#a)"><path d="M333.113,201.661c-.412,1.744,10.3,53.619,10.3,53.619H338.26l-8.094-41.109Z" transform="translate(64.266 39.253)" fill="#263238"/><rect width="106.595" height="113.003" transform="translate(366.562 363.12)" fill="#c25461"/><rect width="5.235" height="5.234" transform="translate(473.157 379.633)" fill="#263238"/><rect width="5.235" height="5.234" transform="translate(473.157 396.252)" fill="#263238"/><rect width="5.235" height="5.235" transform="translate(473.157 412.869)" fill="#263238"/><rect width="5.235" height="5.235" transform="translate(473.157 429.487)" fill="#263238"/><path d="M400.658,347.005a7.919,7.919,0,0,1,1.61-.352,26.815,26.815,0,0,1,4.484-.424,12.093,12.093,0,0,1,6.477,1.7,7.493,7.493,0,0,1,3.6,7.174,9,9,0,0,1-1.361,4.1,10.715,10.715,0,0,1-2.755,2.914,14.09,14.09,0,0,1-6.234,2.463,20.633,20.633,0,0,1-4.5.153,6.682,6.682,0,0,1-1.635-.229,11.2,11.2,0,0,1,1.644-.013,24.268,24.268,0,0,0,4.425-.345,14.081,14.081,0,0,0,5.965-2.488,9.177,9.177,0,0,0,3.836-6.6,6.964,6.964,0,0,0-3.288-6.642,11.939,11.939,0,0,0-6.176-1.749,34.009,34.009,0,0,0-4.443.225,8.848,8.848,0,0,1-1.643.112" transform="translate(77.925 67.393)" fill="#263238"/><path d="M399.515,333.3a1.945,1.945,0,0,1,.5-.3,10.612,10.612,0,0,1,1.551-.626,12.252,12.252,0,0,1,6.123-.34,5.528,5.528,0,0,1,1.951.775,3.394,3.394,0,0,1,1.379,1.86,5.375,5.375,0,0,1-1.2,4.765,5.3,5.3,0,0,1-2.206,1.625,3.446,3.446,0,0,1-2.887-.155,2.942,2.942,0,0,1-1.657-2.509,3.013,3.013,0,0,1,1.693-2.59,4.631,4.631,0,0,1,3.049-.32,6.277,6.277,0,0,1,2.659,1.269,7.182,7.182,0,0,1,2.658,4.748,6.712,6.712,0,0,1-1.364,4.732A9.632,9.632,0,0,1,408.487,349a15.766,15.766,0,0,1-5.94,1.549c-.72.057-1.283.076-1.663.08a2,2,0,0,1-.582-.03c0-.049.794-.106,2.22-.292a16.559,16.559,0,0,0,5.756-1.7,9.308,9.308,0,0,0,3.068-2.682,6.2,6.2,0,0,0,1.213-4.364,6.635,6.635,0,0,0-2.466-4.337,5.7,5.7,0,0,0-2.4-1.138,4.04,4.04,0,0,0-2.638.265,2.4,2.4,0,0,0-1.363,2.037,2.345,2.345,0,0,0,1.328,1.974,2.835,2.835,0,0,0,2.394.133,4.745,4.745,0,0,0,1.971-1.434,4.875,4.875,0,0,0,1.142-4.253,3.6,3.6,0,0,0-2.932-2.351,12.6,12.6,0,0,0-5.959.143c-1.381.373-2.092.751-2.117.7" transform="translate(77.765 64.582)" fill="#263238"/><path d="M399.56,319.513a3.043,3.043,0,0,1,1.162-.215,8.543,8.543,0,0,1,3.2.449,9.128,9.128,0,0,1,3.983,2.682,9.088,9.088,0,0,1,.342,11.111,9.141,9.141,0,0,1-3.812,2.922,8.578,8.578,0,0,1-3.165.644,3.034,3.034,0,0,1-1.173-.143,11.974,11.974,0,0,0,4.165-.9,9.032,9.032,0,0,0,3.523-2.859,8.706,8.706,0,0,0-.319-10.4,9.034,9.034,0,0,0-3.693-2.637,11.935,11.935,0,0,0-4.211-.647" transform="translate(77.773 62.148)" fill="#263238"/><path d="M333.331,253.7a10.738,10.738,0,0,1,.9,2.11,40.588,40.588,0,0,1,1.414,6.419c.441,2.821.812,6.293,1.183,10.328s.712,8.636,1.358,13.681c.166,1.262.368,2.547.626,3.848a17.146,17.146,0,0,0,1.152,3.848,13.953,13.953,0,0,0,2.614,3.228,20.566,20.566,0,0,0,12.053,5.589,16.963,16.963,0,0,0,9.415-1.629,11.4,11.4,0,0,0,6.083-7.637,8.713,8.713,0,0,0-.358-5.078,8.962,8.962,0,0,0-3.31-4,10.008,10.008,0,0,0-5.041-1.68,7.985,7.985,0,0,0-5.1,1.5,5.616,5.616,0,0,0-1.729,2.039,4.207,4.207,0,0,0-.335,2.608,6.317,6.317,0,0,0,3.3,4.2A15.329,15.329,0,0,0,363,294.582a50.4,50.4,0,0,0,5.672.393,89.038,89.038,0,0,0,11.126-.628c7.272-.812,14.289-1.981,21.069-2.054,6.747-.111,13.3.868,18.76,3.543a21.958,21.958,0,0,1,6.983,5.216,16.072,16.072,0,0,1,3.625,7.163,19.328,19.328,0,0,1-2.07,13.443,22.712,22.712,0,0,1-7.085,7.562,26.472,26.472,0,0,1-5.854,2.987,17.9,17.9,0,0,1-2.193.662s.182-.078.546-.2.9-.313,1.6-.578a27.775,27.775,0,0,0,5.759-3.069,22.659,22.659,0,0,0,6.918-7.532,19.006,19.006,0,0,0,1.946-13.177,15.666,15.666,0,0,0-3.558-6.946A21.511,21.511,0,0,0,419.4,296.3c-5.366-2.606-11.834-3.56-18.525-3.433-6.723.087-13.712,1.262-21.011,2.086a88.782,88.782,0,0,1-11.2.64,50.317,50.317,0,0,1-5.74-.4,15.873,15.873,0,0,1-5.665-1.576,6.934,6.934,0,0,1-3.617-4.633,4.843,4.843,0,0,1,.385-2.99,6.252,6.252,0,0,1,1.92-2.269,8.6,8.6,0,0,1,5.5-1.621A10.625,10.625,0,0,1,366.8,283.9a9.579,9.579,0,0,1,3.529,4.282,9.332,9.332,0,0,1,.379,5.43,11.974,11.974,0,0,1-6.4,8.021,17.493,17.493,0,0,1-9.733,1.663,21.033,21.033,0,0,1-12.343-5.773,14.333,14.333,0,0,1-2.7-3.377,17.578,17.578,0,0,1-1.172-3.969c-.254-1.316-.45-2.611-.609-3.88-.624-5.07-.92-9.673-1.27-13.707s-.674-7.506-1.076-10.324a43.621,43.621,0,0,0-1.3-6.416,14.285,14.285,0,0,0-.563-1.6c-.151-.354-.214-.542-.214-.542" transform="translate(64.882 49.382)" fill="#263238"/><path d="M406.74,411.56s-.01-.173-.016-.5-.008-.82-.014-1.444c-.007-1.285-.019-3.161-.032-5.6-.017-4.906-.041-12.067-.072-21.167-.033-18.19-.081-44.112-.139-75.124l.272.272-96.352.038h-.01l.311-.311c-.017,38.174-.033,73.846-.045,103.836l-.265-.265,69.824.136c8.426.03,15.044.054,19.575.068l5.169.032c1.173.008,1.793.029,1.793.029s-.579.02-1.735.03l-5.119.031-19.515.068-69.993.137h-.266v-.266c-.014-29.99-.029-65.663-.045-103.836v-.312h.321l96.352.039h.274v.272c-.057,31.085-.105,57.067-.139,75.3-.031,9.073-.056,16.214-.072,21.1-.014,2.418-.025,4.276-.032,5.549-.006.614-.011,1.082-.014,1.416-.006.315-.017.468-.017.468" transform="translate(60.354 59.837)" fill="#263238"/><path d="M368.435,318.445a.5.5,0,1,1-.5-.5.5.5,0,0,1,.5.5" transform="translate(71.522 61.888)" fill="#263238"/><path d="M370.714,318.445a.5.5,0,1,1-.5-.5.5.5,0,0,1,.5.5" transform="translate(71.966 61.888)" fill="#263238"/><path d="M372.993,318.445a.5.5,0,1,1-.5-.5.5.5,0,0,1,.5.5" transform="translate(72.409 61.888)" fill="#263238"/><path d="M375.272,318.445a.5.5,0,1,1-.5-.5.5.5,0,0,1,.5.5" transform="translate(72.853 61.888)" fill="#263238"/><path d="M377.551,318.445a.5.5,0,1,1-.5-.5.5.5,0,0,1,.5.5" transform="translate(73.296 61.888)" fill="#263238"/><path d="M379.83,318.445a.5.5,0,1,1-.5-.5.5.5,0,0,1,.5.5" transform="translate(73.74 61.888)" fill="#263238"/><path d="M382.109,318.445a.5.5,0,1,1-.5-.5.5.5,0,0,1,.5.5" transform="translate(74.184 61.888)" fill="#263238"/><path d="M381.057,319.976a.5.5,0,1,1-.495-.5.5.5,0,0,1,.495.5" transform="translate(73.979 62.186)" fill="#263238"/><path d="M378.727,319.976a.5.5,0,1,1-.5-.5.5.5,0,0,1,.5.5" transform="translate(73.525 62.186)" fill="#263238"/><path d="M376.395,319.976a.5.5,0,1,1-.5-.5.5.5,0,0,1,.5.5" transform="translate(73.071 62.186)" fill="#263238"/><path d="M374.062,319.976a.5.5,0,1,1-.495-.5.5.5,0,0,1,.495.5" transform="translate(72.618 62.186)" fill="#263238"/><path d="M371.732,319.976a.5.5,0,1,1-.5-.5.5.5,0,0,1,.5.5" transform="translate(72.164 62.186)" fill="#263238"/><path d="M369.4,319.976a.5.5,0,1,1-.5-.5.5.5,0,0,1,.5.5" transform="translate(71.71 62.186)" fill="#263238"/><path d="M368.435,321.709a.5.5,0,1,1-.5-.5.5.5,0,0,1,.5.5" transform="translate(71.522 62.523)" fill="#263238"/><path d="M370.714,321.709a.5.5,0,1,1-.5-.5.5.5,0,0,1,.5.5" transform="translate(71.966 62.523)" fill="#263238"/><path d="M372.993,321.709a.5.5,0,1,1-.5-.5.5.5,0,0,1,.5.5" transform="translate(72.409 62.523)" fill="#263238"/><path d="M375.272,321.709a.5.5,0,1,1-.5-.5.5.5,0,0,1,.5.5" transform="translate(72.853 62.523)" fill="#263238"/><path d="M377.551,321.709a.5.5,0,1,1-.5-.5.5.5,0,0,1,.5.5" transform="translate(73.296 62.523)" fill="#263238"/><path d="M379.83,321.709a.5.5,0,1,1-.5-.5.5.5,0,0,1,.5.5" transform="translate(73.74 62.523)" fill="#263238"/><path d="M382.109,321.709a.5.5,0,1,1-.5-.5.5.5,0,0,1,.5.5" transform="translate(74.184 62.523)" fill="#263238"/><path d="M381.057,323.24a.5.5,0,1,1-.495-.5.5.5,0,0,1,.495.5" transform="translate(73.979 62.821)" fill="#263238"/><path d="M378.727,323.24a.5.5,0,1,1-.5-.5.5.5,0,0,1,.5.5" transform="translate(73.525 62.821)" fill="#263238"/><path d="M376.395,323.24a.5.5,0,1,1-.5-.5.5.5,0,0,1,.5.5" transform="translate(73.071 62.821)" fill="#263238"/><path d="M374.062,323.24a.5.5,0,1,1-.495-.5.5.5,0,0,1,.495.5" transform="translate(72.618 62.821)" fill="#263238"/><path d="M371.732,323.24a.5.5,0,1,1-.5-.5.5.5,0,0,1,.5.5" transform="translate(72.164 62.821)" fill="#263238"/><path d="M369.4,323.24a.5.5,0,1,1-.5-.5.5.5,0,0,1,.5.5" transform="translate(71.71 62.821)" fill="#263238"/><path d="M368.435,324.974a.5.5,0,1,1-.5-.5.5.5,0,0,1,.5.5" transform="translate(71.522 63.159)" fill="#263238"/><path d="M370.714,324.974a.5.5,0,1,1-.5-.5.5.5,0,0,1,.5.5" transform="translate(71.966 63.159)" fill="#263238"/><path d="M372.993,324.974a.5.5,0,1,1-.5-.5.5.5,0,0,1,.5.5" transform="translate(72.409 63.159)" fill="#263238"/><path d="M375.272,324.974a.5.5,0,1,1-.5-.5.5.5,0,0,1,.5.5" transform="translate(72.853 63.159)" fill="#263238"/><path d="M377.551,324.974a.5.5,0,1,1-.5-.5.5.5,0,0,1,.5.5" transform="translate(73.296 63.159)" fill="#263238"/><path d="M379.83,324.974a.5.5,0,1,1-.5-.5.5.5,0,0,1,.5.5" transform="translate(73.74 63.159)" fill="#263238"/><path d="M382.109,324.974a.5.5,0,1,1-.5-.5.5.5,0,0,1,.5.5" transform="translate(74.184 63.159)" fill="#263238"/><path d="M381.057,326.5a.5.5,0,1,1-.495-.5.5.5,0,0,1,.495.5" transform="translate(73.979 63.457)" fill="#263238"/><path d="M378.727,326.5a.5.5,0,1,1-.5-.5.5.5,0,0,1,.5.5" transform="translate(73.525 63.457)" fill="#263238"/><path d="M376.395,326.5a.5.5,0,1,1-.5-.5.5.5,0,0,1,.5.5" transform="translate(73.071 63.457)" fill="#263238"/><path d="M374.062,326.5a.5.5,0,1,1-.495-.5.5.5,0,0,1,.495.5" transform="translate(72.618 63.457)" fill="#263238"/><path d="M371.732,326.5a.5.5,0,1,1-.5-.5.5.5,0,0,1,.5.5" transform="translate(72.164 63.457)" fill="#263238"/><path d="M369.4,326.5a.5.5,0,1,1-.5-.5.5.5,0,0,1,.5.5" transform="translate(71.71 63.457)" fill="#263238"/><path d="M343.6,224.923a6.029,6.029,0,0,1,1.941.338,10.918,10.918,0,0,1,4.707,3.079,20.354,20.354,0,0,1,4.163,7.883,77.261,77.261,0,0,1,2.622,11.545c1.33,8.691,1.523,19.182.761,30.763a18.086,18.086,0,0,1-2.675,8.533,10.837,10.837,0,0,1-3.368,3.259,7.527,7.527,0,0,1-4.66,1.107,7.21,7.21,0,0,1-4.426-2.06,5.479,5.479,0,0,1-1.308-2.168,4.639,4.639,0,0,1-.035-2.572,5.5,5.5,0,0,1,3.334-3.756,3.946,3.946,0,0,1,2.641.007,4.785,4.785,0,0,1,2.1,1.589,6.507,6.507,0,0,1,1.16,4.953,13.578,13.578,0,0,1-1.72,4.7,18.469,18.469,0,0,1-6.8,6.858,18.254,18.254,0,0,1-17.688.247,20.8,20.8,0,0,1-6.451-5.56,27.041,27.041,0,0,1-3.916-7.01,45.761,45.761,0,0,1-2.615-14.1c-.24-4.387.006-8.36-.429-11.8a19.58,19.58,0,0,0-1.111-4.665,13.183,13.183,0,0,0-2-3.487,9.917,9.917,0,0,0-4.433-3.279,13.186,13.186,0,0,0-1.9-.456,6.127,6.127,0,0,1,1.94.337,9.859,9.859,0,0,1,4.581,3.246,13.347,13.347,0,0,1,2.086,3.531,19.775,19.775,0,0,1,1.179,4.73c.473,3.48.256,7.459.522,11.816a45.623,45.623,0,0,0,2.658,13.939,26.614,26.614,0,0,0,3.866,6.86,20.3,20.3,0,0,0,6.29,5.393,17.7,17.7,0,0,0,17.113-.269,17.911,17.911,0,0,0,6.571-6.637,12.988,12.988,0,0,0,1.644-4.479,5.883,5.883,0,0,0-1.038-4.491,4.174,4.174,0,0,0-1.827-1.385,3.315,3.315,0,0,0-2.22,0,4.886,4.886,0,0,0-2.942,3.328,4.286,4.286,0,0,0,1.186,4.154,6.607,6.607,0,0,0,4.045,1.88,6.931,6.931,0,0,0,4.292-1.018,10.237,10.237,0,0,0,3.181-3.076,17.5,17.5,0,0,0,2.6-8.255c.788-11.514.644-22-.625-30.642a78.464,78.464,0,0,0-2.52-11.507,20.331,20.331,0,0,0-4.009-7.824,11.014,11.014,0,0,0-4.568-3.123,12.561,12.561,0,0,0-1.9-.458" transform="translate(58.685 43.781)" fill="#e0e0e0"/><rect width="39.689" height="7.561" transform="translate(353.217 285.988)" fill="#e0e0e0"/><rect width="51.766" height="111.427" transform="translate(54.672 364.161)" fill="#263238"/><path d="M92.475,403.941s-.012-.17-.018-.481c0-.335-.011-.791-.019-1.385-.008-1.235-.02-3.024-.037-5.332-.019-4.659-.047-11.416-.081-19.906-.035-16.984-.084-40.9-.141-68.732l.3.3-43.3.016h-.006l.312-.312c-.033,37.226-.065,71.033-.087,95.835l-.225-.223,31.62.119c3.734.025,6.643.043,8.642.057l2.261.024c.513.007.787.024.787.024s-.244.016-.741.024l-2.221.024-8.592.056c-7.523.027-18.368.071-31.757.121h-.226v-.226c-.02-24.8-.051-58.608-.085-95.835V307.8h.317c15.219,0,29.865.01,43.3.014h.3v.3c-.057,27.912-.106,51.9-.141,68.931-.035,8.462-.062,15.195-.081,19.838-.016,2.282-.029,4.05-.037,5.271-.008.578-.013,1.024-.018,1.35-.006.3-.018.446-.018.446" transform="translate(9.509 59.912)" fill="#455a64"/><path d="M89.317,315.616c-.017-.018-.035-.418-.059-1.162-.019-.8-.045-1.867-.078-3.229l.136.136c-6.7.1-21.057.176-37.659.176h0c.137-.139-.312.311.309-.312v2.233c0,.736,0,1.457,0,2.159l-.309-.309c10.534.006,19.894.07,26.667.134l8.015.091,2.19.043a6.339,6.339,0,0,1,.79.042,4.2,4.2,0,0,1-.707.042l-2.121.042c-1.937.024-4.628.054-7.942.092-6.758.063-16.229.127-26.892.134h-.309v-.309c0-.7,0-1.423,0-2.159,0-.367,0-.738,0-1.11v-1.123c.622-.621.173-.172.313-.312h0c16.6,0,30.961.072,37.659.176l.14,0,0,.134c-.032,1.4-.059,2.493-.078,3.309a8.273,8.273,0,0,1-.059,1.082" transform="translate(9.994 60.513)" fill="#455a64"/><path d="M55.345,317.537c0,.172-.778.311-1.737.311s-1.736-.139-1.736-.311.778-.312,1.736-.312,1.737.14,1.737.312" transform="translate(10.097 61.747)" fill="#455a64"/><path d="M88.121,322.349c0,.172-8.015.312-17.9.312s-17.9-.14-17.9-.312,8.014-.312,17.9-.312,17.9.14,17.9.312" transform="translate(10.183 62.684)" fill="#455a64"/><path d="M88.15,328.163c0,.172-7.878.312-17.594.312s-17.595-.14-17.595-.312,7.876-.311,17.595-.311,17.594.139,17.594.311" transform="translate(10.309 63.816)" fill="#455a64"/><path d="M70.615,342.159a2.849,2.849,0,1,1-2.849-2.849,2.85,2.85,0,0,1,2.849,2.849" transform="translate(12.636 66.046)" fill="#c25461"/><path d="M61.822,341.636c0,.172-1.7.312-3.809.312s-3.807-.14-3.807-.312,1.7-.312,3.807-.312,3.809.14,3.809.312" transform="translate(10.551 66.438)" fill="#455a64"/><path d="M81.12,341.022c0,.172-1.622.311-3.625.311s-3.625-.139-3.625-.311,1.622-.312,3.625-.312,3.625.139,3.625.312" transform="translate(14.379 66.318)" fill="#455a64"/><path d="M50.393,370.492a10.739,10.739,0,0,1-1.939-.356,16.842,16.842,0,0,1-5.125-2.373,21.9,21.9,0,0,1-6.178-6.443,37.186,37.186,0,0,1-4.507-10.945A44.715,44.715,0,0,1,31.215,336.1a29.3,29.3,0,0,1,5.436-15.452,24.491,24.491,0,0,1,6.491-6.166,22.305,22.305,0,0,1,4.166-2.069,22.822,22.822,0,0,1,4.61-1.1c3.157-.438,6.387-.379,9.618-.567a23.872,23.872,0,0,0,9.454-2.179,10.6,10.6,0,0,0,5.869-7.212A10.07,10.07,0,0,0,66.8,289.05a7.146,7.146,0,0,0-3.988,1.479,4.321,4.321,0,0,0-1.669,3.6,5.78,5.78,0,0,0,5.328,5.148,8.76,8.76,0,0,0,6.831-3.069,16.408,16.408,0,0,0,3.3-6.485,56.383,56.383,0,0,0,1.379-6.7,110.427,110.427,0,0,0,.632-20.675c-.123-2.423-.219-4.315-.284-5.635-.03-.621-.053-1.106-.069-1.466a3.013,3.013,0,0,1,0-.5,2.931,2.931,0,0,1,.066.5c.032.358.075.842.13,1.462.1,1.285.256,3.183.4,5.63a106.173,106.173,0,0,1-.44,20.75,56.321,56.321,0,0,1-1.351,6.77,16.837,16.837,0,0,1-3.383,6.7,9.27,9.27,0,0,1-7.252,3.27,6.331,6.331,0,0,1-5.863-5.663,4.906,4.906,0,0,1,1.87-4.087,7.729,7.729,0,0,1,4.317-1.62,10.671,10.671,0,0,1,10.7,13.03A10.407,10.407,0,0,1,75.27,306a12.324,12.324,0,0,1-4,3.122,24.407,24.407,0,0,1-9.7,2.242c-3.265.188-6.475.127-9.57.554a22.265,22.265,0,0,0-4.489,1.062,21.81,21.81,0,0,0-4.051,2,23.957,23.957,0,0,0-6.348,6.005,28.844,28.844,0,0,0-5.383,15.151,44.549,44.549,0,0,0,1.342,14.128,37.188,37.188,0,0,0,4.374,10.868,21.915,21.915,0,0,0,6.022,6.43,17.446,17.446,0,0,0,5.022,2.451c.616.18,1.093.3,1.418.358a2.887,2.887,0,0,1,.486.118" transform="translate(6.057 49.586)" fill="#263238"/><rect width="122.576" height="84.171" transform="translate(38.812 191.309)" fill="#263238"/><rect width="16.689" height="31.751" transform="translate(90.622 264.004)" fill="#263238"/></g><path d="M42.7,246.7v11.428h63.24V428.316h5.819V258.133l264.133,1.3v168.88H381.6v-169.2l40.761.326V245.72Z" transform="translate(8.311 47.829)" fill="#263238"/><path d="M76.963,254.25,101.9,272.207l-2.167,2.08L74.59,255.343Z" transform="translate(14.519 49.489)" fill="#263238"/><path d="M350.767,255.653l-28.934,20.605,2.168,2.08,29.139-21.592Z" transform="translate(62.644 49.762)" fill="#263238"/><rect width="65.366" height="4.81" transform="translate(142.979 290.328)" fill="#263238"/><g clip-path="url(#a)"><path d="M234.831,122.7H372.164a5,5,0,0,1,4.995,4.994v15.981a4.994,4.994,0,0,1-4.995,4.994H234.831a4.993,4.993,0,0,1-4.995-4.994V127.692a4.994,4.994,0,0,1,4.995-4.994" transform="translate(44.737 23.883)" fill="#393f76"/><g transform="translate(294.049 153.871)"><g clip-path="url(#r)"><g clip-path="url(#r)"><text transform="translate(0.001 9.048)" fill="#fff" font-size="11" font-family="Helvetica"><tspan x="0" y="0">Criar Campanha</tspan></text></g></g></g><path d="M337.923,132.707l-.187-.19a.317.317,0,0,0-.447,0l-2.154,2.154-2.155-2.156a.317.317,0,0,0-.447,0l-.189.189a.319.319,0,0,0,0,.447l2.567,2.576a.32.32,0,0,0,.223.1.325.325,0,0,0,.223-.1l2.564-2.57a.319.319,0,0,0,0-.449Z" transform="translate(64.672 25.776)" fill="#fff"/><path d="M72.256,50.234s-6.066-2.791-2.784-7.463a8.033,8.033,0,0,1,3.1-2.573,47.225,47.225,0,0,1,14.087-3.92s5.45-1.109,7.366,1.067,1.113,6.813,1.113,6.813S95,41.84,91.724,41.579s-9,.848-13.764,2.364c-4.537,1.443-6.266,1.658-6.667,3.977-.329,1.9.963,2.314.963,2.314" transform="translate(13.333 7.006)" fill="#fff"/><path d="M79.028,51.052c-.192-.43-.735-1.056-2.306-1.225a27.828,27.828,0,0,1-4.978-1.107l0,0a.05.05,0,0,0-.022,0,.17.17,0,0,1-.038-.017l-.044-.03-.219-.147a2.042,2.042,0,0,1-.571-2.081c.27-1.555,1.135-2.164,3.045-2.83l2.264.495,0,0a.046.046,0,0,0,.016.013c.178.166,1.59,1.612,2.852,6.934" transform="translate(13.78 8.488)" fill="#e3e3e3"/><path d="M77.782,50.247l-.078-.366a1.117,1.117,0,0,1,.078.366" transform="translate(15.125 9.709)" fill="#fff"/><path d="M71.61,47.9l.066.032a.535.535,0,0,1-.091-.041.138.138,0,0,1-.037-.017.712.712,0,0,1-.066-.037l.022.008c.044.022.076.041.1.051Z" transform="translate(13.914 9.311)" fill="#fff"/><path d="M77.782,50.247l-.078-.366a1.117,1.117,0,0,1,.078.366" transform="translate(15.125 9.709)" fill="#fff"/><path d="M88.711,57.189c-.1.183-1.02,1.743-2.3,1.491-.066-.013-.133-.026-.195-.037a4,4,0,0,1-1.314-.454,1.791,1.791,0,0,1-.188-.128.044.044,0,0,1-.017-.011,2.177,2.177,0,0,1-.248-.226c-.029-.03-.057-.06-.085-.092l-.082-.1a1.272,1.272,0,0,1-.078-.106c-.029-.038-.054-.075-.081-.115a1.176,1.176,0,0,1-.074-.122c-.025-.043-.049-.087-.074-.133a1.094,1.094,0,0,1-.07-.14c-.023-.049-.048-.1-.069-.149-.048-.109-.094-.223-.137-.346s-.074-.228-.113-.351c-.019-.065-.036-.133-.055-.2h0A56.529,56.529,0,0,0,86.5,45.727a26.225,26.225,0,0,0,.3-5.063,14.964,14.964,0,0,1,2,.011c3.272.262,3.417,2.578,3.417,2.578s-.8,9-3.505,13.936" transform="translate(16.258 7.91)" fill="#e3e3e3"/><path d="M71.482,47.835c.123.062.195.094.195.094a1.1,1.1,0,0,1-.195-.094" transform="translate(13.914 9.311)" fill="#fff"/><path d="M75.283,44.021s1.641,1.358,3.026,7.625,1.935,8.174,3.574,8.986a5.547,5.547,0,0,0,5.454-.018,6,6,0,0,0,2.985-4.1s-.949,1.775-2.312,1.506S85.555,57.485,85,54.76a54.089,54.089,0,0,0-1.658-6.538c-.275-.545-.007-1.91-2.463-2.719s-5.6-1.481-5.6-1.481" transform="translate(14.654 8.569)" fill="#fff"/></g></g></svg>