<svg id="Componente_5_1" data-name="Componente 5 – 1" xmlns="http://www.w3.org/2000/svg" xmlns:xlink="http://www.w3.org/1999/xlink" width="192.188" height="199.911" viewBox="0 0 192.188 199.911">
  <defs>
    <clipPath id="clip-path">
      <rect id="Retângulo_80" data-name="Retângulo 80" width="76.701" height="191.557" fill="none"/>
    </clipPath>
    <clipPath id="clip-path-2">
      <rect id="Retângulo_82" data-name="Retângulo 82" width="92.651" height="199.911" fill="none"/>
    </clipPath>
  </defs>
  <g id="Grupo_121" data-name="Grupo 121" transform="translate(0 4.703)">
    <g id="Grupo_120" data-name="Grupo 120" clip-path="url(#clip-path)">
      <path id="Caminho_422" data-name="Caminho 422" d="M15.6,103.618a4.115,4.115,0,0,1,.125,1.436l-.264,1.94-5.053,1.3-2.049-4.576Z" transform="translate(-4.688 -58.114)" fill="#e3e3e3"/>
      <path id="Caminho_423" data-name="Caminho 423" d="M15.6,103.618a4.115,4.115,0,0,1,.125,1.436l-.264,1.94-5.053,1.3-2.049-4.576Z" transform="translate(-4.688 -58.114)" fill="#e3e3e3"/>
      <path id="Caminho_424" data-name="Caminho 424" d="M68.591,410.675c.174-3.967-.48-4.45-.307-8.417l-5.192.174c-.184,4.334.165,4.922-1.33,8.993a3.634,3.634,0,0,1-2.89,2.115s.215,2.376,3.584,1.829,5.733-4.078,5.733-4.078Z" transform="translate(-33.019 -225.606)" fill="#e3e3e3"/>
      <path id="Caminho_425" data-name="Caminho 425" d="M68.591,410.675c.174-3.967-.48-4.45-.307-8.417l-5.192.174c-.184,4.334.165,4.922-1.33,8.993a3.634,3.634,0,0,1-2.89,2.115s.215,2.376,3.584,1.829,5.733-4.078,5.733-4.078Z" transform="translate(-33.019 -225.606)" fill="#e3e3e3"/>
      <path id="Caminho_426" data-name="Caminho 426" d="M112.683,407.2c.174-3.967-.209-4.5-.035-8.466l-5.463.223c-.184,4.334.165,4.922-1.33,8.993a3.634,3.634,0,0,1-2.89,2.115s-1.425,2.6,2.945,1.508a12.73,12.73,0,0,0,6.647-4.1" transform="translate(-57.623 -223.629)" fill="#a35947"/>
      <path id="Caminho_427" data-name="Caminho 427" d="M112.683,407.2c.174-3.967-.209-4.5-.035-8.466l-5.463.223c-.184,4.334.165,4.922-1.33,8.993a3.634,3.634,0,0,1-2.89,2.115s-1.425,2.6,2.945,1.508a12.73,12.73,0,0,0,6.647-4.1" transform="translate(-57.623 -223.629)" fill="#e3e3e3"/>
      <path id="Caminho_428" data-name="Caminho 428" d="M56.418,417.941c.44-.33.975-.725,1.485-.518.482.2.614.8.665,1.321.115,1.162.127,3.944-.595,4.861-.952,1.211-2.732,1.276-4.272,1.235l-7.972-.213a21.675,21.675,0,0,1-4.085-.329,2.963,2.963,0,0,1-1.895-1.678c2.465-.656,6.985-2.818,9.538-2.435a9.622,9.622,0,0,0,7.131-2.245" transform="translate(-22.293 -234.079)" fill="#231f20"/>
      <path id="Caminho_429" data-name="Caminho 429" d="M56.418,417.941c.44-.33.975-.725,1.485-.518.482.2.614.8.665,1.321.115,1.162.127,3.944-.595,4.861-.952,1.211-2.732,1.276-4.272,1.235l-7.972-.213a21.675,21.675,0,0,1-4.085-.329,2.963,2.963,0,0,1-1.895-1.678c2.465-.656,6.985-2.818,9.538-2.435A9.622,9.622,0,0,0,56.418,417.941Z" transform="translate(-22.293 -234.079)" fill="none" stroke="#231f20" stroke-linecap="round" stroke-linejoin="round" stroke-width="2"/>
      <path id="Caminho_430" data-name="Caminho 430" d="M101.579,417.011c.413-.364.915-.8,1.44-.634.5.156.675.753.767,1.264.207,1.149.438,3.921-.209,4.893-.854,1.283-2.622,1.487-4.161,1.568l-7.964.417a21.591,21.591,0,0,1-4.1-.005,2.96,2.96,0,0,1-2.021-1.522c2.405-.849,6.74-3.362,9.316-3.181a9.621,9.621,0,0,0,6.931-2.8" transform="translate(-47.858 -233.504)" fill="#231f20"/>
      <path id="Caminho_431" data-name="Caminho 431" d="M101.579,417.011c.413-.364.915-.8,1.44-.634.5.156.675.753.767,1.264.207,1.149.438,3.921-.209,4.893-.854,1.283-2.622,1.487-4.161,1.568l-7.964.417a21.591,21.591,0,0,1-4.1-.005,2.96,2.96,0,0,1-2.021-1.522c2.405-.849,6.74-3.362,9.316-3.181A9.621,9.621,0,0,0,101.579,417.011Z" transform="translate(-47.858 -233.504)" fill="none" stroke="#231f20" stroke-linecap="round" stroke-linejoin="round" stroke-width="2"/>
      <path id="Caminho_432" data-name="Caminho 432" d="M78.379,240.312c.66,17.793,3.107,43.66,3.767,61.452a9.774,9.774,0,0,0,.386,2.837c.5,1.448,6.441,2.546,7.2,1.213a6.816,6.816,0,0,0,.657-2.744c1.645-17.148,3.289-41.4,4.934-58.546l-.524-10.364-31.141-1.093-2.974,9.715c.66,17.793,1.319,42.688,1.979,60.48a9.786,9.786,0,0,0,.386,2.836c.5,1.448,6.441,2.547,7.2,1.214a6.821,6.821,0,0,0,.657-2.745c1.645-17.148,3.289-41.4,4.933-58.546" transform="translate(-34.032 -130.716)" fill="#e3e3e3"/>
      <path id="Caminho_433" data-name="Caminho 433" d="M80.165,241.284c.66,17.793,1.319,42.688,1.979,60.48a9.768,9.768,0,0,0,.386,2.837c.5,1.448,6.441,2.547,7.2,1.214a6.828,6.828,0,0,0,.657-2.744c1.645-17.148,3.289-41.4,4.934-58.546l-.524-10.364-31.141-1.093-2.974,9.715c.66,17.793,1.319,42.687,1.979,60.48a9.789,9.789,0,0,0,.386,2.837c.5,1.448,6.441,2.547,7.2,1.213a6.824,6.824,0,0,0,.657-2.744c1.645-17.148,3.289-41.4,4.933-58.546" transform="translate(-34.031 -130.716)" fill="#e3e3e3"/>
      <path id="Caminho_434" data-name="Caminho 434" d="M68.948,11.355c-1.659,1.093-2.015,4.488-1.857,6.468a9.064,9.064,0,0,1-1.479,5.787c-.31.441-.741.929-.575,1.442.138.426,1.4.613,1.771.868a5.217,5.217,0,0,1,1.573,2.758c.357,1.017.924,2.866,1.963,3.154.781.217,1.675-.085,2.392.291a2.644,2.644,0,0,1,1.09,2.021A14.52,14.52,0,0,1,73.82,39.7l2.5,1.992h8.264l2.253-10.244L84.651,13.762l-9.356-3.688Z" transform="translate(-36.455 -5.65)" fill="#e0e0e0"/>
      <path id="Caminho_435" data-name="Caminho 435" d="M68.948,11.355c-1.659,1.093-2.015,4.488-1.857,6.468a9.064,9.064,0,0,1-1.479,5.787c-.31.441-.741.929-.575,1.442.138.426,1.649.245,1.649.245a33.374,33.374,0,0,1,1.7,3.381c.357,1.017.924,2.866,1.963,3.154.781.217,1.675-.085,2.392.291a2.644,2.644,0,0,1,1.09,2.021A14.52,14.52,0,0,1,73.82,39.7l2.5,1.992h8.264l2.253-10.244L84.651,13.762l-9.356-3.688Z" transform="translate(-36.455 -5.65)" fill="#e0e0e0"/>
      <path id="Caminho_436" data-name="Caminho 436" d="M83.818,59.274a21.024,21.024,0,0,0,2.1-1.488c.615-.615,1.844.819,1.025,3-.585,1.559-.911,3.272-2.391,4.353a14.325,14.325,0,0,0-.17-4.32,3.7,3.7,0,0,0-.562-1.55" transform="translate(-47.009 -32.329)" fill="#bfbfbf"/>
      <path id="Caminho_437" data-name="Caminho 437" d="M83.818,59.274a21.024,21.024,0,0,0,2.1-1.488c.615-.615,1.844.819,1.025,3-.585,1.559-.911,3.272-2.391,4.353a14.325,14.325,0,0,0-.17-4.32,3.7,3.7,0,0,0-.562-1.55" transform="translate(-47.009 -32.329)" fill="#bfbfbf"/>
      <path id="Caminho_438" data-name="Caminho 438" d="M20.257,33.636s6.184-4.122,4.872-6.277-4.122,0-4.31,1.311S19.6,24.736,17.54,25.391s1.78,7.87,2.717,8.245" transform="translate(-9.501 -14.209)" fill="#fff"/>
      <path id="Caminho_439" data-name="Caminho 439" d="M20.257,33.636s6.184-4.122,4.872-6.277-4.122,0-4.31,1.311S19.6,24.736,17.54,25.391s1.78,7.87,2.717,8.245" transform="translate(-9.501 -14.209)" fill="#fff"/>
      <rect id="Retângulo_78" data-name="Retângulo 78" width="10.359" height="20.078" transform="matrix(0.98, -0.197, 0.197, 0.98, 0.439, 26.429)" fill="#231f20"/>
      <rect id="Retângulo_79" data-name="Retângulo 79" width="10.359" height="20.078" transform="matrix(0.98, -0.197, 0.197, 0.98, 0.439, 26.429)" stroke-width="2" stroke="#231f20" stroke-linecap="round" stroke-linejoin="round" fill="none"/>
      <path id="Caminho_440" data-name="Caminho 440" d="M1.028,61.152a.552.552,0,0,1,.347-.233l10.155-2.045a.546.546,0,0,1,.643.428l2.9,14.4a.546.546,0,0,1-.428.643L4.491,76.389a.541.541,0,0,1-.108.011.547.547,0,0,1-.535-.439l-2.9-14.4a.551.551,0,0,1,.081-.411" transform="translate(-0.526 -33.013)" fill="#fff"/>
      <path id="Caminho_441" data-name="Caminho 441" d="M19.759,77.4a.547.547,0,0,1-.428.643l-8.865,1.785-1.175.165s5.41-9.827,8.062-14.539Z" transform="translate(-5.211 -36.708)" fill="#e0e0e0"/>
      <path id="Caminho_442" data-name="Caminho 442" d="M69.71,118.136c4.061-3.078,6.51-1.071,6.38-6.165a16.407,16.407,0,0,0-7.05-12.923c-.689,16.258.7,25.5,4.11,41.411.808,3.762,1.633,8.04-.6,11.176-1.452,2.041-3.9,1.6-6.289,2.367a45.72,45.72,0,0,1-28.047-.117c-3.183-1.049-6.431-1.108-8.191-3.959-2.1-3.4-1.582-7.723-1-11.67,2.431-16.367,4.863-25.631,7.294-42a27.743,27.743,0,0,1-7.608,14.783c-1.642,1.654-3.818,3.188-6.113,2.779-2.952-.526-4.769-3.951-5.7-6.8-.891-2.718-1.92-5.214-2.811-7.932-.694-2.121-2.772-6.019-1.624-7.932a5.341,5.341,0,0,1,6.1-2.212l3.571,13.48a2.118,2.118,0,0,0,.7,1.287c1.037.7,2.19-.722,2.624-1.9,2.265-6.126,4.1-12.5,7.647-17.991s9.24-10.082,15.768-10.315c7.763-.277,16.165,2.835,21.452,8.526S78.6,96.757,81.48,103.972c1.646,4.123,1.719,5.686,1.371,10.111-.32,4.072-1.549,5.331-4.214,8.427a13.074,13.074,0,0,1-8.4,4.589" transform="translate(-6.802 -41.217)" fill="#333d79"/>
      <path id="Caminho_443" data-name="Caminho 443" d="M69.71,118.136c4.061-3.078,6.51-1.071,6.38-6.165a16.407,16.407,0,0,0-7.05-12.923c-.689,16.258.7,25.5,4.11,41.411.808,3.762,1.633,8.04-.6,11.176-1.452,2.041-3.9,1.6-6.289,2.367a45.72,45.72,0,0,1-28.047-.117c-3.183-1.049-6.431-1.108-8.191-3.959-2.1-3.4-1.582-7.723-1-11.67,2.431-16.367,4.863-25.631,7.294-42a27.743,27.743,0,0,1-7.608,14.783c-1.642,1.654-3.818,3.188-6.113,2.779-2.952-.526-4.769-3.951-5.7-6.8-.891-2.718-1.92-5.214-2.811-7.932-.694-2.121-2.772-6.019-1.624-7.932a5.341,5.341,0,0,1,6.1-2.212l3.571,13.48a2.118,2.118,0,0,0,.7,1.287c1.037.7,2.19-.722,2.624-1.9,2.265-6.126,4.1-12.5,7.647-17.991s9.24-10.082,15.768-10.315c7.763-.277,16.165,2.835,21.453,8.527,3.691,3.973,6.008,9.064,8.043,14.027,2.172,5.3,4.876,10.685,4.685,16.539a13.469,13.469,0,0,1-2.471,7.649c-2.687,3.582-6.967,4.28-10.35,6.849" transform="translate(-6.802 -41.217)" fill="none" stroke="#333d79" stroke-miterlimit="10" stroke-width="2"/>
      <path id="Caminho_444" data-name="Caminho 444" d="M6.571,90.01c1.123-3.166.4-9.917-.612-10.852-.657-.606-1.5.895-1.707,1.765S4,83.962,3.354,84.58A37.55,37.55,0,0,0,1.567,76.8a13.966,13.966,0,0,0,.856,11.005c.851,1.707,1.5,3.581,2.708,5.667l.293-.732.036-2.159L5.4,89.907c1.123-3.166.76-7.4.557-10.749-.891-.072-1.5.895-1.707,1.765S4,83.962,3.354,84.58A37.55,37.55,0,0,0,1.567,76.8c-2.23.253-.845,7.591.856,11.005.851,1.707,2.211,2.971,2.638,4.83" transform="translate(-0.23 -43.075)" fill="#e3e3e3"/>
      <path id="Caminho_445" data-name="Caminho 445" d="M80.813,15.205c1.462,1.371,1.736-2.558,4.385-.091.324,3.24-.934,11-1.263,14.236C83.769,31,83.712,32.944,85,33.984a3.374,3.374,0,0,0,2.691.558,10.007,10.007,0,0,0,2.639-1l4.983-2.455c1.3-.639,2.7-1.394,3.22-2.745a4.218,4.218,0,0,0-.3-3.212,32.451,32.451,0,0,0-1.7-2.84c-2.456-4.155-2.549-9.328-4.687-13.655a13.335,13.335,0,0,0-9.761-7.447,13.968,13.968,0,0,0-5.978.284c-1.213.466-4.543,2.6-4.934,4-.463,1.658,4.154,1.331,5.185,1.743,1.763.7,3.265,6.523,4.456,8" transform="translate(-39.899 -0.561)" fill="#231f20"/>
      <path id="Caminho_446" data-name="Caminho 446" d="M80.813,15.205c1.462,1.371,1.736-2.558,4.385-.091.324,3.24-.934,11-1.263,14.236C83.769,31,83.712,32.944,85,33.984a3.374,3.374,0,0,0,2.691.558,10.007,10.007,0,0,0,2.639-1l4.983-2.455c1.3-.639,2.7-1.394,3.22-2.745a4.218,4.218,0,0,0-.3-3.212,32.451,32.451,0,0,0-1.7-2.84c-2.456-4.155-2.549-9.328-4.687-13.655a13.335,13.335,0,0,0-9.761-7.447,13.968,13.968,0,0,0-5.978.284c-1.213.466-4.543,2.6-4.934,4-.463,1.658,4.154,1.331,5.185,1.743C78.121,7.912,79.622,13.732,80.813,15.205Z" transform="translate(-39.899 -0.561)" fill="none" stroke="#231f20" stroke-linecap="round" stroke-linejoin="round" stroke-width="2"/>
      <path id="Caminho_447" data-name="Caminho 447" d="M94.306,33.378c.437-.672,2.388-2.68,3.728-1.675a2.8,2.8,0,0,1,.922,2.973,4.351,4.351,0,0,1-3.1,2.728" transform="translate(-52.891 -17.625)" fill="#e0e0e0"/>
      <path id="Caminho_448" data-name="Caminho 448" d="M97.768,33.565a1.278,1.278,0,0,1,1.648.318,2.1,2.1,0,0,1-2.076,3.453" transform="translate(-54.593 -18.719)" fill="#e0e0e0"/>
      <path id="Caminho_449" data-name="Caminho 449" d="M93,198.068q.5,2.726,1.081,5.437c.808,3.763,1.633,8.04-.6,11.176-1.452,2.041-3.9,1.6-6.289,2.367a45.724,45.724,0,0,1-28.047-.117c-3.183-1.049-6.431-1.108-8.192-3.959-2.1-3.4-1.582-7.722-1-11.67.771-5.19,1.709-10.208,2.479-15.4C63.718,196.878,81.746,198.289,93,198.068" transform="translate(-27.729 -104.264)" fill="#2d366e"/>
      <path id="Caminho_450" data-name="Caminho 450" d="M93,197.78q.5,2.726,1.081,5.437c.808,3.763,1.633,8.04-.6,11.176-1.452,2.041-3.9,1.6-6.289,2.367a45.724,45.724,0,0,1-28.047-.117c-3.183-1.049-6.431-1.108-8.192-3.959-2.1-3.4-1.582-7.722-1-11.67.771-5.19,1.934-10.434,2.7-15.623C63.944,196.366,81.746,198,93,197.78Z" transform="translate(-27.729 -103.977)" fill="none" stroke="#2d366e" stroke-miterlimit="10" stroke-width="2"/>
      <path id="Caminho_451" data-name="Caminho 451" d="M100.7,36.6s.428-1.675-.67-1.969" transform="translate(-56.102 -19.423)" fill="none" stroke="#e0e0e0" stroke-miterlimit="10" stroke-width="1"/>
      <path id="Caminho_452" data-name="Caminho 452" d="M22.275,98.466a.856.856,0,1,0,.854-.922.89.89,0,0,0-.854.922" transform="translate(-12.493 -54.707)" fill="#736568"/>
      <path id="Caminho_453" data-name="Caminho 453" d="M22.275,98.466a.856.856,0,1,0,.854-.922A.89.89,0,0,0,22.275,98.466Z" transform="translate(-12.493 -54.707)" fill="none" stroke="#736568" stroke-linecap="round" stroke-linejoin="round" stroke-width="2"/>
      <path id="Caminho_454" data-name="Caminho 454" d="M22.293,76.56c-.013.058-.131.552-.5.59a.819.819,0,0,1-.845-.232,2.076,2.076,0,0,1-.152-.26,15.911,15.911,0,0,0-.041-3,7.608,7.608,0,0,0-.35-1.422c.848-.376,1.555-.114,1.685.288a12.584,12.584,0,0,1,.2,4.036" transform="translate(-11.445 -40.412)" fill="#ca4f5a"/>
      <path id="Caminho_455" data-name="Caminho 455" d="M9.517,74.254c-.942-.053-2.291-1.2-.739-2.726a13.3,13.3,0,0,1,3.468-2.21c1.608-.871,2.667-.487,2.927,1.423-.8-1.281-3.324.563-4.638,1.353-1.1.761-1.549.96-1.467,1.617.068.538.449.544.449.544" transform="translate(-4.526 -38.628)" fill="#e95362"/>
      <path id="Caminho_456" data-name="Caminho 456" d="M12.909,79.1c-.087-.1-.284-.223-.721-.14a7.866,7.866,0,0,1-1.429.111c-.216-.05-.361-.144-.429-.541-.055-.44.128-.675.586-1.011.007,0,.652-.059.657-.05.062.03.559.3,1.336,1.63" transform="translate(-5.788 -43.448)" fill="#ca4f5a"/>
      <path id="Caminho_457" data-name="Caminho 457" d="M16.288,81.3l-.051-.092a.311.311,0,0,1,.051.092" transform="translate(-9.106 -45.546)" fill="#ca4f5a"/>
      <path id="Caminho_458" data-name="Caminho 458" d="M11.268,81.108l.02,0a.332.332,0,0,1-.06-.009c.014,0,.03,0,.04.006" transform="translate(-6.297 -45.486)" fill="#e95362"/>
      <path id="Caminho_459" data-name="Caminho 459" d="M16.288,81.3l-.051-.092a.311.311,0,0,1,.051.092" transform="translate(-9.106 -45.546)" fill="#ea5c5c"/>
      <path id="Caminho_460" data-name="Caminho 460" d="M11.228,81.1l.06.009a.309.309,0,0,1-.06-.009" transform="translate(-6.297 -45.486)" fill="#e95362"/>
      <path id="Caminho_461" data-name="Caminho 461" d="M13.157,77.382s.553.231,1.44,1.8,1.192,2.04,1.7,2.124a1.655,1.655,0,0,0,1.932-1.8s-.109.555-.5.6-.7.057-1.078-.631a15.336,15.336,0,0,0-.982-1.623.87.87,0,0,0-.886-.529c-.728-.016-1.627.061-1.627.061" transform="translate(-7.379 -43.364)" fill="#ea5c5c"/>
    </g>
  </g>
  <g id="Grupo_123" data-name="Grupo 123" transform="translate(99.537)">
    <g id="Grupo_122" data-name="Grupo 122" clip-path="url(#clip-path-2)">
      <path id="Caminho_462" data-name="Caminho 462" d="M151.256,417.656a4.563,4.563,0,0,0,6.885,5.109,19.314,19.314,0,0,1,2.5-1.868,7.875,7.875,0,0,1,3.232-.336c4.62-.006,12.131-4.981,11.908-6.052s-10.562-.694-15.723-1.836" transform="translate(-85.158 -232.609)" fill="#231f20"/>
      <path id="Caminho_463" data-name="Caminho 463" d="M151.256,417.656a4.563,4.563,0,0,0,6.885,5.109,19.314,19.314,0,0,1,2.5-1.868,7.875,7.875,0,0,1,3.232-.336c4.62-.006,12.131-4.981,11.908-6.052s-10.562-.694-15.723-1.836" transform="translate(-85.158 -232.609)" fill="none" stroke="#231f20" stroke-linecap="round" stroke-linejoin="round" stroke-width="2.162"/>
      <path id="Caminho_464" data-name="Caminho 464" d="M4.422,413.057a4.563,4.563,0,0,0-.675,8.547,19.343,19.343,0,0,1,2.908,1.122,7.89,7.89,0,0,1,2,2.56c2.458,3.912,10.661,7.635,11.45,6.879s-5.019-9.319-6.791-14.3" transform="translate(-0.61 -232.825)" fill="#231f20"/>
      <path id="Caminho_465" data-name="Caminho 465" d="M4.422,413.057a4.563,4.563,0,0,0-.675,8.547,19.343,19.343,0,0,1,2.908,1.122,7.89,7.89,0,0,1,2,2.56c2.458,3.912,10.661,7.635,11.45,6.879s-5.019-9.319-6.791-14.3" transform="translate(-0.61 -232.825)" fill="none" stroke="#231f20" stroke-linecap="round" stroke-linejoin="round" stroke-width="2.162"/>
      <path id="Caminho_466" data-name="Caminho 466" d="M105.02,56.651c-.295-2.656-.089-2.855.6-5.435.359-1.336,1.009-2.8,2.328-3.217,1.412-.444,3.107.5,4.36-.288a4.115,4.115,0,0,0,1.361-2.6c.264-.968.763-2.052,1.744-2.259a7.48,7.48,0,0,1,1.224-.02,1.094,1.094,0,0,0,1.013-.564c.185-.473-.185-.959-.443-1.4-.815-1.374-.613-3.1-.295-4.669a13.415,13.415,0,0,0,.037-5.637l-7.55-1.755-4.271.915L99.087,43.213a16.458,16.458,0,0,1-3.723,6.727l9.656,6.71" transform="translate(-53.753 -16.241)" fill="#e3e3e3"/>
      <path id="Caminho_467" data-name="Caminho 467" d="M105.02,56.651c-.295-2.656-.089-2.855.6-5.435.359-1.336,1.009-2.8,2.328-3.217,1.412-.444,3.107.5,4.36-.288a4.115,4.115,0,0,0,1.361-2.6c.264-.968.763-2.052,1.744-2.259a7.48,7.48,0,0,1,1.224-.02,1.094,1.094,0,0,0,1.013-.564c.185-.473-.185-.959-.443-1.4-.815-1.374-.613-3.1-.295-4.669a13.415,13.415,0,0,0,.037-5.637l-7.55-1.755-4.271.915L99.087,43.213a16.458,16.458,0,0,1-3.723,6.727l9.656,6.71" transform="translate(-53.753 -16.241)" fill="#e3e3e3"/>
      <path id="Caminho_468" data-name="Caminho 468" d="M116.141,9.417a18.178,18.178,0,0,0-7.857-7.183c-2.9-1.117-7.029-1.268-9.242.907-1.613,1.585-3.448,4-3.923,6.212a79.607,79.607,0,0,0-.654,8.99l3.22.454,16.626-6.94Z" transform="translate(-53.247 -0.809)" fill="#e3e3e3"/>
      <path id="Caminho_469" data-name="Caminho 469" d="M115.973,9.5a18.178,18.178,0,0,0-7.857-7.183c-2.9-1.117-7.519-1.1-9.732,1.07a16.548,16.548,0,0,0-3.759,7.029c-.449,2.092-.818,6.538.163,8.827l2.729-.363,16.626-6.94Z" transform="translate(-53.078 -0.893)" fill="#e3e3e3"/>
      <path id="Caminho_470" data-name="Caminho 470" d="M107.584,22.8a25.672,25.672,0,0,1,8.736-3.094,7.484,7.484,0,0,1,2.9.111,3.642,3.642,0,0,1,2.279,1.7,2.431,2.431,0,0,1-.256,2.729,4.6,4.6,0,0,1-3.033.981,19.266,19.266,0,0,0-9.558,3.742l-8.43,3.051-.305-3.2,7.321-5.8" transform="translate(-56.322 -11.058)" fill="#8c7c80"/>
      <path id="Caminho_471" data-name="Caminho 471" d="M107.584,22.8a25.672,25.672,0,0,1,8.736-3.094,7.484,7.484,0,0,1,2.9.111,3.642,3.642,0,0,1,2.279,1.7,2.431,2.431,0,0,1-.256,2.729,4.6,4.6,0,0,1-3.033.981,19.266,19.266,0,0,0-9.558,3.742l-8.43,3.051-.305-3.2,7.321-5.8" transform="translate(-56.322 -11.058)" fill="#8c7c80"/>
      <path id="Caminho_472" data-name="Caminho 472" d="M188.058,97.193c-.237-.515,1.458-1.285,2.022-1.347a1.432,1.432,0,0,1,1.354.85,3.141,3.141,0,0,1,.215,1.667,10.99,10.99,0,0,1-3.417,6.617,32.683,32.683,0,0,1-6.135,4.459l-2.583-4.372,1.286-2.074" transform="translate(-101.186 -54.021)" fill="#e3e3e3"/>
      <path id="Caminho_473" data-name="Caminho 473" d="M189.286,97.07a.943.943,0,0,1,.794-1.223,1.433,1.433,0,0,1,1.354.85,3.14,3.14,0,0,1,.215,1.667,10.99,10.99,0,0,1-3.417,6.617,32.685,32.685,0,0,1-6.135,4.459l-2.583-4.372,1.286-2.074" transform="translate(-101.186 -54.022)" fill="#e3e3e3"/>
      <path id="Caminho_474" data-name="Caminho 474" d="M107.7,1.081a9.605,9.605,0,0,0-4.373,6.457,60.1,60.1,0,0,0-.7,8.307l2.511-.349s-.279-5.65.907-9.138c.643-1.892,2.581-4.743,3.557-5.022s-1.9-.255-1.9-.255" transform="translate(-57.843 -0.609)" fill="#231f20"/>
      <path id="Caminho_475" data-name="Caminho 475" d="M107.7,1.081a9.605,9.605,0,0,0-4.373,6.457,60.1,60.1,0,0,0-.7,8.307l2.511-.349s-.279-5.65.907-9.138c.643-1.892,2.581-4.743,3.557-5.022S107.7,1.081,107.7,1.081Z" transform="translate(-57.843 -0.609)" fill="none" stroke="#231f20" stroke-linecap="round" stroke-linejoin="round" stroke-width="2.162"/>
      <rect id="Retângulo_81" data-name="Retângulo 81" width="17.996" height="9.034" transform="translate(74.649 46.625) rotate(-58.246)" fill="#bebebf"/>
      <path id="Caminho_476" data-name="Caminho 476" d="M180.586,70.822l7.832,4.8-9.75,15.522-7.93-4.644Z" transform="translate(-96.239 -39.92)" fill="#fff"/>
      <path id="Caminho_477" data-name="Caminho 477" d="M180.586,70.822l7.832,4.8-9.75,15.522-7.93-4.644Z" transform="translate(-96.239 -39.92)" fill="none" stroke="#231f20" stroke-linecap="round" stroke-linejoin="round" stroke-width="2.162"/>
      <path id="Caminho_478" data-name="Caminho 478" d="M65.435,99.083l15.814,14.969c1.45,1.373,3.034,2.813,5.01,3.1,2.451.357,4.747-1.145,6.769-2.577A56.817,56.817,0,0,0,101.2,108a12.548,12.548,0,0,0,3.828-6.855c.339-2.642-.975-5.632-3.491-6.5l-10.549,7.071a5.048,5.048,0,0,1-2.406,1.057c-1.455.086-2.667-1.066-3.565-2.214-3.415-4.361-5.18-9.779-8.162-14.447s-6.683-9.492-12.178-8.792c-3.936.5-7.385,4.342-9.609,7.627-4.671,6.9-6.917,15.25-7.941,23.515q-1.944,15.682-3.887,31.364c-.217,1.753-.391,3.691.632,5.131.927,1.3,2.586,1.831,4.136,2.23A82.187,82.187,0,0,0,73.879,149.6c1.826-.121,3.889-.438,4.924-1.947a6.361,6.361,0,0,0,.806-3.243q.932-14.276,1.864-28.553l1.409.311" transform="translate(-24.277 -43.542)" fill="#333d79"/>
      <path id="Caminho_479" data-name="Caminho 479" d="M65.435,99.083l15.814,14.969c1.45,1.373,3.034,2.813,5.01,3.1,2.451.357,4.747-1.145,6.769-2.577A56.817,56.817,0,0,0,101.2,108a12.548,12.548,0,0,0,3.828-6.855c.339-2.642-.975-5.632-3.491-6.5l-10.549,7.071a5.048,5.048,0,0,1-2.406,1.057c-1.455.086-2.667-1.066-3.565-2.214-3.415-4.361-5.18-9.779-8.162-14.447s-6.683-9.492-12.178-8.792c-3.936.5-7.385,4.342-9.609,7.627-4.671,6.9-6.917,15.25-7.941,23.515q-1.944,15.682-3.887,31.364c-.217,1.753-.391,3.691.632,5.131.927,1.3,2.586,1.831,4.136,2.23A82.187,82.187,0,0,0,73.879,149.6c1.826-.121,3.889-.438,4.924-1.947a6.361,6.361,0,0,0,.806-3.243q.932-14.276,1.864-28.553l1.409.311" transform="translate(-24.277 -43.542)" fill="#333d79"/>
      <path id="Caminho_480" data-name="Caminho 480" d="M23.24,228.667c.744,13.209,1.48,26.564-.875,39.583A107.756,107.756,0,0,1,10.9,299.7,25.717,25.717,0,0,0,8.09,306.21c-.5,2.316,1.711,3.393,3.26,5.186,2.291,2.651,4.7,4.123,7.7,2.3s4.931-4.931,6.657-7.98c11.9-21.019,16.676-42.51,18.572-66.59,6.584,23.955,15.669,45.769,22.253,69.723.474,1.727,1.113,3.657,2.732,4.421,1.8.85,3.888-.156,5.619-1.141,2.008-1.142,4.131-2.4,5.153-4.474,1.083-2.194.688-4.8.236-7.2a274.107,274.107,0,0,0-21.423-66.211" transform="translate(-4.519 -128.891)" fill="#e3e3e3"/>
      <path id="Caminho_481" data-name="Caminho 481" d="M105.6,40.123a5.413,5.413,0,1,1-5.406-5.685,5.551,5.551,0,0,1,5.406,5.685" transform="translate(-53.427 -19.411)" fill="#52484b"/>
      <path id="Caminho_482" data-name="Caminho 482" d="M105.6,40.123a5.413,5.413,0,1,1-5.406-5.685A5.551,5.551,0,0,1,105.6,40.123Z" transform="translate(-53.427 -19.411)" fill="none" stroke="#52484b" stroke-linecap="round" stroke-linejoin="round" stroke-width="2.162"/>
      <path id="Caminho_483" data-name="Caminho 483" d="M98.465,44.9S97.6,51.3,103.5,49.522" transform="translate(-55.476 -25.306)" fill="none" stroke="#231f20" stroke-linecap="round" stroke-linejoin="round" stroke-width="2.162"/>
      <path id="Caminho_484" data-name="Caminho 484" d="M103.449,140.378c-1.22-2.135-3.355-5.644-3.355-5.644S96.47,172.8,110.822,179.873a6.8,6.8,0,0,0,.7-3.065q.894-13.693,1.789-27.386c-1.938-1.57-8.814-7.213-9.86-9.045" transform="translate(-56.189 -75.945)" fill="#2b3473"/>
      <path id="Caminho_485" data-name="Caminho 485" d="M103.449,140.378c-1.22-2.135-3.355-5.644-3.355-5.644S96.47,172.8,110.822,179.873a6.8,6.8,0,0,0,.7-3.065q.894-13.693,1.789-27.386C111.372,147.852,104.5,142.209,103.449,140.378Z" transform="translate(-56.189 -75.945)" fill="none" stroke="#2b3473" stroke-miterlimit="10" stroke-width="2.162"/>
      <path id="Caminho_486" data-name="Caminho 486" d="M98.406,129.491s6.958,14.127,14.258,15.808" transform="translate(-55.468 -72.989)" fill="none" stroke="#1f264a" stroke-linecap="round" stroke-linejoin="round" stroke-width="2.162"/>
      <path id="Caminho_487" data-name="Caminho 487" d="M195.2,91.817c-.02.038-.2.369-.463.329a.6.6,0,0,1-.559-.321,1.529,1.529,0,0,1-.061-.214,11.72,11.72,0,0,0,.523-2.142,5.6,5.6,0,0,0,.012-1.077c.673-.112,1.128.205,1.147.515a9.249,9.249,0,0,1-.6,2.91" transform="translate(-109.418 -49.81)" fill="#ca4f5a"/>
      <path id="Caminho_488" data-name="Caminho 488" d="M186.223,88.93c-.661-.211-1.41-1.278-.024-2.077a9.775,9.775,0,0,1,2.875-.936c1.3-.325,1.988.144,1.823,1.552-.332-1.059-2.47-.211-3.551.11-.925.339-1.28.4-1.342.881-.051.4.219.469.219.469" transform="translate(-104.513 -48.373)" fill="#e95362"/>
      <path id="Caminho_489" data-name="Caminho 489" d="M188.487,91.961c-.044-.087-.161-.212-.487-.233a5.741,5.741,0,0,1-1.038-.184c-.144-.075-.23-.169-.206-.464.042-.324.215-.457.6-.612,0,0,.474.078.476.085a3.016,3.016,0,0,1,.651,1.407" transform="translate(-105.265 -50.994)" fill="#ca4f5a"/>
      <path id="Caminho_490" data-name="Caminho 490" d="M190.759,93.986l-.019-.075a.25.25,0,0,1,.019.075" transform="translate(-107.513 -52.934)" fill="#ca4f5a"/>
      <path id="Caminho_491" data-name="Caminho 491" d="M187.2,92.919l.014.006a.273.273,0,0,1-.041-.018.208.208,0,0,1,.027.012" transform="translate(-105.501 -52.368)" fill="#e95362"/>
      <path id="Caminho_492" data-name="Caminho 492" d="M190.759,93.986l-.019-.075a.25.25,0,0,1,.019.075" transform="translate(-107.513 -52.934)" fill="#ea5c5c"/>
      <path id="Caminho_493" data-name="Caminho 493" d="M187.171,92.907l.041.018a.242.242,0,0,1-.041-.018" transform="translate(-105.502 -52.368)" fill="#e95362"/>
      <path id="Caminho_494" data-name="Caminho 494" d="M189.227,90.657s.351.266.693,1.548.473,1.671.819,1.824a1.216,1.216,0,0,0,1.707-.927s-.18.376-.464.332-.512-.089-.651-.647a11.094,11.094,0,0,0-.4-1.336c-.062-.11-.018-.394-.533-.54s-1.169-.256-1.169-.256" transform="translate(-106.66 -51.1)" fill="#ea5c5c"/>
      <path id="Caminho_495" data-name="Caminho 495" d="M172.555,101.083l7.809,4.488-1.309,2.618-7.854-4.8Z" transform="translate(-96.5 -56.977)" fill="#231f20"/>
      <path id="Caminho_496" data-name="Caminho 496" d="M179.663,107.571a.662.662,0,1,1-.661-.686.674.674,0,0,1,.661.686" transform="translate(-100.524 -60.247)" fill="#52484a"/>
      <path id="Caminho_497" data-name="Caminho 497" d="M179.663,107.571a.662.662,0,1,1-.661-.686A.674.674,0,0,1,179.663,107.571Z" transform="translate(-100.524 -60.247)" fill="none" stroke="#52484a" stroke-linecap="round" stroke-linejoin="round" stroke-width="2.162"/>
    </g>
  </g>
</svg>
