<svg id="Componente_3_1" data-name="Componente 3 – 1" xmlns="http://www.w3.org/2000/svg" xmlns:xlink="http://www.w3.org/1999/xlink" width="371.664" height="255" viewBox="0 0 371.664 255">
  <defs>
    <clipPath id="clip-path">
      <rect id="Retângulo_42" data-name="Retângulo 42" width="179.692" height="218.758" fill="none"/>
    </clipPath>
    <clipPath id="clip-path-3">
      <rect id="Retângulo_31" data-name="Retângulo 31" width="9.237" height="8.077" fill="none"/>
    </clipPath>
    <clipPath id="clip-path-4">
      <rect id="Retângulo_32" data-name="Retângulo 32" width="68.188" height="74.22" fill="none"/>
    </clipPath>
    <clipPath id="clip-path-5">
      <rect id="Retângulo_33" data-name="Retângulo 33" width="30.082" height="30.464" fill="none"/>
    </clipPath>
    <clipPath id="clip-path-6">
      <rect id="Retângulo_34" data-name="Retângulo 34" width="2.473" height="7.056" fill="none"/>
    </clipPath>
    <clipPath id="clip-path-7">
      <rect id="Retângulo_35" data-name="Retângulo 35" width="32.677" height="49.225" fill="none"/>
    </clipPath>
    <clipPath id="clip-path-8">
      <rect id="Retângulo_36" data-name="Retângulo 36" width="24.584" height="44.11" fill="none"/>
    </clipPath>
    <clipPath id="clip-path-9">
      <rect id="Retângulo_38" data-name="Retângulo 38" width="10.873" height="10.326" fill="none"/>
    </clipPath>
    <clipPath id="clip-path-11">
      <rect id="Retângulo_39" data-name="Retângulo 39" width="4.374" height="9.386" fill="none"/>
    </clipPath>
    <clipPath id="clip-path-12">
      <rect id="Retângulo_40" data-name="Retângulo 40" width="9.747" height="11.219" fill="none"/>
    </clipPath>
  </defs>
  <g id="Elipse_6" data-name="Elipse 6" fill="#fff" stroke="#e95362" stroke-width="3">
    <ellipse cx="128" cy="127.5" rx="128" ry="127.5" stroke="none"/>
    <ellipse cx="128" cy="127.5" rx="126.5" ry="126" fill="none"/>
  </g>
  <g id="Grupo_93" data-name="Grupo 93" transform="translate(191.972 34.584)">
    <g id="Grupo_92" data-name="Grupo 92" clip-path="url(#clip-path)">
      <path id="Caminho_208" data-name="Caminho 208" d="M107.342,256.946v-.66L81.27,271.421l.56.33Z" transform="translate(-38.446 -121.24)" fill="#37474f"/>
      <g id="Grupo_91" data-name="Grupo 91">
        <g id="Grupo_90" data-name="Grupo 90" clip-path="url(#clip-path)">
          <path id="Caminho_209" data-name="Caminho 209" d="M44.148,185.852a.157.157,0,0,1,.075.17l-9.728,43.186-.278,1.225a.742.742,0,0,1-.388-.077s-.005,0-.008-.006l-.651-.377a.157.157,0,0,1-.075-.17l9.987-44.333a.157.157,0,0,1,.231-.1Z" transform="translate(-15.654 -87.682)" fill="#37474f"/>
          <path id="Caminho_210" data-name="Caminho 210" d="M46.379,185.186,36.343,229.727a.261.261,0,0,1-.124.169l-.653.377a.673.673,0,0,1-.338.083l.278-1.225,9.753-43.3Z" transform="translate(-16.665 -87.605)" fill="#455a64"/>
          <path id="Caminho_211" data-name="Caminho 211" d="M79.2,266.715V268a.761.761,0,0,1-.361-.082s-.005,0-.008-.006l-.606-.35a.252.252,0,0,1-.145-.209l0-73.288,1.121.647Z" transform="translate(-36.937 -91.807)" fill="#37474f"/>
          <path id="Caminho_212" data-name="Caminho 212" d="M81.33,194.074l0,73.271v.027a.255.255,0,0,1-.149.2l-.6.35a.722.722,0,0,1-.366.088v-1.288l0-72Z" transform="translate(-37.943 -91.81)" fill="#455a64"/>
          <path id="Caminho_213" data-name="Caminho 213" d="M128.475,242.98a.758.758,0,0,1-.348-.1l-.623-.36a.318.318,0,0,1-.153-.216l-11.892-62.478,1.121.647,11.656,61.256Z" transform="translate(-54.619 -85.069)" fill="#37474f"/>
          <path id="Caminho_214" data-name="Caminho 214" d="M130.6,242.33v.006a.263.263,0,0,1-.154.212l-.57.33-.027.016a.757.757,0,0,1-.366.088l-.24-1.253-11.656-61.256,1.123-.644,11.879,62.451s0,.006,0,.008Z" transform="translate(-55.625 -85.071)" fill="#455a64"/>
          <path id="Caminho_215" data-name="Caminho 215" d="M81.6,273.274l27.015-15.666v-1.292L81.6,271.982Z" transform="translate(-38.604 -121.254)" fill="#455a64"/>
          <path id="Caminho_216" data-name="Caminho 216" d="M37.28,200.913v.962a1.634,1.634,0,0,0,.739,1.28l7.764,4.483a1.633,1.633,0,0,0,1.478,0L96.9,179.028a1.633,1.633,0,0,0,.739-1.28v-.962a1.633,1.633,0,0,0-.739-1.279l-7.764-4.483a1.633,1.633,0,0,0-1.478,0L38.019,199.633a1.635,1.635,0,0,0-.739,1.28" transform="translate(-17.636 -80.822)" fill="#1e2a57"/>
          <path id="Caminho_217" data-name="Caminho 217" d="M38.407,200.487l7.764,4.483a1.634,1.634,0,0,0,1.478,0L97.289,176.36a.45.45,0,0,0,0-.853l-7.764-4.483a1.636,1.636,0,0,0-1.478,0L38.407,199.634a.45.45,0,0,0,0,.853" transform="translate(-18.025 -80.823)" fill="#d2cfcf"/>
          <g id="Grupo_62" data-name="Grupo 62" transform="translate(19.646 118.916)" opacity="0.1">
            <g id="Grupo_61" data-name="Grupo 61">
              <g id="Grupo_60" data-name="Grupo 60" clip-path="url(#clip-path-3)">
                <path id="Caminho_218" data-name="Caminho 218" d="M46.52,231.085v2.668a1.523,1.523,0,0,1-.734-.177l-7.764-4.482a1.643,1.643,0,0,1-.739-1.28v-.961a1.638,1.638,0,0,1,.592-1.177c-.256.233-.2.546.148.751l7.764,4.482a1.537,1.537,0,0,0,.734.176" transform="translate(-37.283 -225.676)" fill="#1e2a57"/>
              </g>
            </g>
          </g>
          <path id="Caminho_219" data-name="Caminho 219" d="M7.93,134.7l-2.158-1.246a2.938,2.938,0,0,1-1.313-2.13L0,54.127A2.525,2.525,0,0,1,1.152,52L83.143,4.861a2.723,2.723,0,0,1,2.463,0l2.159,1.246a2.939,2.939,0,0,1,1.314,2.13l4.456,77.2a2.523,2.523,0,0,1-1.149,2.13L10.393,134.7a2.722,2.722,0,0,1-2.463,0" transform="translate(0 -2.16)" fill="#e0e0e0"/>
          <path id="Caminho_220" data-name="Caminho 220" d="M89.317,8.026c-.131-.625-.666-.847-1.285-.495L6.041,54.667a2.353,2.353,0,0,0-.847.927L.569,52.926A2.407,2.407,0,0,1,1.422,52L83.413,4.864a2.728,2.728,0,0,1,2.457-.006l2.173,1.251a2.962,2.962,0,0,1,1.274,1.917" transform="translate(-0.269 -2.161)" fill="#f0f0f0"/>
          <path id="Caminho_221" data-name="Caminho 221" d="M8.772,59.3l4.456,77.2a.806.806,0,0,0,1.313.709L96.533,90.073a2.525,2.525,0,0,0,1.149-2.131l-4.456-77.2a.806.806,0,0,0-1.313-.709L9.921,57.173a2.524,2.524,0,0,0-1.15,2.13" transform="translate(-4.148 -4.668)" fill="#fafafa"/>
          <path id="Caminho_222" data-name="Caminho 222" d="M13.692,137.41a1.016,1.016,0,0,1-.486-.119,1.233,1.233,0,0,1-.587-1.06l-4.456-77.2a2.838,2.838,0,0,1,1.309-2.428L91.465,9.471a1.122,1.122,0,0,1,1.795.969l4.456,77.2a2.84,2.84,0,0,1-1.31,2.428L14.413,137.2a1.454,1.454,0,0,1-.721.21M92.185,9.9a.82.82,0,0,0-.4.125L9.793,57.164A2.208,2.208,0,0,0,8.805,59h0l4.456,77.2a.616.616,0,0,0,.25.531.619.619,0,0,0,.581-.082L96.085,89.507a2.209,2.209,0,0,0,.989-1.834l-4.456-77.2a.615.615,0,0,0-.251-.531.377.377,0,0,0-.182-.043" transform="translate(-3.86 -4.381)" fill="#e0e0e0"/>
          <path id="Caminho_223" data-name="Caminho 223" d="M85.36,41.894v4.141a1.142,1.142,0,0,1-.517.9L73.984,53.15a1.143,1.143,0,0,1-1.034,0l-1.276-.737a1.142,1.142,0,0,1-.517-.9V49.446l-4.622-2.666-2.306,1.332,0-4.738a1.143,1.143,0,0,1,.517-.9L75.6,36.26a1.144,1.144,0,0,1,1.035,0L84.843,41a1.143,1.143,0,0,1,.517.9" transform="translate(-30.383 -17.095)" fill="#27debf"/>
          <path id="Caminho_224" data-name="Caminho 224" d="M85.36,41.894v4.141a1.142,1.142,0,0,1-.517.9L73.984,53.15a1.143,1.143,0,0,1-1.034,0l-1.276-.737a1.142,1.142,0,0,1-.517-.9V49.446l-4.622-2.666-2.306,1.332,0-4.738a1.143,1.143,0,0,1,.517-.9L75.6,36.26a1.144,1.144,0,0,1,1.035,0L84.843,41a1.143,1.143,0,0,1,.517.9" transform="translate(-30.383 -17.095)" fill="#d2cfcf"/>
          <path id="Caminho_225" data-name="Caminho 225" d="M93.658,46.319V50.46a1.142,1.142,0,0,1-.517.893L82.285,57.576a1.1,1.1,0,0,1-.518.12V52.366a1.083,1.083,0,0,0,.518-.125l10.856-6.223c.25-.142.279-.369.091-.529a1.137,1.137,0,0,1,.427.83" transform="translate(-38.681 -21.519)" fill="#32426f"/>
          <path id="Caminho_226" data-name="Caminho 226" d="M65.014,43.075l8.209,4.739a1.143,1.143,0,0,0,1.034,0l10.858-6.219a.315.315,0,0,0,0-.6l-8.207-4.739a1.143,1.143,0,0,0-1.034,0l-10.86,6.219a.315.315,0,0,0,0,.6" transform="translate(-30.654 -17.094)" fill="#27debf"/>
          <path id="Caminho_227" data-name="Caminho 227" d="M65.014,43.075l8.209,4.739a1.143,1.143,0,0,0,1.034,0l10.858-6.219a.315.315,0,0,0,0-.6l-8.207-4.739a1.143,1.143,0,0,0-1.034,0l-10.86,6.219a.315.315,0,0,0,0,.6" transform="translate(-30.654 -17.094)" fill="#1e2a57"/>
          <path id="Caminho_228" data-name="Caminho 228" d="M27.755,135.083a.248.248,0,0,1-.127-.461l.64-.381a.248.248,0,1,1,.254.426l-.64.381a.248.248,0,0,1-.127.035" transform="translate(-13.013 -63.488)" fill="#e0e0e0"/>
          <path id="Caminho_229" data-name="Caminho 229" d="M31.365,98.863a.248.248,0,0,1-.127-.461L32.5,97.65a.248.248,0,1,1,.253.426l-1.263.751a.245.245,0,0,1-.126.035m2.525-1.5a.248.248,0,0,1-.126-.461l1.261-.751a.248.248,0,1,1,.253.426l-1.261.751a.247.247,0,0,1-.127.035m2.525-1.5a.248.248,0,0,1-.127-.461l1.263-.752a.248.248,0,0,1,.254.427l-1.263.751a.245.245,0,0,1-.126.035m2.525-1.5a.248.248,0,0,1-.126-.461l1.261-.752a.248.248,0,0,1,.253.427l-1.261.751a.247.247,0,0,1-.127.035m2.525-1.5a.248.248,0,0,1-.126-.461l1.263-.752a.248.248,0,0,1,.253.427l-1.263.751a.244.244,0,0,1-.126.035m2.525-1.5a.248.248,0,0,1-.126-.461l1.263-.751a.248.248,0,0,1,.253.427l-1.263.751a.247.247,0,0,1-.127.035m2.525-1.5a.248.248,0,0,1-.126-.461l1.263-.752a.248.248,0,1,1,.253.426l-1.263.752a.246.246,0,0,1-.127.035m2.525-1.5a.248.248,0,0,1-.126-.461l1.263-.752a.248.248,0,1,1,.253.426l-1.263.752a.245.245,0,0,1-.127.035m2.525-1.5a.248.248,0,0,1-.126-.462l1.263-.752a.248.248,0,0,1,.253.427l-1.263.751a.246.246,0,0,1-.127.035m2.525-1.5a.248.248,0,0,1-.126-.462l1.263-.751a.248.248,0,0,1,.253.426l-1.263.751a.241.241,0,0,1-.127.035m2.525-1.5a.248.248,0,0,1-.126-.461l1.263-.752a.248.248,0,1,1,.253.426L56.74,83.8a.245.245,0,0,1-.127.035m2.525-1.5a.248.248,0,0,1-.126-.461l1.263-.752a.248.248,0,0,1,.253.427l-1.263.751a.245.245,0,0,1-.127.035m2.525-1.5a.248.248,0,0,1-.126-.461l1.262-.752a.248.248,0,0,1,.253.427l-1.262.751a.245.245,0,0,1-.127.035m2.525-1.5a.248.248,0,0,1-.126-.462l1.263-.751a.248.248,0,0,1,.253.427l-1.263.751a.246.246,0,0,1-.127.035m2.525-1.5a.248.248,0,0,1-.126-.461l1.262-.752a.248.248,0,0,1,.253.427l-1.262.751a.245.245,0,0,1-.127.035m2.525-1.5a.248.248,0,0,1-.126-.461l1.263-.751a.248.248,0,1,1,.253.426l-1.263.751a.245.245,0,0,1-.127.035m2.525-1.5a.248.248,0,0,1-.126-.461L72.9,73.6a.248.248,0,0,1,.253.427l-1.263.751a.245.245,0,0,1-.127.035m2.525-1.5a.248.248,0,0,1-.127-.461l1.263-.752a.248.248,0,0,1,.253.427l-1.263.751a.245.245,0,0,1-.126.035m2.525-1.5a.248.248,0,0,1-.126-.461l1.263-.752a.248.248,0,0,1,.253.427l-1.263.751a.244.244,0,0,1-.127.035m2.525-1.5a.248.248,0,0,1-.127-.461l1.263-.752a.248.248,0,0,1,.253.427l-1.263.751a.245.245,0,0,1-.126.035m2.525-1.5a.248.248,0,0,1-.127-.461L83,67.586a.248.248,0,1,1,.253.426l-1.263.752a.244.244,0,0,1-.126.035m2.525-1.5a.248.248,0,0,1-.127-.461l1.262-.752a.248.248,0,1,1,.253.426l-1.262.752a.244.244,0,0,1-.126.035m2.525-1.5a.248.248,0,0,1-.127-.461l1.263-.752a.248.248,0,0,1,.253.427l-1.263.751a.243.243,0,0,1-.126.035m2.525-1.5a.248.248,0,0,1-.127-.462l1.262-.752a.248.248,0,0,1,.253.427l-1.262.751a.239.239,0,0,1-.126.035m2.525-1.5a.248.248,0,0,1-.127-.461l1.262-.752A.248.248,0,1,1,93.35,62l-1.263.752a.244.244,0,0,1-.126.035m2.525-1.5a.248.248,0,0,1-.127-.461l1.263-.752a.248.248,0,0,1,.253.427l-1.263.751a.242.242,0,0,1-.126.035" transform="translate(-14.72 -28.4)" fill="#e0e0e0"/>
          <path id="Caminho_230" data-name="Caminho 230" d="M155.947,58.763a.248.248,0,0,1-.126-.461l.64-.381a.248.248,0,1,1,.253.426l-.64.381a.245.245,0,0,1-.127.035" transform="translate(-73.656 -27.384)" fill="#e0e0e0"/>
          <path id="Caminho_231" data-name="Caminho 231" d="M28.692,152.948a.248.248,0,0,1-.127-.461l.64-.381a.248.248,0,1,1,.253.426l-.64.381a.244.244,0,0,1-.126.035" transform="translate(-13.455 -71.94)" fill="#e0e0e0"/>
          <path id="Caminho_232" data-name="Caminho 232" d="M32.3,116.728a.248.248,0,0,1-.126-.462l1.262-.751a.248.248,0,1,1,.253.426l-1.263.752a.245.245,0,0,1-.126.035m2.525-1.5a.248.248,0,0,1-.126-.461l1.261-.752a.248.248,0,1,1,.253.427l-1.261.751a.247.247,0,0,1-.127.035m2.525-1.5a.248.248,0,0,1-.126-.462l1.263-.751a.248.248,0,1,1,.253.426l-1.263.752a.248.248,0,0,1-.127.035m2.525-1.5a.248.248,0,0,1-.126-.462l1.261-.751a.248.248,0,1,1,.254.427L40,112.183a.247.247,0,0,1-.127.035m2.525-1.5a.248.248,0,0,1-.126-.461l1.263-.752a.248.248,0,1,1,.253.427l-1.263.751a.245.245,0,0,1-.127.035m2.525-1.5a.248.248,0,0,1-.126-.461L46.061,108a.248.248,0,1,1,.253.426l-1.263.751a.247.247,0,0,1-.127.035m2.525-1.5a.248.248,0,0,1-.126-.462l1.262-.751a.248.248,0,1,1,.253.426l-1.263.752a.245.245,0,0,1-.127.035m2.525-1.5a.248.248,0,0,1-.126-.461l1.262-.752a.248.248,0,1,1,.253.426l-1.263.752a.245.245,0,0,1-.127.035m2.525-1.5a.247.247,0,0,1-.126-.461l1.262-.752a.248.248,0,1,1,.253.426l-1.263.752a.245.245,0,0,1-.127.035m2.525-1.5a.248.248,0,0,1-.126-.461l1.262-.751a.248.248,0,1,1,.253.426l-1.263.751a.245.245,0,0,1-.127.035m2.525-1.5a.248.248,0,0,1-.126-.461l1.262-.752a.248.248,0,1,1,.253.426l-1.263.752a.246.246,0,0,1-.127.035m2.525-1.5a.248.248,0,0,1-.126-.461l1.262-.752a.248.248,0,1,1,.253.426l-1.263.752a.246.246,0,0,1-.127.035m2.525-1.5a.248.248,0,0,1-.126-.462l1.261-.751a.248.248,0,0,1,.254.427l-1.263.751a.246.246,0,0,1-.127.035m2.525-1.5A.248.248,0,0,1,65,96.725l1.263-.751a.248.248,0,1,1,.253.426l-1.263.752a.245.245,0,0,1-.127.035m2.525-1.5a.248.248,0,0,1-.126-.462l1.262-.751a.248.248,0,0,1,.254.426l-1.263.752a.245.245,0,0,1-.127.035m2.525-1.5a.248.248,0,0,1-.126-.462l1.263-.751a.248.248,0,0,1,.254.427l-1.263.751a.245.245,0,0,1-.127.035m2.525-1.5a.248.248,0,0,1-.126-.461l1.263-.751a.248.248,0,1,1,.253.426l-1.262.751a.245.245,0,0,1-.127.035m2.525-1.5a.248.248,0,0,1-.127-.462l1.263-.751a.248.248,0,0,1,.254.426l-1.263.752a.245.245,0,0,1-.126.035m2.525-1.5a.248.248,0,0,1-.126-.461l1.263-.752a.248.248,0,0,1,.253.427l-1.263.751a.244.244,0,0,1-.127.035m2.525-1.5a.248.248,0,0,1-.127-.461l1.263-.752a.248.248,0,0,1,.253.427l-1.263.751a.245.245,0,0,1-.126.035m2.525-1.5a.248.248,0,0,1-.127-.462l1.263-.751a.248.248,0,1,1,.253.426l-1.263.752a.244.244,0,0,1-.126.035m2.525-1.5A.248.248,0,0,1,85.2,84.7l1.262-.752a.248.248,0,1,1,.253.426l-1.262.752a.242.242,0,0,1-.126.035m2.525-1.5a.248.248,0,0,1-.127-.461l1.263-.752a.248.248,0,1,1,.253.426l-1.263.752a.243.243,0,0,1-.126.035m2.525-1.5a.248.248,0,0,1-.127-.461l1.262-.752a.248.248,0,0,1,.253.426l-1.262.752a.242.242,0,0,1-.126.035m2.525-1.5a.248.248,0,0,1-.127-.461l1.263-.752a.248.248,0,1,1,.253.426l-1.263.752a.243.243,0,0,1-.126.035m2.525-1.5a.248.248,0,0,1-.127-.461l1.263-.752a.248.248,0,1,1,.254.426l-1.263.752a.243.243,0,0,1-.126.035" transform="translate(-15.163 -36.852)" fill="#e0e0e0"/>
          <path id="Caminho_233" data-name="Caminho 233" d="M156.882,76.628a.248.248,0,0,1-.127-.461l.64-.381a.248.248,0,1,1,.253.426l-.64.381a.243.243,0,0,1-.126.035" transform="translate(-74.098 -35.835)" fill="#e0e0e0"/>
          <path id="Caminho_234" data-name="Caminho 234" d="M29.628,170.814a.248.248,0,0,1-.126-.461l.64-.381a.248.248,0,0,1,.253.427l-.64.381a.245.245,0,0,1-.127.035" transform="translate(-13.899 -80.391)" fill="#e0e0e0"/>
          <path id="Caminho_235" data-name="Caminho 235" d="M33.238,134.593a.248.248,0,0,1-.127-.462l1.263-.751a.248.248,0,1,1,.253.426l-1.263.752a.245.245,0,0,1-.126.035m2.525-1.5a.248.248,0,0,1-.126-.461l1.261-.752a.248.248,0,1,1,.253.426l-1.261.752a.247.247,0,0,1-.127.035m2.525-1.5a.248.248,0,0,1-.126-.462l1.262-.751a.248.248,0,1,1,.254.426l-1.263.751a.241.241,0,0,1-.126.035m2.525-1.5a.248.248,0,0,1-.126-.462l1.261-.751a.248.248,0,1,1,.253.426l-1.261.752a.247.247,0,0,1-.127.035m2.525-1.5a.248.248,0,0,1-.126-.461l1.263-.752a.248.248,0,0,1,.253.427l-1.263.751a.247.247,0,0,1-.127.035m2.525-1.5a.248.248,0,0,1-.126-.461L47,125.865a.248.248,0,1,1,.253.426l-1.263.751a.247.247,0,0,1-.127.035m2.525-1.5a.248.248,0,0,1-.126-.462l1.263-.751a.248.248,0,1,1,.253.426l-1.263.752a.245.245,0,0,1-.127.035m2.525-1.5a.248.248,0,0,1-.126-.461l1.263-.752a.248.248,0,1,1,.253.426l-1.263.752a.245.245,0,0,1-.127.035m2.525-1.5a.248.248,0,0,1-.126-.461l1.263-.752a.248.248,0,1,1,.253.426l-1.263.752a.245.245,0,0,1-.127.035m2.525-1.5a.248.248,0,0,1-.126-.461l1.263-.751a.248.248,0,1,1,.253.426l-1.263.751a.245.245,0,0,1-.127.035m2.525-1.5a.248.248,0,0,1-.126-.461l1.263-.752a.248.248,0,1,1,.253.426l-1.263.752a.246.246,0,0,1-.127.035m2.525-1.5a.248.248,0,0,1-.126-.461l1.263-.752a.248.248,0,1,1,.253.426l-1.263.752a.246.246,0,0,1-.127.035m2.525-1.5a.248.248,0,0,1-.126-.462l1.262-.751a.248.248,0,1,1,.253.426l-1.262.752a.246.246,0,0,1-.127.035m2.525-1.5a.248.248,0,0,1-.126-.462l1.263-.751a.248.248,0,1,1,.253.426l-1.263.752a.245.245,0,0,1-.127.035m2.525-1.5a.248.248,0,0,1-.126-.462l1.262-.751a.248.248,0,0,1,.253.426l-1.262.751a.241.241,0,0,1-.127.035m2.525-1.5a.248.248,0,0,1-.126-.462l1.263-.751a.248.248,0,0,1,.253.426l-1.263.752a.245.245,0,0,1-.127.035m2.525-1.5a.248.248,0,0,1-.126-.461l1.263-.751a.248.248,0,1,1,.253.426l-1.263.751a.246.246,0,0,1-.127.035m2.525-1.5a.248.248,0,0,1-.127-.462l1.263-.751a.248.248,0,0,1,.253.426L76.287,109a.241.241,0,0,1-.126.035m2.525-1.5a.248.248,0,0,1-.126-.462l1.263-.751a.248.248,0,0,1,.253.427l-1.263.751a.244.244,0,0,1-.127.035m2.525-1.5a.248.248,0,0,1-.127-.461l1.263-.752a.248.248,0,0,1,.253.427L81.337,106a.245.245,0,0,1-.126.035m2.525-1.5a.248.248,0,0,1-.127-.462l1.263-.751a.248.248,0,1,1,.253.426l-1.263.752a.244.244,0,0,1-.126.035m2.525-1.5a.248.248,0,0,1-.127-.462l1.262-.751a.248.248,0,1,1,.253.426l-1.262.752a.243.243,0,0,1-.126.035m2.525-1.5a.248.248,0,0,1-.127-.461l1.263-.752a.248.248,0,1,1,.253.426l-1.263.752a.244.244,0,0,1-.126.035m2.525-1.5a.248.248,0,0,1-.127-.461l1.262-.752a.248.248,0,0,1,.253.426l-1.261.752a.245.245,0,0,1-.127.035m2.525-1.5a.248.248,0,0,1-.127-.461L94.97,97.3a.248.248,0,1,1,.253.426l-1.263.752a.244.244,0,0,1-.126.035m2.525-1.5a.248.248,0,0,1-.127-.461L97.5,95.8a.248.248,0,1,1,.253.426l-1.263.752a.242.242,0,0,1-.126.035" transform="translate(-15.606 -45.303)" fill="#e0e0e0"/>
          <path id="Caminho_236" data-name="Caminho 236" d="M157.819,94.494a.248.248,0,0,1-.127-.461l.64-.381a.248.248,0,1,1,.253.426l-.64.381a.244.244,0,0,1-.126.035" transform="translate(-74.541 -44.287)" fill="#e0e0e0"/>
          <path id="Caminho_237" data-name="Caminho 237" d="M30.565,188.679a.248.248,0,0,1-.127-.461l.64-.382a.248.248,0,1,1,.253.427l-.64.381a.243.243,0,0,1-.126.035" transform="translate(-14.342 -88.843)" fill="#e0e0e0"/>
          <path id="Caminho_238" data-name="Caminho 238" d="M34.174,152.459a.248.248,0,0,1-.126-.462l1.263-.751a.248.248,0,1,1,.254.426l-1.263.751a.243.243,0,0,1-.127.035m2.525-1.5a.248.248,0,0,1-.126-.462l1.261-.751a.248.248,0,1,1,.254.426l-1.262.752a.247.247,0,0,1-.127.035m2.525-1.5a.248.248,0,0,1-.126-.462l1.263-.751a.248.248,0,1,1,.254.426l-1.263.751a.246.246,0,0,1-.127.035m2.525-1.5a.248.248,0,0,1-.126-.462l1.261-.751a.248.248,0,1,1,.254.426l-1.263.752a.245.245,0,0,1-.127.035m2.525-1.5a.248.248,0,0,1-.126-.462l1.262-.751a.248.248,0,1,1,.254.426l-1.263.752a.245.245,0,0,1-.127.035m2.525-1.5a.248.248,0,0,1-.126-.461l1.261-.752a.248.248,0,1,1,.255.427l-1.263.751a.246.246,0,0,1-.127.035m2.525-1.5a.248.248,0,0,1-.126-.461l1.262-.751a.248.248,0,1,1,.254.426l-1.263.751a.244.244,0,0,1-.127.035m2.525-1.5a.248.248,0,0,1-.126-.461l1.262-.752a.248.248,0,1,1,.254.426l-1.263.752a.245.245,0,0,1-.127.035m2.525-1.5a.248.248,0,0,1-.126-.461l1.262-.752a.248.248,0,1,1,.254.426L54.5,140.4a.243.243,0,0,1-.127.035m2.525-1.5a.248.248,0,0,1-.126-.461l1.262-.752a.248.248,0,1,1,.254.426l-1.263.752a.244.244,0,0,1-.127.035m2.525-1.5a.248.248,0,0,1-.126-.461l1.262-.751a.248.248,0,1,1,.254.426l-1.263.751a.243.243,0,0,1-.126.035m2.525-1.5a.248.248,0,0,1-.126-.462l1.262-.751a.248.248,0,1,1,.254.426l-1.263.752a.243.243,0,0,1-.127.035m2.525-1.5a.248.248,0,0,1-.127-.462l1.263-.751a.248.248,0,0,1,.254.426l-1.263.752a.242.242,0,0,1-.126.035m2.525-1.5a.248.248,0,0,1-.127-.462l1.263-.751a.248.248,0,0,1,.254.426l-1.263.752a.242.242,0,0,1-.126.035m2.525-1.5a.248.248,0,0,1-.126-.461l1.262-.751a.248.248,0,0,1,.254.426l-1.263.751a.243.243,0,0,1-.127.035m2.525-1.5a.248.248,0,0,1-.127-.462l1.263-.751a.248.248,0,0,1,.254.426l-1.263.752a.242.242,0,0,1-.126.035m2.525-1.5a.248.248,0,0,1-.127-.462l1.262-.751a.248.248,0,0,1,.254.426l-1.263.752a.242.242,0,0,1-.126.035m2.525-1.5a.248.248,0,0,1-.127-.461l1.263-.752a.248.248,0,0,1,.254.427l-1.263.751a.241.241,0,0,1-.126.035m2.525-1.5a.248.248,0,0,1-.127-.461l1.262-.751a.248.248,0,1,1,.253.426l-1.262.751a.242.242,0,0,1-.126.035m2.525-1.5a.248.248,0,0,1-.128-.462l1.263-.751a.248.248,0,0,1,.253.427l-1.263.751a.242.242,0,0,1-.126.035m2.525-1.5a.248.248,0,0,1-.127-.461l1.263-.752a.248.248,0,1,1,.253.426l-1.263.752a.241.241,0,0,1-.126.035m2.525-1.5a.248.248,0,0,1-.127-.461l1.263-.752a.248.248,0,1,1,.253.426l-1.263.752a.245.245,0,0,1-.126.035m2.526-1.5a.248.248,0,0,1-.128-.461l1.263-.751a.248.248,0,1,1,.253.426l-1.263.751a.243.243,0,0,1-.126.035m2.525-1.5a.248.248,0,0,1-.127-.461l1.263-.752a.248.248,0,1,1,.253.426l-1.263.752a.243.243,0,0,1-.126.035m2.525-1.5a.248.248,0,0,1-.127-.461l1.263-.752a.248.248,0,1,1,.253.426l-1.263.752a.244.244,0,0,1-.126.035m2.526-1.5a.248.248,0,0,1-.127-.461l1.261-.752a.248.248,0,1,1,.253.426l-1.261.752a.245.245,0,0,1-.126.035" transform="translate(-16.049 -53.755)" fill="#e0e0e0"/>
          <path id="Caminho_239" data-name="Caminho 239" d="M158.755,112.358a.248.248,0,0,1-.127-.461l.64-.381a.248.248,0,1,1,.253.427l-.64.381a.243.243,0,0,1-.126.035" transform="translate(-74.984 -52.738)" fill="#e0e0e0"/>
          <path id="Caminho_240" data-name="Caminho 240" d="M146.624,152.8l.351-1.38c.005-.015.015-.038.027-.072a.14.14,0,0,1,.062-.075l.147-.087a.032.032,0,0,1,.043,0,.073.073,0,0,1,.02.055l.117,2.222a.167.167,0,0,1-.014.076.1.1,0,0,1-.04.052l-.175.1a.034.034,0,0,1-.043,0,.08.08,0,0,1-.021-.055l-.07-1.344-.241.941a.592.592,0,0,1-.027.074.127.127,0,0,1-.048.06l-.112.067a.042.042,0,0,1-.052,0,.151.151,0,0,1-.033-.038l-.322-.606.07,1.345a.166.166,0,0,1-.014.075.106.106,0,0,1-.041.052l-.175.1a.033.033,0,0,1-.043,0,.08.08,0,0,1-.021-.055l-.116-2.222a.182.182,0,0,1,.013-.075.106.106,0,0,1,.041-.052l.146-.087q.045-.026.066,0c.015.017.026.029.032.037Z" transform="translate(-68.998 -71.516)" fill="#455a64"/>
          <path id="Caminho_241" data-name="Caminho 241" d="M149.878,149.927c.023-.014.041-.015.053,0a.174.174,0,0,1,.035.07l.644,1.857a.063.063,0,0,1,0,.023.169.169,0,0,1-.014.076.109.109,0,0,1-.04.052l-.156.093c-.029.017-.05.02-.062.007a.1.1,0,0,1-.028-.042l-.112-.327-.686.408-.073.437a.352.352,0,0,1-.021.071.136.136,0,0,1-.059.066l-.156.093a.033.033,0,0,1-.043,0,.079.079,0,0,1-.021-.056.1.1,0,0,1,0-.025l.416-2.489a.514.514,0,0,1,.026-.106.116.116,0,0,1,.051-.06Zm.2,1.438-.29-.837-.187,1.121Z" transform="translate(-70.556 -70.92)" fill="#455a64"/>
          <path id="Caminho_242" data-name="Caminho 242" d="M152.813,147.9a.031.031,0,0,1,.042,0,.075.075,0,0,1,.021.055.139.139,0,0,1,0,.034l-.439,1.74.039.756a.167.167,0,0,1-.014.076.105.105,0,0,1-.04.052l-.173.1a.033.033,0,0,1-.042,0,.076.076,0,0,1-.02-.055l-.04-.756-.589-1.128a.074.074,0,0,1-.006-.029.174.174,0,0,1,.014-.075.107.107,0,0,1,.041-.052l.162-.1c.028-.017.051-.019.066,0a.1.1,0,0,1,.028.036l.4.764.3-1.182a.589.589,0,0,1,.024-.067.147.147,0,0,1,.063-.073Z" transform="translate(-71.693 -69.963)" fill="#455a64"/>
          <path id="Caminho_243" data-name="Caminho 243" d="M120.351,167.506c.023-.014.041-.015.054,0a.187.187,0,0,1,.035.069l.644,1.857a.059.059,0,0,1,0,.023.169.169,0,0,1-.014.076.1.1,0,0,1-.04.052l-.156.093c-.029.017-.05.019-.062.007a.1.1,0,0,1-.028-.042l-.112-.327-.686.408-.073.437a.412.412,0,0,1-.021.071.132.132,0,0,1-.059.065l-.156.093a.033.033,0,0,1-.043,0,.08.08,0,0,1-.021-.055.1.1,0,0,1,0-.025l.416-2.489a.506.506,0,0,1,.025-.106.122.122,0,0,1,.051-.06Zm.2,1.438-.29-.838-.186,1.121Z" transform="translate(-56.587 -79.236)" fill="#455a64"/>
          <path id="Caminho_244" data-name="Caminho 244" d="M123.193,165.793c.175-.1.314-.12.417-.046a.616.616,0,0,1,.175.487,1.36,1.36,0,0,1-.114.664.993.993,0,0,1-.4.442l-.346.206.041.767a.176.176,0,0,1-.014.076.117.117,0,0,1-.04.053l-.175.1a.033.033,0,0,1-.043,0,.08.08,0,0,1-.021-.055l-.116-2.222a.175.175,0,0,1,.014-.075.1.1,0,0,1,.04-.052Zm-.288,1.324.336-.2a.533.533,0,0,0,.193-.2.563.563,0,0,0,.06-.314c-.007-.128-.036-.2-.088-.222a.237.237,0,0,0-.2.044l-.336.2Z" transform="translate(-57.978 -78.388)" fill="#455a64"/>
          <path id="Caminho_245" data-name="Caminho 245" d="M125.881,164.2q.27-.161.422-.045a.613.613,0,0,1,.17.468,1.416,1.416,0,0,1-.051.473,1.108,1.108,0,0,1-.2.39l.343.671a.115.115,0,0,1,.008.034.153.153,0,0,1-.011.062.087.087,0,0,1-.033.042l-.184.11c-.029.017-.051.019-.065.005a.126.126,0,0,1-.033-.043l-.325-.632-.288.172.042.8a.16.16,0,0,1-.014.076.1.1,0,0,1-.04.052l-.175.1a.033.033,0,0,1-.043,0,.08.08,0,0,1-.021-.055l-.116-2.221a.174.174,0,0,1,.014-.075.109.109,0,0,1,.041-.052Zm-.268,1.277.313-.187a.56.56,0,0,0,.193-.186.524.524,0,0,0,.06-.307c-.007-.127-.036-.2-.087-.213a.273.273,0,0,0-.2.053l-.314.187Z" transform="translate(-59.26 -77.634)" fill="#455a64"/>
          <path id="Caminho_246" data-name="Caminho 246" d="M93.853,184.216l.352-1.38c0-.015.014-.038.026-.072a.143.143,0,0,1,.062-.076l.147-.087a.031.031,0,0,1,.043,0,.077.077,0,0,1,.021.055l.116,2.222a.169.169,0,0,1-.014.076.1.1,0,0,1-.04.052l-.175.1a.034.034,0,0,1-.043,0,.077.077,0,0,1-.021-.055l-.07-1.344-.241.941a.552.552,0,0,1-.027.074.121.121,0,0,1-.048.059l-.112.067a.042.042,0,0,1-.052,0,.15.15,0,0,1-.033-.038l-.322-.606.07,1.345a.16.16,0,0,1-.014.076.1.1,0,0,1-.04.053l-.175.1a.033.033,0,0,1-.042,0,.078.078,0,0,1-.021-.055l-.116-2.222a.168.168,0,0,1,.014-.075.1.1,0,0,1,.04-.052l.148-.087c.029-.017.051-.017.065,0s.026.03.032.037Z" transform="translate(-44.034 -86.379)" fill="#455a64"/>
          <path id="Caminho_247" data-name="Caminho 247" d="M97.107,181.345c.023-.014.041-.015.053,0a.181.181,0,0,1,.035.07l.644,1.857a.073.073,0,0,1,0,.023.178.178,0,0,1-.014.076.107.107,0,0,1-.04.052l-.156.093c-.029.017-.05.019-.062.006a.1.1,0,0,1-.027-.042l-.113-.327-.684.408-.073.437a.476.476,0,0,1-.022.071.136.136,0,0,1-.059.066l-.156.093a.033.033,0,0,1-.043,0,.079.079,0,0,1-.021-.056.1.1,0,0,1,0-.025l.416-2.489a.544.544,0,0,1,.026-.106.118.118,0,0,1,.051-.06Zm.2,1.438-.29-.837-.187,1.121Z" transform="translate(-45.591 -85.783)" fill="#455a64"/>
          <path id="Caminho_248" data-name="Caminho 248" d="M99.928,179.654q.27-.161.422-.045a.613.613,0,0,1,.17.468,1.416,1.416,0,0,1-.051.473,1.109,1.109,0,0,1-.2.39l.344.671a.121.121,0,0,1,.008.034.149.149,0,0,1-.011.062.084.084,0,0,1-.032.042l-.184.11c-.029.017-.051.019-.065.006a.138.138,0,0,1-.033-.043l-.325-.632-.288.171.042.8a.161.161,0,0,1-.014.076.105.105,0,0,1-.04.052l-.175.1a.034.034,0,0,1-.043,0,.082.082,0,0,1-.021-.056l-.116-2.222a.172.172,0,0,1,.014-.075.1.1,0,0,1,.041-.052Zm-.268,1.277.314-.187a.558.558,0,0,0,.193-.187.521.521,0,0,0,.06-.306c-.006-.127-.036-.2-.087-.213a.268.268,0,0,0-.2.052l-.314.187Z" transform="translate(-46.982 -84.944)" fill="#455a64"/>
          <path id="Caminho_249" data-name="Caminho 249" d="M68.38,198.319a.032.032,0,0,1,.043,0,.074.074,0,0,1,.021.054l.013.244a.162.162,0,0,1-.014.076.1.1,0,0,1-.04.052l-.69.411.035.667.648-.386a.033.033,0,0,1,.043,0,.08.08,0,0,1,.021.055l.013.243a.162.162,0,0,1-.014.076.1.1,0,0,1-.04.052l-.648.386.041.787a.153.153,0,0,1-.014.076.106.106,0,0,1-.04.053l-.176.1a.033.033,0,0,1-.042,0,.078.078,0,0,1-.021-.055L67.4,199a.167.167,0,0,1,.014-.075.105.105,0,0,1,.04-.052Z" transform="translate(-31.885 -93.814)" fill="#455a64"/>
          <path id="Caminho_250" data-name="Caminho 250" d="M70.965,198.815a.033.033,0,0,1,.043,0,.085.085,0,0,1,.021.055l.013.243a.168.168,0,0,1-.014.076.1.1,0,0,1-.04.052l-.951.567a.032.032,0,0,1-.042,0,.077.077,0,0,1-.021-.055l-.117-2.222a.176.176,0,0,1,.014-.075.108.108,0,0,1,.04-.052l.934-.555a.032.032,0,0,1,.043,0,.078.078,0,0,1,.021.055l.013.244a.176.176,0,0,1-.014.076.1.1,0,0,1-.039.052l-.7.417.028.546.652-.388a.032.032,0,0,1,.042,0,.076.076,0,0,1,.022.055l.013.244a.175.175,0,0,1-.014.075.105.105,0,0,1-.04.052l-.652.389.03.571Z" transform="translate(-33.046 -93.119)" fill="#455a64"/>
          <path id="Caminho_251" data-name="Caminho 251" d="M72.572,198.4a.034.034,0,0,1-.043,0,.079.079,0,0,1-.021-.055l-.117-2.222a.182.182,0,0,1,.014-.075.1.1,0,0,1,.04-.052l.639-.38a.394.394,0,0,1,.235-.071.26.26,0,0,1,.159.079.455.455,0,0,1,.093.172.9.9,0,0,1,.036.207.977.977,0,0,1-.008.194,1.022,1.022,0,0,1-.035.163,1.074,1.074,0,0,1-.045.125.544.544,0,0,1-.037.075.35.35,0,0,1,.134.131.649.649,0,0,1,.074.3,1.37,1.37,0,0,1-.017.278,1.4,1.4,0,0,1-.077.285,1.08,1.08,0,0,1-.138.255.661.661,0,0,1-.2.184Zm.743-2.209c0-.087-.025-.142-.062-.166s-.093-.014-.169.031l-.383.228.027.53.383-.228a.4.4,0,0,0,.161-.166.455.455,0,0,0,.041-.229m-.532,1.64.4-.238a.4.4,0,0,0,.17-.185.53.53,0,0,0,.045-.245.231.231,0,0,0-.069-.179c-.041-.033-.1-.026-.177.02l-.4.238Z" transform="translate(-34.246 -92.503)" fill="#455a64"/>
          <path id="Caminho_252" data-name="Caminho 252" d="M41.614,214.655l-.711.424a.034.034,0,0,1-.043,0,.078.078,0,0,1-.021-.055l-.013-.244a.168.168,0,0,1,.014-.075.1.1,0,0,1,.04-.052l.945-.563a.032.032,0,0,1,.042,0,.081.081,0,0,1,.022.055l.076,1.455a1.627,1.627,0,0,1-.121.761,1.076,1.076,0,0,1-.435.491.605.605,0,0,1-.269.1.283.283,0,0,1-.193-.053.392.392,0,0,1-.121-.176.973.973,0,0,1-.058-.27.133.133,0,0,1,.012-.076.1.1,0,0,1,.041-.051l.175-.1a.045.045,0,0,1,.037,0,.04.04,0,0,1,.024.035.445.445,0,0,0,.038.115.191.191,0,0,0,.065.081.152.152,0,0,0,.094.025.309.309,0,0,0,.132-.049.546.546,0,0,0,.223-.261.9.9,0,0,0,.061-.408Z" transform="translate(-19.285 -101.274)" fill="#455a64"/>
          <path id="Caminho_253" data-name="Caminho 253" d="M44.135,212.881c.023-.014.041-.015.054,0a.177.177,0,0,1,.035.07l.644,1.857a.063.063,0,0,1,0,.023.167.167,0,0,1-.014.076.108.108,0,0,1-.04.052l-.156.093c-.029.017-.05.019-.062.006a.1.1,0,0,1-.027-.042l-.113-.327-.684.408-.073.437a.4.4,0,0,1-.021.071.137.137,0,0,1-.059.065l-.157.093a.033.033,0,0,1-.042,0,.08.08,0,0,1-.021-.055.1.1,0,0,1,0-.025l.416-2.489a.538.538,0,0,1,.026-.105.119.119,0,0,1,.051-.06Zm.2,1.438-.29-.837-.187,1.121Z" transform="translate(-20.532 -100.702)" fill="#455a64"/>
          <path id="Caminho_254" data-name="Caminho 254" d="M47.448,213.182c-.024.014-.044.016-.057,0a.237.237,0,0,1-.031-.031l-.681-1.07.074,1.417a.177.177,0,0,1-.014.076.105.105,0,0,1-.04.052l-.175.1a.033.033,0,0,1-.043,0,.08.08,0,0,1-.021-.056l-.117-2.222a.172.172,0,0,1,.014-.075.1.1,0,0,1,.04-.052l.152-.091c.025-.015.044-.016.057,0a.33.33,0,0,1,.031.032l.681,1.069-.074-1.417a.18.18,0,0,1,.014-.075.112.112,0,0,1,.04-.053l.175-.1a.032.032,0,0,1,.043,0,.075.075,0,0,1,.021.055l.117,2.222a.171.171,0,0,1-.014.075.1.1,0,0,1-.04.053Z" transform="translate(-21.923 -99.664)" fill="#455a64"/>
          <g id="Grupo_65" data-name="Grupo 65" transform="translate(16.716 34.782)" opacity="0.2">
            <g id="Grupo_64" data-name="Grupo 64">
              <g id="Grupo_63" data-name="Grupo 63" clip-path="url(#clip-path-4)">
                <path id="Caminho_255" data-name="Caminho 255" d="M31.723,130.815l5.629-9.316,7.79-1.078,6.038-8.434,7.215-1.47,6.24-13.166,7.5,6.324L78.7,85.086l7.313,4.505,5.524-23.583,6.892,5.382,1.48,28.242-68.188,40.6Z" transform="translate(-31.723 -66.008)" fill="#27debf"/>
              </g>
            </g>
          </g>
          <path id="Caminho_256" data-name="Caminho 256" d="M43.007,186.874a.236.236,0,0,1-.236-.223l-.05-.948a.236.236,0,0,1,.223-.248.245.245,0,0,1,.247.223l.05.948a.236.236,0,0,1-.223.248h-.012m-.1-1.9a.236.236,0,0,1-.235-.223l-.05-.948a.236.236,0,0,1,.471-.025l.05.948a.236.236,0,0,1-.223.248h-.012m-.1-1.9a.236.236,0,0,1-.235-.223l-.05-.948a.236.236,0,1,1,.471-.025l.05.948a.237.237,0,0,1-.223.248h-.012m-.1-1.9a.236.236,0,0,1-.236-.223l-.05-.948a.236.236,0,0,1,.223-.248.249.249,0,0,1,.247.223l.05.948a.236.236,0,0,1-.223.248H42.71m-.1-1.9a.236.236,0,0,1-.235-.223l-.05-.948a.236.236,0,0,1,.471-.025l.05.948a.236.236,0,0,1-.223.248H42.61m-.1-1.9a.236.236,0,0,1-.236-.223l-.05-.948a.236.236,0,0,1,.223-.248.242.242,0,0,1,.247.223l.05.948a.236.236,0,0,1-.223.248H42.51m-.1-1.9a.235.235,0,0,1-.235-.223l-.05-.948a.237.237,0,0,1,.223-.248.244.244,0,0,1,.248.223l.05.948a.236.236,0,0,1-.223.248h-.012m-.1-1.9a.235.235,0,0,1-.235-.223l-.05-.948a.237.237,0,0,1,.223-.248.242.242,0,0,1,.248.223l.05.948a.237.237,0,0,1-.223.248h-.012" transform="translate(-19.881 -81.452)" fill="#fafafa"/>
          <path id="Caminho_257" data-name="Caminho 257" d="M69.186,169.5a.236.236,0,0,1-.236-.223l-.042-.791a.237.237,0,0,1,.223-.248.234.234,0,0,1,.247.223l.042.791a.237.237,0,0,1-.223.248h-.012m-.083-1.582a.236.236,0,0,1-.236-.223l-.041-.791a.235.235,0,0,1,.223-.247.239.239,0,0,1,.248.223l.041.791a.236.236,0,0,1-.223.248H69.1m-.083-1.581a.235.235,0,0,1-.235-.223l-.042-.791a.236.236,0,0,1,.223-.248.244.244,0,0,1,.247.222l.042.791a.236.236,0,0,1-.223.248H69.02m-.083-1.582a.236.236,0,0,1-.236-.224l-.041-.791a.236.236,0,0,1,.223-.247.244.244,0,0,1,.248.223l.041.79a.235.235,0,0,1-.223.248h-.012m-.083-1.582a.235.235,0,0,1-.235-.223l-.042-.791a.237.237,0,0,1,.223-.248.249.249,0,0,1,.248.223l.042.791a.237.237,0,0,1-.223.248h-.012m-.083-1.582a.236.236,0,0,1-.235-.223l-.042-.791a.235.235,0,0,1,.223-.248.245.245,0,0,1,.247.223l.042.791a.236.236,0,0,1-.223.248h-.012m-.082-1.582a.236.236,0,0,1-.236-.223l-.042-.791a.236.236,0,0,1,.471-.025l.042.791a.236.236,0,0,1-.223.248h-.012m-.083-1.581a.236.236,0,0,1-.236-.223l-.042-.791a.236.236,0,0,1,.471-.025l.041.791a.235.235,0,0,1-.223.248h-.012m-.083-1.582a.235.235,0,0,1-.235-.223l-.041-.791a.236.236,0,0,1,.223-.248.24.24,0,0,1,.247.223l.041.791a.236.236,0,0,1-.223.247h-.012m-.082-1.582a.236.236,0,0,1-.236-.223l-.042-.791a.236.236,0,0,1,.471-.025l.042.791a.235.235,0,0,1-.223.248H68.44m-.083-1.581a.236.236,0,0,1-.236-.224l-.017-.336a.236.236,0,0,1,.223-.248.243.243,0,0,1,.248.223l.017.337a.236.236,0,0,1-.223.247h-.012" transform="translate(-32.217 -72.319)" fill="#fafafa"/>
          <path id="Caminho_258" data-name="Caminho 258" d="M95.182,148.687a.236.236,0,0,1-.236-.223l-.067-1.289a.236.236,0,0,1,.471-.025l.067,1.289a.237.237,0,0,1-.223.248h-.012m-.135-2.578a.235.235,0,0,1-.235-.223l-.067-1.289a.236.236,0,0,1,.223-.248.242.242,0,0,1,.248.222l.067,1.289a.236.236,0,0,1-.223.248h-.012m-.134-2.579a.235.235,0,0,1-.236-.223l-.068-1.289a.237.237,0,0,1,.223-.248.241.241,0,0,1,.247.223l.068,1.289a.236.236,0,0,1-.223.248h-.012m-.136-2.578a.236.236,0,0,1-.235-.223l-.067-1.289a.235.235,0,0,1,.223-.248.239.239,0,0,1,.248.223l.067,1.289a.235.235,0,0,1-.223.248h-.012m-.135-2.578a.236.236,0,0,1-.235-.223l-.067-1.289a.236.236,0,0,1,.223-.248.244.244,0,0,1,.248.223l.067,1.289a.236.236,0,0,1-.223.248h-.012m-.135-2.578a.236.236,0,0,1-.236-.223l-.068-1.289a.237.237,0,0,1,.223-.248.243.243,0,0,1,.248.223l.067,1.289a.235.235,0,0,1-.223.248h-.012m-.135-2.578a.236.236,0,0,1-.236-.223l-.067-1.289a.236.236,0,0,1,.223-.248.241.241,0,0,1,.248.223l.067,1.289a.235.235,0,0,1-.223.248h-.012m-.135-2.578a.236.236,0,0,1-.236-.223l-.067-1.289a.235.235,0,0,1,.223-.248.231.231,0,0,1,.248.223l.068,1.289a.237.237,0,0,1-.223.248h-.012m-.135-2.579a.236.236,0,0,1-.236-.223l-.067-1.29a.236.236,0,0,1,.223-.248.245.245,0,0,1,.247.223l.068,1.289a.237.237,0,0,1-.223.248H94.1" transform="translate(-44.373 -59.748)" fill="#fafafa"/>
          <path id="Caminho_259" data-name="Caminho 259" d="M121.624,128.84a.237.237,0,0,1-.236-.228l-.077-2.147a.235.235,0,0,1,.227-.244.217.217,0,0,1,.244.227l.077,2.147a.236.236,0,0,1-.227.244h-.008m-.154-4.294a.235.235,0,0,1-.235-.228l-.078-2.147a.235.235,0,0,1,.227-.244.218.218,0,0,1,.244.227l.078,2.147a.236.236,0,0,1-.227.244h-.009m-.155-4.294a.236.236,0,0,1-.235-.228L121,117.878a.235.235,0,0,1,.227-.244.221.221,0,0,1,.244.227l.077,2.147a.235.235,0,0,1-.227.244h-.009m-.154-4.295a.236.236,0,0,1-.235-.227l-.078-2.147a.235.235,0,0,1,.227-.243h.009a.236.236,0,0,1,.236.227l.077,2.147a.235.235,0,0,1-.227.244h-.009m-.155-4.294a.236.236,0,0,1-.235-.228l-.077-2.147a.234.234,0,0,1,.227-.243h.008a.236.236,0,0,1,.236.227l.077,2.147a.235.235,0,0,1-.227.244h-.009m-.154-4.294a.236.236,0,0,1-.236-.228L120.538,105a.235.235,0,0,1,.227-.243.218.218,0,0,1,.244.227l.078,2.147a.235.235,0,0,1-.227.243h-.009m-.155-4.294a.236.236,0,0,1-.236-.228l-.03-.838a.235.235,0,0,1,.227-.243h.009a.236.236,0,0,1,.235.227l.031.839a.236.236,0,0,1-.227.244H120.7" transform="translate(-56.972 -48.142)" fill="#fafafa"/>
          <path id="Caminho_260" data-name="Caminho 260" d="M147,103.653a.235.235,0,0,1-.235-.223l-.13-2.482a.235.235,0,0,1,.223-.248.239.239,0,0,1,.247.223l.13,2.482a.237.237,0,0,1-.223.248H147m-.26-4.965a.235.235,0,0,1-.235-.223l-.13-2.482a.236.236,0,0,1,.471-.025l.13,2.482a.236.236,0,0,1-.223.248h-.012m-.26-4.965a.236.236,0,0,1-.236-.223l-.13-2.482a.236.236,0,0,1,.223-.248.239.239,0,0,1,.247.223l.131,2.483a.237.237,0,0,1-.223.248h-.012m-.26-4.965a.236.236,0,0,1-.236-.223l-.131-2.482a.236.236,0,1,1,.471-.025l.131,2.483a.235.235,0,0,1-.223.248h-.012m-.261-4.965a.236.236,0,0,1-.236-.223l-.13-2.482a.236.236,0,0,1,.223-.248.248.248,0,0,1,.248.223l.13,2.482a.236.236,0,0,1-.223.248h-.012m-.26-4.965a.235.235,0,0,1-.235-.223l-.13-2.483a.236.236,0,0,1,.223-.247.243.243,0,0,1,.248.223l.13,2.482a.236.236,0,0,1-.223.248H145.7m-.26-4.965a.236.236,0,0,1-.236-.223l-.13-2.483a.236.236,0,0,1,.223-.248.241.241,0,0,1,.247.223l.13,2.482a.236.236,0,0,1-.223.248h-.012m-.26-4.965a.236.236,0,0,1-.236-.223l-.13-2.482a.236.236,0,0,1,.223-.248.245.245,0,0,1,.248.223l.13,2.482a.236.236,0,0,1-.223.248h-.012" transform="translate(-68.506 -31.196)" fill="#fafafa"/>
          <path id="Caminho_261" data-name="Caminho 261" d="M31.193,130.875a.589.589,0,0,1-.5-.894l5.629-9.316a.587.587,0,0,1,.424-.279l7.539-1.043,5.891-8.229a.587.587,0,0,1,.361-.234l6.926-1.412,6.113-12.9a.589.589,0,0,1,.912-.2l6.846,5.775,6.287-17.785a.589.589,0,0,1,.864-.306L85.1,88.133l5.336-22.787a.589.589,0,0,1,1.147.269L86.06,89.2a.589.589,0,0,1-.883.367l-6.692-4.123-6.328,17.9a.588.588,0,0,1-.935.254l-6.913-5.831L58.4,110.239a.588.588,0,0,1-.415.325l-6.988,1.425-5.9,8.246a.587.587,0,0,1-.4.24l-7.511,1.039L31.7,130.59a.587.587,0,0,1-.5.285" transform="translate(-14.478 -30.697)" fill="#455a64"/>
          <path id="Caminho_262" data-name="Caminho 262" d="M142.289,71.606a.589.589,0,0,1-.569-.439l-1.587-6.006-4.255,4.62a.589.589,0,0,1-.867-.8l4.984-5.41a.589.589,0,0,1,1,.249l1.862,7.045a.589.589,0,0,1-.419.72.573.573,0,0,1-.151.02" transform="translate(-63.796 -29.984)" fill="#455a64"/>
          <path id="Caminho_263" data-name="Caminho 263" d="M31.488,170.441a.261.261,0,0,1-.134-.486l68.188-40.6a.262.262,0,0,1,.268.45L31.622,170.4a.26.26,0,0,1-.134.037" transform="translate(-14.772 -61.178)" fill="#455a64"/>
          <path id="Caminho_264" data-name="Caminho 264" d="M204.053,110.7q.031-.025.06-.052a2.2,2.2,0,0,0,.485-1.593q.053-1.553.1-3.108.027-.777.053-1.554c.011-.32-.124-.818.087-1.093a.582.582,0,0,1,.522-.182,1.736,1.736,0,0,1,1.26,1.126,10.629,10.629,0,0,1,.681,4.154,37.238,37.238,0,0,0,.407,4.732c.062.412.284,1.889.912,1.539a2.773,2.773,0,0,0,1-1.352,3.768,3.768,0,0,1,.995-1.238c.418-.335,1.524-.719,1.506.185a1.744,1.744,0,0,1-.133.546c-.348.964-.648,1.943-1.01,2.9q-.272.718-.592,1.416-.166.361-.345.717c-.078.156-.342.487-.342.655a12.615,12.615,0,0,0-1.01,2.069,4,4,0,0,0,.318,2.984c.189.457.386.912.578,1.367l4.277,9.16s8.214-8.8,10.367-11.15c2.786-3.043,4.527-4.258,8.726-4.258l-3.88,14.3a112.51,112.51,0,0,1-8.918,9.218c-6.443,5.68-8.18,6.848-9.746,6.32s-3.19-2.682-4.445-7.058c-.743-2.589-1.438-4.861-2.073-7.479-.4-1.633-.8-3.317-1.171-4.955-.29-1.278-.59-2.213-.885-3.486a23.933,23.933,0,0,0-1.172-2.089,22.748,22.748,0,0,1-1.034-3.278c-.449-2.028-.766-4.912,1.071-6.367a3.529,3.529,0,0,0,.975-.83c.239-.4.188-.94.463-1.32.421-.583,1.348-.5,1.9-.943" transform="translate(-94.279 -48.778)" fill="#d2cfcf"/>
          <path id="Caminho_265" data-name="Caminho 265" d="M208.133,118.755a3.3,3.3,0,0,1,1.993,1.82,22.282,22.282,0,0,1,.433,3.378c-.021.489-.185,1.183-.9,1.263a1.384,1.384,0,0,1-1.141,1,1.5,1.5,0,0,1-1.2,1.039,1.4,1.4,0,0,1-1.04.837,5.155,5.155,0,0,0,2.465-1.6,1.357,1.357,0,0,0,1.165-.9,1.315,1.315,0,0,0,1.077-1.141,10.306,10.306,0,0,0-.285-3.282c-.163-.937-.314-1.98-2.568-2.4" transform="translate(-97.584 -56.179)" fill="#e3e3e3"/>
          <path id="Caminho_266" data-name="Caminho 266" d="M237.2,132.462c-1.9-.055-4.545-.754-8.638,3.184s-10.993,12.145-10.993,12.145l-2.722-5.7s-1.108,3.551-7.73,3.71c0,0,1.145,6.058,2.392,10.277s2.685,6.185,4.411,6.665,3.644-.72,8.056-4.675S234.927,146.2,234.927,146.2Z" transform="translate(-97.982 -62.624)" fill="#3a4981"/>
          <g id="Grupo_68" data-name="Grupo 68" transform="translate(109.139 69.755)" opacity="0.6">
            <g id="Grupo_67" data-name="Grupo 67">
              <g id="Grupo_66" data-name="Grupo 66" clip-path="url(#clip-path-5)">
                <path id="Caminho_267" data-name="Caminho 267" d="M237.2,132.462c-1.9-.055-4.545-.754-8.638,3.184s-10.993,12.145-10.993,12.145l-2.722-5.7s-1.108,3.551-7.73,3.71c0,0,1.145,6.058,2.392,10.277s2.685,6.185,4.411,6.665,3.644-.72,8.056-4.675S234.927,146.2,234.927,146.2Z" transform="translate(-207.121 -132.379)" fill="#3a4981"/>
              </g>
            </g>
          </g>
          <g id="Grupo_71" data-name="Grupo 71" transform="translate(119.591 84.323)" opacity="0.1">
            <g id="Grupo_70" data-name="Grupo 70">
              <g id="Grupo_69" data-name="Grupo 69" clip-path="url(#clip-path-6)">
                <path id="Caminho_268" data-name="Caminho 268" d="M226.956,160.869a12.485,12.485,0,0,1,2.281,6.212,11.034,11.034,0,0,0,.115-3.092,8.243,8.243,0,0,0-1.683-3.964Z" transform="translate(-226.956 -160.025)" fill="#3a4981"/>
              </g>
            </g>
          </g>
          <path id="Caminho_269" data-name="Caminho 269" d="M300.319,373.566l-6.46-.163-1.486-14.072,8.158-.1Z" transform="translate(-138.312 -169.938)" fill="#d2cfcf"/>
          <path id="Caminho_270" data-name="Caminho 270" d="M254.184,360.228c-1.152,1.874-4.673,1.627-7.6.875l.024-13.792,8.647-.111Z" transform="translate(-116.651 -164.248)" fill="#d2cfcf"/>
          <path id="Caminho_271" data-name="Caminho 271" d="M276.141,216.645c.077,5.969.315,40.763.315,40.763.167,1.716,1.86,4.748,2.068,10.933.3,8.969-.766,28.62-.766,28.62a10.3,10.3,0,0,1-7.7.251s-4.6-28.352-5.83-37.218c-1.077-7.738-4.131-27.98-4.131-27.98l-3.883,26.4a43.973,43.973,0,0,1,.472,9.526c-.239,4.112-3.111,24.043-3.111,24.043a14.359,14.359,0,0,1-8.269-.018s-1.11-31.079-1.23-34.847c-.137-4.3,1.03-42.147,1.03-42.147Z" transform="translate(-115.461 -101.694)" fill="#455a64"/>
          <path id="Caminho_272" data-name="Caminho 272" d="M266.1,242.575a27.685,27.685,0,0,1-9.354-5.283s1.72,3.123,6.752,5.985l-.9,23.1Z" transform="translate(-121.456 -112.255)" fill="#2d3c42"/>
          <path id="Caminho_273" data-name="Caminho 273" d="M280.492,398.419a2.972,2.972,0,0,0,.113,1.973,6.212,6.212,0,0,0,4.419,1.794,10.717,10.717,0,0,0,6.3-1.191,4.4,4.4,0,0,0,2.315-3.477c.122-1.452-.057-2.85.62-3.975.625-1.039,1.628-2.214,1.842-2.776a5.649,5.649,0,0,0-.021-2.954Z" transform="translate(-132.633 -183.461)" fill="#263238"/>
          <path id="Caminho_274" data-name="Caminho 274" d="M287.346,381.209a5.611,5.611,0,0,1-.273,1.619,14.781,14.781,0,0,1-1.519,3.211,13.051,13.051,0,0,1-1.042,1.511c-.759.926-1.706,1.691-2.51,2.581a5.21,5.21,0,0,0-1.532,3.146c-.083,2,2.094,2.65,3.767,2.925a12.25,12.25,0,0,0,5.42-.343,4.981,4.981,0,0,0,3.6-4.027c.085-.555.043-1.122.1-1.681a7.846,7.846,0,0,1,1.509-3.514,10.56,10.56,0,0,0,1.167-1.917c.5-1.243.069-2.629-.279-3.856-.3-1.06-.639-2.259-1.012-2.154-.015.556.006.609-.385.987-.494.48-.507,1.191-1.031,1.616a7.3,7.3,0,0,0,.353-1.425.809.809,0,0,0-.12-.563,1.481,1.481,0,0,0-.617-.32,12.23,12.23,0,0,0-2.432-.521,7.235,7.235,0,0,0-2.367.013,1.028,1.028,0,0,0-.591.352,1.184,1.184,0,0,0-.2.686c-.032.32,0,1.143-.006,1.674" transform="translate(-132.68 -179.004)" fill="#455a64"/>
          <path id="Caminho_275" data-name="Caminho 275" d="M218.072,384.68a2.44,2.44,0,0,0-.032,1.8c.211.542,2.832,2.286,6.539,2.31a15.4,15.4,0,0,0,7.825-2.1,8.847,8.847,0,0,1,4.787-.863c1.834.031,4.3-.7,4.764-1.528a4.054,4.054,0,0,0,.111-2.33Z" transform="translate(-103.074 -180.694)" fill="#263238"/>
          <path id="Caminho_276" data-name="Caminho 276" d="M233.863,367.221c-.094-.028-.19-.055-.287-.082a1.144,1.144,0,0,0-.485-.062.949.949,0,0,0-.478.273,9.108,9.108,0,0,0-1.052,1.41,10.989,10.989,0,0,1-4.409,2.951c-1.253.559-2.471.974-3.756,1.441a31.117,31.117,0,0,0-4.064,1.3,2.667,2.667,0,0,0-.31,4.4,13.059,13.059,0,0,0,9.045,1.3c2.184-.448,4.727-2.558,7.55-2.57,1.8-.007,5.208-.259,6.458-1.53.47-.57.043-2.518-.3-4.2-.375-1.834-.111-4.556-.924-4.546l-.075.91c-.083.272-.732.521-.936.725l-.746.748a2.675,2.675,0,0,1-3.417.709c-.035-.01.424-1.391.47-1.525a.62.62,0,0,0,.052-.338.55.55,0,0,0-.21-.273,5.731,5.731,0,0,0-2.124-1.035" transform="translate(-103.129 -173.648)" fill="#455a64"/>
          <path id="Caminho_277" data-name="Caminho 277" d="M264.64,132.775c2.382.228,5.2.325,7.47.582,2.932.331,5.269,3.317,6.065,7.983.877,5.144-2.144,19.984-2.144,19.984l1.363,17.409c-4.231,3.235-22.444,5.217-31.656-1.187,0,0-.317-29.668.313-34.233.866-6.282,2.324-10.2,9.383-10.777Z" transform="translate(-116.213 -62.698)" fill="#2d366e"/>
          <g id="Grupo_74" data-name="Grupo 74" transform="translate(129.446 69.837)" opacity="0.75">
            <g id="Grupo_73" data-name="Grupo 73">
              <g id="Grupo_72" data-name="Grupo 72" clip-path="url(#clip-path-7)">
                <path id="Caminho_278" data-name="Caminho 278" d="M264.64,132.775c2.382.228,5.2.325,7.47.582,2.932.331,5.269,3.317,6.065,7.983.877,5.144-2.144,19.984-2.144,19.984l1.363,17.409c-4.231,3.235-22.444,5.217-31.656-1.187,0,0-.317-29.668.313-34.233.866-6.282,2.324-10.2,9.383-10.777Z" transform="translate(-245.658 -132.535)" fill="#2d366e"/>
              </g>
            </g>
          </g>
          <path id="Caminho_279" data-name="Caminho 279" d="M309.483,170.464s-5.087,7.525-8.071,10.877c-2.067,2.322-6.6,7.12-9.539,8.6-7.288,3.673-10-.887-10.621-2.138-.716-1.437-.184-2.672,3.952-4.29a14.719,14.719,0,0,0,2.65-1.378c.417-.271,1.8-.93,1.1-1.53a1.5,1.5,0,0,0-.779-.269l-1.958-.287a2.574,2.574,0,0,1-1.216-.394.887.887,0,0,1-.292-1.135,1.3,1.3,0,0,1,1.014-.409q3.4-.294,6.818-.317c.463,0,1.253.184,1.641-.07a3.25,3.25,0,0,0,.6-.592c.321-.454.63-.917.936-1.381.828-1.253,1.637-2.519,2.441-3.787,1.1-1.741,3-5.39,4.086-7.143l-9.771-15.17a19.116,19.116,0,0,1-2.979-15.313s4.444.2,7.2,2.951,14.4,23.22,14.991,25.463.612,3.433-2.2,7.713" transform="translate(-132.924 -63.55)" fill="#d2cfcf"/>
          <path id="Caminho_280" data-name="Caminho 280" d="M295.15,134.078c2.111-.086,5.652.024,8.048,2.686s10.461,16.1,13.209,21.266,3.41,6.491,1.26,10.335-7.464,9.8-7.464,9.8a19.265,19.265,0,0,0-6.365-5.322l4.3-8.206-9.476-14.1s-6.511-7.871-3.511-16.461" transform="translate(-139.252 -63.419)" fill="#3a4981"/>
          <g id="Grupo_77" data-name="Grupo 77" transform="translate(155.108 70.641)" opacity="0.6">
            <g id="Grupo_76" data-name="Grupo 76">
              <g id="Grupo_75" data-name="Grupo 75" clip-path="url(#clip-path-8)">
                <path id="Caminho_281" data-name="Caminho 281" d="M295.15,134.078c2.111-.086,5.652.024,8.048,2.686s10.461,16.1,13.209,21.266,3.41,6.491,1.26,10.335-7.464,9.8-7.464,9.8a19.265,19.265,0,0,0-6.365-5.322l4.3-8.206-9.476-14.1s-6.511-7.871-3.511-16.461" transform="translate(-294.359 -134.06)" fill="#3a4981"/>
              </g>
            </g>
          </g>
          <path id="Caminho_282" data-name="Caminho 282" d="M287.99,106.273s-2,6.136-2.694,7.4a2.5,2.5,0,0,1-1.969,1.416l-.01-4.445Z" transform="translate(-134.028 -50.274)" fill="#263238"/>
          <path id="Caminho_283" data-name="Caminho 283" d="M285.561,87.386a3.448,3.448,0,0,1,3.937,1.446c.886,1.312,1.149,4.308-2.038,11.573l-2.588-2.745Z" transform="translate(-134.763 -41.267)" fill="#263238"/>
          <path id="Caminho_284" data-name="Caminho 284" d="M267.464,95.391a3.811,3.811,0,0,1,1.088-1.7,2.762,2.762,0,0,1,4.193.822c1.09,2.165-.9,4.838-2.38,5.646a2.189,2.189,0,0,1-2.957-.471l-.219,9.95c-1.994,3.567-7.7,2.358-7.916,6.8-1.029-3.516-2.853-5.277-1.131-7.368l-.059-2.839a17.477,17.477,0,0,1-3.734.279c-2.047-.268-3.367-1.847-4.037-4.04-1.076-3.523-1.52-6.376-.839-13.369.746-7.665,9.635-7.951,14.5-5.041s3.485,11.326,3.485,11.326" transform="translate(-117.864 -38.961)" fill="#d2cfcf"/>
          <path id="Caminho_285" data-name="Caminho 285" d="M244.513,77.011a3.086,3.086,0,0,1,.921-2.819c.975-.891,2.642-.656,4.215-.139a16.509,16.509,0,0,0,7.274,1.439c2.158-.029,5-.4,7.149.657,2.448,1.207,3.355,2.635,3.487,4.344.042.549-.479.988-.615,1.519a4.043,4.043,0,0,0-.307,1.422c.093.849.258,1.7.346,2.549a20.034,20.034,0,0,1,.142,2.483c-.008.4-.3.669-.636.953a3.875,3.875,0,0,0-1.1,1.508c-.188.357-.381,1.247-.738,1.483-1.091.72-1.146-1.712-1.185-2.178a24.6,24.6,0,0,1,.107-3.225,3.872,3.872,0,0,1-2.82-1.388,3.294,3.294,0,0,1-.667-1.6,5.279,5.279,0,0,1-.057-.989,4.966,4.966,0,0,1-3.606,1.222,3.715,3.715,0,0,1-3.119-1.436,4.791,4.791,0,0,1-1.592,1.446,5.883,5.883,0,0,1-3.495.425,3.553,3.553,0,0,1-2.584-1.972,3.377,3.377,0,0,1,.377-3.445,3.8,3.8,0,0,1-1.5-2.261" transform="translate(-115.658 -34.815)" fill="#263238"/>
          <path id="Caminho_286" data-name="Caminho 286" d="M287.847,86.081l3.031-1.719a1.691,1.691,0,0,0-2.341-.715,1.831,1.831,0,0,0-.69,2.434" transform="translate(-136.071 -39.466)" fill="#263238"/>
          <path id="Caminho_287" data-name="Caminho 287" d="M266.105,123.962a34.91,34.91,0,0,0,6.1-1.906,5.243,5.243,0,0,0,2.149-2.228,7.171,7.171,0,0,1-1.19,2.6c-1.129,1.515-7.034,2.748-7.034,2.748Z" transform="translate(-125.885 -56.687)" fill="#e3e3e3"/>
          <g id="Grupo_83" data-name="Grupo 83" transform="translate(141.392 67.875)" opacity="0.75">
            <g id="Grupo_82" data-name="Grupo 82">
              <g id="Grupo_81" data-name="Grupo 81" clip-path="url(#clip-path-9)">
                <path id="Caminho_288" data-name="Caminho 288" d="M276.324,128.811l-.011,1.161a11.939,11.939,0,0,1-4.105,3.912c-2.336,1.1-3.05,1.122-3.523,2.425a4.576,4.576,0,0,0-.338,2.109s.564-2.252,1.314-2.2,3.348,2.922,3.348,2.922,4.047-.854,5.35-3.592.709-4.256.709-4.256-1.382-2.412-2.744-2.478" transform="translate(-268.329 -128.811)" fill="#3a4981"/>
                <g id="Grupo_80" data-name="Grupo 80" opacity="0.6">
                  <g id="Grupo_79" data-name="Grupo 79">
                    <g id="Grupo_78" data-name="Grupo 78" clip-path="url(#clip-path-9)">
                      <path id="Caminho_289" data-name="Caminho 289" d="M276.324,128.811l-.011,1.161a11.939,11.939,0,0,1-4.105,3.912c-2.336,1.1-3.05,1.122-3.523,2.425a4.576,4.576,0,0,0-.338,2.109s.564-2.252,1.314-2.2,3.348,2.922,3.348,2.922,4.047-.854,5.35-3.592.709-4.256.709-4.256-1.382-2.412-2.744-2.478" transform="translate(-268.329 -128.811)" fill="#3a4981"/>
                    </g>
                  </g>
                </g>
              </g>
            </g>
          </g>
          <path id="Caminho_290" data-name="Caminho 290" d="M264.436,138.615a19.451,19.451,0,0,1-.313-3.14,5.177,5.177,0,0,0-.559-2.418,7.824,7.824,0,0,1-.259-1.809l-.04-2.019a3.13,3.13,0,0,0-1.554.9,20.726,20.726,0,0,0-1.6,3.8,7.868,7.868,0,0,0,.711,3.808s1.144-2.693,1.9-2.285.993,2.366,1.717,3.171" transform="translate(-123.026 -61.134)" fill="#3a4981"/>
          <g id="Grupo_86" data-name="Grupo 86" transform="translate(137.036 68.095)" opacity="0.75">
            <g id="Grupo_85" data-name="Grupo 85">
              <g id="Grupo_84" data-name="Grupo 84" clip-path="url(#clip-path-11)">
                <path id="Caminho_291" data-name="Caminho 291" d="M264.436,138.615a19.451,19.451,0,0,1-.313-3.14,5.177,5.177,0,0,0-.559-2.418,7.824,7.824,0,0,1-.259-1.809l-.04-2.019a3.13,3.13,0,0,0-1.554.9,20.726,20.726,0,0,0-1.6,3.8,7.868,7.868,0,0,0,.711,3.808s1.144-2.693,1.9-2.285.993,2.366,1.717,3.171" transform="translate(-260.062 -129.228)" fill="#3a4981"/>
              </g>
            </g>
          </g>
          <path id="Caminho_292" data-name="Caminho 292" d="M269.477,52.3a.479.479,0,0,0,.175-.177l2.193-3.8V46.236l-6.459-2.525V45.8l.783,2.261-3.839-2.216-.232,1.3,2.285,7.465a.48.48,0,0,0,.693.258c.069-.04,4.156-2.423,4.4-2.563" transform="translate(-123.99 -20.678)" fill="#bcbcbc"/>
          <g id="Grupo_89" data-name="Grupo 89" transform="translate(138.108 23.032)" opacity="0.3">
            <g id="Grupo_88" data-name="Grupo 88">
              <g id="Grupo_87" data-name="Grupo 87" clip-path="url(#clip-path-12)">
                <path id="Caminho_293" data-name="Caminho 293" d="M269.477,52.3a.479.479,0,0,0,.175-.177l2.193-3.8V46.236l-6.459-2.525V45.8l.783,2.261-3.839-2.216-.232,1.3,2.285,7.465a.48.48,0,0,0,.693.258c.069-.04,4.156-2.423,4.4-2.563" transform="translate(-262.099 -43.71)" fill="#bcbcbc"/>
              </g>
            </g>
          </g>
          <path id="Caminho_294" data-name="Caminho 294" d="M262.331,47.764l-.233,1.3,2.286,7.464a.479.479,0,0,0,.867.083l2.48-4.3-.286-1.6Z" transform="translate(-123.99 -22.596)" fill="#bcbcbc"/>
          <path id="Caminho_295" data-name="Caminho 295" d="M245.642,4.118A4.623,4.623,0,0,1,247.732.5l0,0a4.621,4.621,0,0,1,4.181,0L271.5,11.729a4.62,4.62,0,0,1,2.091,3.621V30.426a4.621,4.621,0,0,1-2.091,3.621l0,0a4.621,4.621,0,0,1-4.181,0L247.537,22.673a3.243,3.243,0,0,1-1.9-3.479Z" transform="translate(-116.204 0)" fill="#d2cfcf"/>
          <path id="Caminho_296" data-name="Caminho 296" d="M293.372,42.357a4.623,4.623,0,0,1-2.091,3.622l0,0a4.672,4.672,0,0,1-3.824.175c.984.372,1.733-.19,1.733-1.383V29.693a4.278,4.278,0,0,0-.612-2.06l4.18-2.411a4.276,4.276,0,0,1,.612,2.061Z" transform="translate(-135.987 -11.931)" fill="#bcbcbc"/>
          <path id="Caminho_297" data-name="Caminho 297" d="M245.771,3.528c.244-.888,1.053-1.17,2.019-.615l19.591,11.233a4.149,4.149,0,0,1,1.473,1.56l4.178-2.408a4.215,4.215,0,0,0-1.473-1.56L251.977.5a4.651,4.651,0,0,0-4.184,0h0a4.613,4.613,0,0,0-2.019,3.024" transform="translate(-116.266 -0.004)" fill="#bcbcbc"/>
          <path id="Caminho_298" data-name="Caminho 298" d="M256.617,24.713l5.571-4.03,5.571,10.463-2.638-1.523v7.226l-5.867-3.387V26.235Z" transform="translate(-121.397 -9.784)" fill="#dd5361"/>
        </g>
      </g>
    </g>
  </g>
</svg>
