<svg id="Componente_2_1" data-name="Componente 2 – 1" xmlns="http://www.w3.org/2000/svg" xmlns:xlink="http://www.w3.org/1999/xlink" width="335.006" height="255" viewBox="0 0 335.006 255">
  <defs>
    <clipPath id="clip-path">
      <rect id="Retângulo_15" data-name="Retângulo 15" width="144.244" height="216.575" fill="none"/>
    </clipPath>
    <clipPath id="clip-path-3">
      <rect id="Retângulo_10" data-name="Retângulo 10" width="3.527" height="4.836" fill="none"/>
    </clipPath>
    <clipPath id="clip-path-4">
      <rect id="Retângulo_11" data-name="Retângulo 11" width="9.098" height="28.932" fill="none"/>
    </clipPath>
    <clipPath id="clip-path-5">
      <rect id="Retângulo_12" data-name="Retângulo 12" width="13.186" height="8.267" fill="none"/>
    </clipPath>
    <clipPath id="clip-path-6">
      <rect id="Retângulo_13" data-name="Retângulo 13" width="1.562" height="1.562" fill="none"/>
    </clipPath>
  </defs>
  <g id="Elipse_5" data-name="Elipse 5" fill="#fff" stroke="#e95362" stroke-width="3">
    <ellipse cx="128" cy="127.5" rx="128" ry="127.5" stroke="none"/>
    <ellipse cx="128" cy="127.5" rx="126.5" ry="126" fill="none"/>
  </g>
  <g id="Grupo_22" data-name="Grupo 22" transform="translate(190.763 38.42)">
    <g id="Grupo_21" data-name="Grupo 21" clip-path="url(#clip-path)">
      <g id="Grupo_20" data-name="Grupo 20">
        <g id="Grupo_19" data-name="Grupo 19" clip-path="url(#clip-path)">
          <path id="Caminho_25" data-name="Caminho 25" d="M30.9,346.077l.435,13.252L34.7,369.712a1.358,1.358,0,0,1-2.173,1.453c-2.128-1.825-9.924-8.577-9.9-9.549.025-1.125-1.387-13.949-1.387-13.949Z" transform="translate(-9.506 -154.924)" fill="#2d366e"/>
          <path id="Caminho_26" data-name="Caminho 26" d="M34.817,383.319,23.655,372.593l.031.561a2.042,2.042,0,0,0,.558,1.3c.9.941,3.426,3.486,9.322,8.587a1.358,1.358,0,0,0,1.251.281" transform="translate(-10.589 -166.794)" fill="#e0e0e0"/>
          <path id="Caminho_27" data-name="Caminho 27" d="M27.2,364.5a.822.822,0,0,1,.284,1.059.79.79,0,0,1-1.047.291.867.867,0,0,1-.3-1.123.82.82,0,0,1,1.123-.182" transform="translate(-11.655 -163.122)" fill="#fff"/>
          <path id="Caminho_28" data-name="Caminho 28" d="M37.789,380.524c.077.033.337-.678,1.1-1.094a4.137,4.137,0,0,1,1.508-.377c.009-.034-.163-.127-.476-.153a2.166,2.166,0,0,0-2.02,1.137c-.139.281-.149.477-.115.487" transform="translate(-16.909 -169.615)" fill="#263238"/>
          <path id="Caminho_29" data-name="Caminho 29" d="M39.682,384.117c.066.054.467-.4,1.141-.635a10.924,10.924,0,0,1,1.284-.239,1.507,1.507,0,0,0-1.382-.035c-.767.272-1.113.877-1.042.909" transform="translate(-17.76 -171.487)" fill="#263238"/>
          <path id="Caminho_30" data-name="Caminho 30" d="M34.391,376.5a13.592,13.592,0,0,1,1.695-1.1,13.618,13.618,0,0,1,1.938-.567,3.008,3.008,0,0,0-2.06.3,3.009,3.009,0,0,0-1.573,1.363" transform="translate(-15.393 -167.767)" fill="#263238"/>
          <path id="Caminho_31" data-name="Caminho 31" d="M33.544,370.094c.04.078.755-.268,1.7-.356s1.717.1,1.741.015a2.633,2.633,0,0,0-1.77-.305,2.634,2.634,0,0,0-1.675.646" transform="translate(-15.015 -165.377)" fill="#263238"/>
          <path id="Caminho_32" data-name="Caminho 32" d="M33.135,363.022A6.672,6.672,0,0,1,34.9,362.6a6.661,6.661,0,0,1,1.78.343c.02-.029-.134-.187-.449-.346a2.962,2.962,0,0,0-2.662.056c-.308.172-.455.337-.434.365" transform="translate(-14.832 -162.192)" fill="#263238"/>
          <path id="Caminho_33" data-name="Caminho 33" d="M34.618,359.456a1.134,1.134,0,0,0-.01-.5,3.472,3.472,0,0,0-.471-1.289,1.542,1.542,0,0,0-.7-.7.547.547,0,0,0-.608.156.892.892,0,0,0-.176.61,1.921,1.921,0,0,0,1.78,1.68,2.228,2.228,0,0,0,2.12-1.285.776.776,0,0,0,0-.643.535.535,0,0,0-.576-.252,1.9,1.9,0,0,0-.847.5,3.9,3.9,0,0,0-.846,1.079,1.192,1.192,0,0,0-.178.469,6.188,6.188,0,0,1,1.158-1.392,1.778,1.778,0,0,1,.749-.42.286.286,0,0,1,.314.135.532.532,0,0,1-.025.424,1.987,1.987,0,0,1-1.85,1.093,1.668,1.668,0,0,1-1.531-1.4.647.647,0,0,1,.1-.431.3.3,0,0,1,.334-.091,1.392,1.392,0,0,1,.606.582,5.143,5.143,0,0,1,.655,1.68" transform="translate(-14.616 -159.782)" fill="#263238"/>
          <path id="Caminho_34" data-name="Caminho 34" d="M77.285,349.36l-.687,9.909s9.842,4.026,9.893,5.87L67.23,364.5l.436-15.484Z" transform="translate(-30.096 -156.239)" fill="#2d366e"/>
          <path id="Caminho_35" data-name="Caminho 35" d="M72.983,365.69a.787.787,0,0,0-.574.879.757.757,0,0,0,.867.577.831.831,0,0,0,.6-.935.785.785,0,0,0-.968-.5" transform="translate(-32.409 -163.691)" fill="#e0e0e0"/>
          <path id="Caminho_36" data-name="Caminho 36" d="M67.23,375.784l.1-1.559,18.429,1.2s.845.4.728,1Z" transform="translate(-30.096 -167.524)" fill="#e0e0e0"/>
          <path id="Caminho_37" data-name="Caminho 37" d="M83.311,367.344c-.006.094-.478.121-.951.408s-.732.674-.818.635c-.086-.022.073-.579.652-.916s1.14-.212,1.117-.126" transform="translate(-36.493 -164.4)" fill="#263238"/>
          <path id="Caminho_38" data-name="Caminho 38" d="M87.3,369.024c.018.092-.394.238-.727.625s-.439.8-.532.8c-.089.012-.136-.541.287-1.015s.973-.5.972-.408" transform="translate(-38.49 -165.178)" fill="#263238"/>
          <path id="Caminho_39" data-name="Caminho 39" d="M90.219,372.208c-.086.017-.2-.457.057-.964s.705-.7.742-.617-.244.346-.45.765-.256.81-.35.816" transform="translate(-40.342 -165.906)" fill="#263238"/>
          <path id="Caminho_40" data-name="Caminho 40" d="M82.965,363c-.042.084-.469-.06-1-.041s-.953.172-1,.09.363-.4.991-.418,1.059.3,1.01.369" transform="translate(-36.242 -162.336)" fill="#263238"/>
          <path id="Caminho_41" data-name="Caminho 41" d="M82.431,358.356a1.816,1.816,0,0,1-.965-.037,4.381,4.381,0,0,1-1-.344,4.632,4.632,0,0,1-.544-.313,1.189,1.189,0,0,1-.284-.237.411.411,0,0,1-.027-.5.516.516,0,0,1,.42-.2,1.262,1.262,0,0,1,.36.062,3.5,3.5,0,0,1,.593.225,3.4,3.4,0,0,1,.87.614c.433.428.574.785.541.8s-.251-.272-.695-.629a3.845,3.845,0,0,0-.844-.513,3.623,3.623,0,0,0-.548-.189c-.2-.061-.376-.068-.431.021-.02.034-.023.048.018.109a.956.956,0,0,0,.208.173,5.139,5.139,0,0,0,.5.308,5.378,5.378,0,0,0,.921.388,6.547,6.547,0,0,1,.906.261" transform="translate(-35.606 -159.69)" fill="#263238"/>
          <path id="Caminho_42" data-name="Caminho 42" d="M84.364,357.455a1.534,1.534,0,0,1-.224-.94,3.108,3.108,0,0,1,.432-1.629.8.8,0,0,1,.631-.467.45.45,0,0,1,.394.282,1.316,1.316,0,0,1,.088.357,2.151,2.151,0,0,1-.022.65,2.211,2.211,0,0,1-.445.983c-.393.487-.789.586-.8.553-.03-.048.3-.218.608-.689a2.22,2.22,0,0,0,.335-.9,1.985,1.985,0,0,0,0-.558c-.023-.206-.094-.373-.172-.355-.1,0-.263.144-.347.3a3.216,3.216,0,0,0-.257.515,3.45,3.45,0,0,0-.218.957c-.045.564.043.92-.008.932" transform="translate(-37.666 -158.658)" fill="#263238"/>
          <path id="Caminho_43" data-name="Caminho 43" d="M13.738,169.647l2.847,106.528,15.194-.456,3.624-109.7Z" transform="translate(-6.15 -74.318)" fill="#ca4f5a"/>
          <path id="Caminho_44" data-name="Caminho 44" d="M58.177,165.688s11.28,45.16,11.627,52.86-2.414,55.828-2.414,55.828H52.514l1.242-54.807-11.3-46.382,2.735-7.262Z" transform="translate(-19.006 -74.171)" fill="#ca4f5a"/>
          <path id="Caminho_45" data-name="Caminho 45" d="M51.888,175.728a.565.565,0,0,1,.006.145c0,.111,0,.25-.008.422-.015.392-.035.935-.061,1.623-.066,1.431-.159,3.463-.273,5.966-.26,5.054-.615,12-1.008,19.675-.424,7.675-.808,14.621-1.088,19.675-.152,2.5-.275,4.532-.362,5.961l-.112,1.62c-.015.172-.027.311-.036.421a.636.636,0,0,1-.022.144.536.536,0,0,1-.007-.144c0-.111.006-.25.008-.422.015-.392.035-.934.061-1.622.065-1.43.159-3.463.274-5.965.258-5.054.614-12,1.006-19.681.425-7.673.809-14.62,1.089-19.673.151-2.5.275-4.532.361-5.961.049-.687.086-1.229.113-1.62.015-.172.027-.31.036-.421a.507.507,0,0,1,.022-.143" transform="translate(-21.898 -78.666)" fill="#e3e3e3"/>
          <path id="Caminho_46" data-name="Caminho 46" d="M36.9,59.72s5.52,27.392,5.6,35.11,2.79,22.8,2.79,22.8H21.377l-.516-41.732-1.7-12.448,3.591-5.12Z" transform="translate(-8.576 -26.111)" fill="#f5f5f5"/>
          <path id="Caminho_47" data-name="Caminho 47" d="M51.8,62.31s5.7,1.675,7.212,3.785C60.2,67.759,61.8,99.267,61.8,99.267l2.448,27.752-2.393-.224-3.378-10.388Z" transform="translate(-23.188 -27.894)" fill="#2d366e"/>
          <path id="Caminho_48" data-name="Caminho 48" d="M64.856,69.163,80.961,83.94l19.815-6.419,3.946,8.319-21.143,9.6c-3.022,1.289-4.916.579-7.013-1.1L65.475,85.452Z" transform="translate(-29.033 -30.961)" fill="#2d366e"/>
          <path id="Caminho_49" data-name="Caminho 49" d="M122.546,88.906a.435.435,0,1,1-.588-.178.434.434,0,0,1,.588.178" transform="translate(-54.493 -39.697)" fill="#2d366e"/>
          <path id="Caminho_50" data-name="Caminho 50" d="M122.152,89.548a.448.448,0,0,1-.395-.236.448.448,0,1,1,.395.236m0-.869a.421.421,0,0,0-.122.824.42.42,0,0,0,.525-.281.414.414,0,0,0-.031-.321.421.421,0,0,0-.372-.223" transform="translate(-54.482 -39.686)" fill="#2d366e"/>
          <path id="Caminho_51" data-name="Caminho 51" d="M125.553,88.192a.435.435,0,1,1-.588-.178.434.434,0,0,1,.588.178" transform="translate(-55.838 -39.377)" fill="#2d366e"/>
          <path id="Caminho_52" data-name="Caminho 52" d="M125.16,88.834a.451.451,0,0,1-.395-.237.448.448,0,0,1,.525-.64.448.448,0,0,1-.13.877m0-.869a.417.417,0,0,0-.2.05.421.421,0,0,0-.173.57.415.415,0,0,0,.249.2.421.421,0,1,0,.245-.806.433.433,0,0,0-.123-.018" transform="translate(-55.828 -39.366)" fill="#2d366e"/>
          <path id="Caminho_53" data-name="Caminho 53" d="M128.416,87.614a.435.435,0,1,1-.588-.178.434.434,0,0,1,.588.178" transform="translate(-57.12 -39.118)" fill="#2d366e"/>
          <path id="Caminho_54" data-name="Caminho 54" d="M128.023,88.256a.449.449,0,0,1-.4-.236.447.447,0,0,1-.033-.342.442.442,0,0,1,.217-.265.448.448,0,1,1,.212.843m0-.869a.412.412,0,0,0-.2.05.422.422,0,1,0,.2-.05" transform="translate(-57.11 -39.107)" fill="#2d366e"/>
          <path id="Caminho_55" data-name="Caminho 55" d="M130.245,84.589l1.533-.561,3.519,7.414-1.5.639Z" transform="translate(-58.305 -37.616)" fill="#2d366e"/>
          <path id="Caminho_56" data-name="Caminho 56" d="M65.774,79.734a4.981,4.981,0,0,1,.092.829c.06.583.138,1.342.231,2.257.221,1.953.516,4.561.843,7.443.322,2.909.579,5.547.7,7.464.064.958.092,1.734.1,2.272a4.739,4.739,0,0,1-.028.833,4.841,4.841,0,0,1-.081-.83c-.039-.534-.1-1.307-.185-2.26-.17-1.909-.457-4.541-.779-7.449s-.6-5.542-.762-7.454c-.08-.956-.124-1.732-.144-2.268a4.7,4.7,0,0,1,.015-.836" transform="translate(-29.435 -35.694)" fill="#2d366e"/>
          <path id="Caminho_57" data-name="Caminho 57" d="M70.3,86.427A30.4,30.4,0,0,1,69.293,90.4a30.3,30.3,0,0,1-1.275,3.893,30.347,30.347,0,0,1,1.009-3.971A30.41,30.41,0,0,1,70.3,86.427" transform="translate(-30.445 -38.69)" fill="#2d366e"/>
          <path id="Caminho_58" data-name="Caminho 58" d="M93.213,100.818a1.668,1.668,0,0,1-.357-.7,5.089,5.089,0,0,1,.235-3.742c.215-.441.414-.673.442-.655a9.743,9.743,0,0,0-.64,2.52,9.746,9.746,0,0,0,.32,2.581" transform="translate(-41.456 -42.848)" fill="#2d366e"/>
          <path id="Caminho_59" data-name="Caminho 59" d="M89.763,135.943l2.061.16-.819,8.6-1.99-.226Z" transform="translate(-39.849 -60.856)" fill="#2d366e"/>
          <path id="Caminho_60" data-name="Caminho 60" d="M14.177,59.407,3.065,66.491A7.218,7.218,0,0,0,.371,74.677L8.9,101.46,5.822,125.8l24.353-1.034-.592-10.667L27.515,95.011A37.916,37.916,0,0,0,24.9,84.71Z" transform="translate(0 -26.594)" fill="#2d366e"/>
          <path id="Caminho_61" data-name="Caminho 61" d="M4.015,81.679l11.116,23.258a6.881,6.881,0,0,0,4.624,3.73L50.6,115.973l.786-8.979L27.839,98.14,16,75.408A6.762,6.762,0,1,0,4.015,81.679" transform="translate(-1.449 -32.128)" fill="#2d366e"/>
          <path id="Caminho_62" data-name="Caminho 62" d="M53.764,107.365a.5.5,0,0,1-.127-.034l-.363-.123q-.5-.182-1.4-.5c-1.231-.454-2.985-1.1-5.164-1.9L29.306,98.3l-.05-.019-.025-.049c-.657-1.3-1.347-2.669-2.048-4.06-1.932-3.761-3.855-7.3-5.653-10.494-.9-1.6-1.766-3.105-2.587-4.513l-1.194-2.033c-.188-.329-.382-.643-.584-.939a7.333,7.333,0,0,0-.63-.84,7.4,7.4,0,0,0-2.961-2.149,6.752,6.752,0,0,0-2.733-.488,4.9,4.9,0,0,0-2.287.611.656.656,0,0,1,.129-.092,2.183,2.183,0,0,1,.409-.223,4.77,4.77,0,0,1,1.744-.4,6.741,6.741,0,0,1,2.794.451,7.514,7.514,0,0,1,3.052,2.165,7.5,7.5,0,0,1,.652.854c.212.3.408.619.6.945l1.209,2.026c.829,1.4,1.705,2.91,2.611,4.5,1.812,3.187,3.744,6.727,5.678,10.492.712,1.386,1.4,2.757,2.047,4.065l-.074-.067,17.374,6.592,5.134,1.978,1.38.545.354.147a.466.466,0,0,1,.118.057" transform="translate(-3.83 -32.5)" fill="#2d366e"/>
          <path id="Caminho_63" data-name="Caminho 63" d="M80.209,145.324a.435.435,0,1,1-.435-.435.434.434,0,0,1,.435.435" transform="translate(-35.517 -64.861)" fill="#2d366e"/>
          <path id="Caminho_64" data-name="Caminho 64" d="M79.764,145.761a.448.448,0,1,1,.448-.447.448.448,0,0,1-.448.447m0-.869a.421.421,0,1,0,.421.421.422.422,0,0,0-.421-.421" transform="translate(-35.506 -64.85)" fill="#2d366e"/>
          <path id="Caminho_65" data-name="Caminho 65" d="M83.2,146.11a.435.435,0,1,1-.435-.434.435.435,0,0,1,.435.434" transform="translate(-36.856 -65.213)" fill="#2d366e"/>
          <path id="Caminho_66" data-name="Caminho 66" d="M82.754,146.548a.448.448,0,1,1,.448-.447.448.448,0,0,1-.448.447m0-.869a.421.421,0,1,0,.421.421.422.422,0,0,0-.421-.421" transform="translate(-36.845 -65.202)" fill="#2d366e"/>
          <path id="Caminho_67" data-name="Caminho 67" d="M86,146.95a.435.435,0,1,1-.435-.435.434.434,0,0,1,.435.435" transform="translate(-38.108 -65.589)" fill="#2d366e"/>
          <path id="Caminho_68" data-name="Caminho 68" d="M85.551,147.387a.448.448,0,1,1,.448-.448.449.449,0,0,1-.448.448m0-.869a.421.421,0,1,0,.421.421.422.422,0,0,0-.421-.421" transform="translate(-38.097 -65.578)" fill="#2d366e"/>
          <path id="Caminho_69" data-name="Caminho 69" d="M52.977,127.583a.619.619,0,0,1-.15-.024l-.434-.1-1.661-.4-6.1-1.5c-5.151-1.264-12.258-3.052-20.14-4.877-.984-.236-1.962-.423-2.925-.684a6.414,6.414,0,0,1-2.637-1.316,7.685,7.685,0,0,1-1.613-2.34l-1.163-2.431-3.989-8.42L9.5,99.806c-.3-.66-.541-1.179-.713-1.553l-.18-.406a.6.6,0,0,1-.052-.143.634.634,0,0,1,.078.131l.2.394L9.6,99.76c.658,1.352,1.595,3.278,2.747,5.649l4.043,8.394,1.17,2.424a7.44,7.44,0,0,0,1.558,2.257,6.162,6.162,0,0,0,2.529,1.253c.941.255,1.929.444,2.913.679,7.887,1.827,14.986,3.645,20.126,4.958l6.079,1.587,1.648.448.427.123a.588.588,0,0,1,.143.051" transform="translate(-3.829 -43.738)" fill="#2d366e"/>
          <path id="Caminho_70" data-name="Caminho 70" d="M34.762,149.159c.01.016-.12.126-.368.31s-.61.443-1.069.75a17.188,17.188,0,0,1-3.831,1.991,8.743,8.743,0,0,1-4.294.431,5.718,5.718,0,0,1-1.265-.364,1.419,1.419,0,0,1-.425-.23,14.827,14.827,0,0,0,1.719.4,9.3,9.3,0,0,0,4.174-.5,20.487,20.487,0,0,0,3.817-1.9,13.18,13.18,0,0,1,1.542-.895" transform="translate(-10.525 -66.771)" fill="#2d366e"/>
          <path id="Caminho_71" data-name="Caminho 71" d="M35.876,154.751a.635.635,0,0,1,.077.2,4.641,4.641,0,0,1,.141.6,6.589,6.589,0,0,1-.022,2.259,6.9,6.9,0,0,1-1.384,3.05,6.835,6.835,0,0,1-7.518,2.1,6.9,6.9,0,0,1-2.764-1.89,6.6,6.6,0,0,1-1.188-1.92,4.469,4.469,0,0,1-.189-.585.643.643,0,0,1-.039-.21,8.161,8.161,0,0,0,1.561,2.584,6.883,6.883,0,0,0,2.705,1.782A6.68,6.68,0,0,0,34.49,160.7a6.877,6.877,0,0,0,1.39-2.926,8.134,8.134,0,0,0,0-3.019" transform="translate(-10.29 -69.275)" fill="#2d366e"/>
          <path id="Caminho_72" data-name="Caminho 72" d="M27.827,13.185l.07,19.843A5.9,5.9,0,1,0,39.7,32.977c-.007-1.494-.009-2.739,0-2.893,0,0,5.05-.493,5.4-5.494.167-2.417.108-7.422,0-11.95a9.337,9.337,0,0,0-8.806-9.1l-.483-.028c-5.223.008-8.136,4.449-7.984,9.67" transform="translate(-12.455 -1.574)" fill="#e3e3e3"/>
          <path id="Caminho_73" data-name="Caminho 73" d="M44.152,49.684a11.655,11.655,0,0,1-6.419-2.226s1.337,3.689,6.357,3.523Z" transform="translate(-16.891 -21.245)" fill="#a8a8a8"/>
          <path id="Caminho_74" data-name="Caminho 74" d="M25.379,27.591C25.3,27.549,22,26.378,21.913,29.8s3.373,2.806,3.381,2.708.085-4.922.085-4.922" transform="translate(-9.809 -12.25)" fill="#e3e3e3"/>
          <path id="Caminho_75" data-name="Caminho 75" d="M24.984,32.077c-.015-.012-.061.04-.163.084a.6.6,0,0,1-.447,0,1.478,1.478,0,0,1-.65-1.343,1.971,1.971,0,0,1,.188-.851.692.692,0,0,1,.461-.447.3.3,0,0,1,.348.173c.044.1.02.165.038.171s.075-.055.051-.2a.384.384,0,0,0-.13-.219.453.453,0,0,0-.328-.1.841.841,0,0,0-.637.516,2.022,2.022,0,0,0-.231.95,1.549,1.549,0,0,0,.834,1.5.643.643,0,0,0,.548-.077c.108-.082.128-.158.117-.165" transform="translate(-10.513 -13.138)" fill="#e3e3e3"/>
          <path id="Caminho_76" data-name="Caminho 76" d="M24.459,16.136a1.8,1.8,0,0,1,1.6.938c.194.5.212,1.058.406,1.559a1.211,1.211,0,0,0,1.2.878,1.054,1.054,0,0,0,.757-.74,2.9,2.9,0,0,0,.073-1.1c-.111-1.609-.356-3.212-.329-4.825a8.234,8.234,0,0,1,1.275-4.594,4.5,4.5,0,0,1,4.13-2.022c1.059.146,2,.756,3.05.964A4.185,4.185,0,0,0,40.16,6.23a1.806,1.806,0,0,1,.168-.12.925.925,0,0,0,.391-1.049.893.893,0,0,0-.183-.339C38.551,2.665,34.805,1.909,32,2.448a10,10,0,0,0-6.853,4.872c-1.339,2.526-1.191,6.155-.685,8.817" transform="translate(-10.786 -1.02)" fill="#263238"/>
          <path id="Caminho_77" data-name="Caminho 77" d="M131.012,83.515a42.458,42.458,0,0,1,4.464-3.539c.711-.242,6.36-.346,6.742-.064s6.1,3.42,5.154,3.9-4.915-1.766-4.915-1.766l-.667.088a27.622,27.622,0,0,1,4.077,2.56c.567.655.024,1.439-.622,1.138s-3.615-2.015-3.85-1.95,3.164,2.053,3.477,2.421c.421.495.149,1.453-.5,1.177-.384-.163-3.52-2.241-3.52-2.241a31.108,31.108,0,0,1,2.536,2.32c.277.534-.255,1.015-.8.68-.375-.23-1.986-1.814-2.489-2.121,0,0-.555-.039-1.37.829s-4.033,2.062-4.033,2.062Z" transform="translate(-58.648 -35.697)" fill="#fff"/>
          <path id="Caminho_78" data-name="Caminho 78" d="M154.253,85.507a2.984,2.984,0,0,1-1.213-.077,6.9,6.9,0,0,1-1.27-.38c-.447-.212-.93-.459-1.438-.717l-1.076-.557.071.017a17.349,17.349,0,0,1-2.9-.082,17.248,17.248,0,0,1,2.9-.206h.034l.037.018,1.072.54,1.413.732a8.406,8.406,0,0,0,1.21.428c.709.192,1.168.238,1.164.285" transform="translate(-65.546 -37.381)" fill="#fff"/>
          <path id="Caminho_79" data-name="Caminho 79" d="M134.471,86.735a1.322,1.322,0,0,1-1.211-.616l.31-.165a1.117,1.117,0,0,0,1.221.4,4.555,4.555,0,0,0,.814-.286,4.673,4.673,0,0,1,3.07-.311,5.472,5.472,0,0,0,2.363-.082c.155-.054.317-.159.305-.263-.009-.081-.121-.156-.331-.224l-5.048-1.607.107-.335,5.048,1.608c.145.047.532.171.572.517.031.268-.176.511-.54.636a5.8,5.8,0,0,1-2.514.1,5.852,5.852,0,0,0-2.254.044,5.688,5.688,0,0,0-.642.242,4.832,4.832,0,0,1-.878.305,1.889,1.889,0,0,1-.392.041" transform="translate(-59.655 -37.265)" fill="#e3e3e3"/>
          <path id="Caminho_80" data-name="Caminho 80" d="M134.488,86.806a1.544,1.544,0,0,1-.8-.192c-.346-.2-.519-.506-.457-.655l.06-.143.125.034a.256.256,0,0,1,.158.1.871.871,0,0,0,.329.247,1.625,1.625,0,0,0,1.306-.1c.1-.041.2-.086.3-.131a6.327,6.327,0,0,1,.727-.286,4.291,4.291,0,0,1,1.318-.157c.356,0,.713.039,1.09.078a8.083,8.083,0,0,0,1.7.054,2.976,2.976,0,0,0,.653-.143.433.433,0,0,0,.157-.092,1.519,1.519,0,0,0-.376-.155l-2.838-.943c-.627-.215-1.132-.393-1.479-.523-.548-.2-.7-.26-.633-.449s.213-.146.775,0c.357.1.873.242,1.507.43l2.859.871c.051.019.093.031.138.045a.994.994,0,0,1,.642.439.625.625,0,0,1-.1.709,1.09,1.09,0,0,1-.423.277,3.63,3.63,0,0,1-.81.181,8.427,8.427,0,0,1-1.891-.071c-.344-.039-.669-.076-.979-.082a3.683,3.683,0,0,0-1.139.106,5.679,5.679,0,0,0-.643.23c-.117.046-.232.093-.346.134a2.484,2.484,0,0,1-.932.188" transform="translate(-59.638 -37.254)" fill="#e3e3e3"/>
          <path id="Caminho_81" data-name="Caminho 81" d="M90.7,135.823l6.225-.617s8.233,5.638,7.443,6.879-2.143,0-2.143,0a1.367,1.367,0,0,1-.9,2.368s-.564,1.24-1.466,1.127l-.564.008s-.51,1.571-1.27,1.233a24.6,24.6,0,0,1-3.057-2.368l-6.386-.564Z" transform="translate(-39.655 -60.526)" fill="#c1bfbf"/>
          <path id="Caminho_82" data-name="Caminho 82" d="M97.657,147.864s-1.595.612-1.926,1.253-.524,2.149.5,2.424a9.118,9.118,0,0,0,1.811-.057l-.394-1.676a11.749,11.749,0,0,1,.951-.983c.34-.282-.032-1.385-.947-.961" transform="translate(-42.736 -66.149)" fill="#e3e3e3"/>
          <path id="Caminho_83" data-name="Caminho 83" d="M101,149.405s-1.595.612-1.926,1.253a1.408,1.408,0,0,0,.916,1.99,7.42,7.42,0,0,0,1.645-.056l-.167-.325c-.323-.629-.461-1.137.107-1.558.031-.023.349-.32.372-.343a.694.694,0,0,0-.947-.961" transform="translate(-44.289 -66.839)" fill="#e3e3e3"/>
          <path id="Caminho_84" data-name="Caminho 84" d="M103.173,153.668a.925.925,0,0,1-.13-1.1,1.515,1.515,0,0,1,.935-.682.7.7,0,0,1,.729.119.613.613,0,0,1,.1.479,2.509,2.509,0,0,1-.625,1.165c-.148.186-.331.389-.569.384s-.418-.228-.555-.429" transform="translate(-46.074 -67.974)" fill="#e3e3e3"/>
          <path id="Caminho_85" data-name="Caminho 85" d="M41.716,63.848l1.4-.53,1.214,2.168L43.654,67.8l-1.428.354L40.8,66.361Z" transform="translate(-18.266 -28.345)" fill="#dd5361"/>
          <path id="Caminho_86" data-name="Caminho 86" d="M43.38,71.786S45.191,81.75,46.7,88.759c0,0,1.238,5.834,1.74,7.18a19.706,19.706,0,0,0,2.282,3.748l1.754.678-1.072-9.848-6.6-19.085Z" transform="translate(-19.419 -31.978)" fill="#dd5361"/>
          <g id="Grupo_9" data-name="Grupo 9" transform="translate(22.537 34.973)" opacity="0.4">
            <g id="Grupo_8" data-name="Grupo 8">
              <g id="Grupo_7" data-name="Grupo 7" clip-path="url(#clip-path-3)">
                <path id="Caminho_87" data-name="Caminho 87" d="M41.716,63.848l1.4-.53,1.214,2.168L43.654,67.8l-1.428.354L40.8,66.361Z" transform="translate(-40.803 -63.318)" fill="#dd5361"/>
              </g>
            </g>
          </g>
          <g id="Grupo_12" data-name="Grupo 12" transform="translate(23.961 39.456)" opacity="0.4">
            <g id="Grupo_11" data-name="Grupo 11">
              <g id="Grupo_10" data-name="Grupo 10" clip-path="url(#clip-path-4)">
                <path id="Caminho_88" data-name="Caminho 88" d="M43.38,71.786S45.191,81.75,46.7,88.759c0,0,1.419,5.78,1.74,7.18a23.661,23.661,0,0,0,2.282,3.748l1.754.678-1.072-9.848-6.6-19.085Z" transform="translate(-43.38 -71.434)" fill="#dd5361"/>
              </g>
            </g>
          </g>
          <path id="Caminho_89" data-name="Caminho 89" d="M26.389,53.316l8.4,6.054-1.816,5-7.644-7.871Z" transform="translate(-11.339 -23.867)" fill="#2d366e"/>
          <path id="Caminho_90" data-name="Caminho 90" d="M44.99,59.074l2.348-5.237,1.328,4.32L46.822,62.7Z" transform="translate(-20.14 -24.1)" fill="#2d366e"/>
          <path id="Caminho_91" data-name="Caminho 91" d="M34.936,61.613a1.4,1.4,0,0,1-.094.384l-.34,1.044c-.3.891-.737,2.146-1.26,3.611l-.072.2-.146-.161-1.959-2.16c-1.522-1.689-2.888-3.228-3.866-4.352l-1.148-1.34a2.922,2.922,0,0,1-.393-.516,2.882,2.882,0,0,1,.473.444l1.213,1.281c1.016,1.089,2.4,2.608,3.927,4.3l1.945,2.172L33,66.564c.541-1.459,1.012-2.7,1.354-3.578l.41-1.019a1.424,1.424,0,0,1,.174-.355" transform="translate(-11.486 -26.11)" fill="#2d366e"/>
          <path id="Caminho_92" data-name="Caminho 92" d="M48.686,61.658a5.972,5.972,0,0,1-.392,1.225c-.275.743-.673,1.764-1.128,2.884l-.2.482-.138.338-.12-.344A23.517,23.517,0,0,0,45.036,62.8a3.564,3.564,0,0,1,.7.874,11.577,11.577,0,0,1,1.234,2.475l-.257-.006.195-.483c.455-1.12.882-2.129,1.2-2.853a5.915,5.915,0,0,1,.574-1.152" transform="translate(-20.159 -27.601)" fill="#2d366e"/>
          <path id="Caminho_93" data-name="Caminho 93" d="M237.622,347.139,240.862,360l5.5,9.431a1.358,1.358,0,0,1-1.815,1.881c-2.467-1.331-11.52-6.274-11.7-7.228-.214-1.1-4.318-13.336-4.318-13.336Z" transform="translate(-102.299 -155.399)" fill="#2d366e"/>
          <g id="Grupo_15" data-name="Grupo 15" transform="translate(130.301 207.819)" opacity="0.6">
            <g id="Grupo_14" data-name="Grupo 14">
              <g id="Grupo_13" data-name="Grupo 13" clip-path="url(#clip-path-5)">
                <path id="Caminho_94" data-name="Caminho 94" d="M249.092,384.361,235.9,376.25l.15.542a2.046,2.046,0,0,0,.821,1.149c1.075.729,4.088,2.678,10.934,6.411a1.357,1.357,0,0,0,1.282.009" transform="translate(-235.906 -376.25)" fill="#fff"/>
              </g>
            </g>
          </g>
          <g id="Grupo_18" data-name="Grupo 18" transform="translate(130.754 202.924)" opacity="0.6">
            <g id="Grupo_17" data-name="Grupo 17">
              <g id="Grupo_16" data-name="Grupo 16" clip-path="url(#clip-path-6)">
                <path id="Caminho_95" data-name="Caminho 95" d="M237.756,367.436a.822.822,0,0,1,.5.975.791.791,0,0,1-.962.507.868.868,0,0,1-.527-1.035.82.82,0,0,1,1.059-.417" transform="translate(-236.727 -367.389)" fill="#fff"/>
              </g>
            </g>
          </g>
          <path id="Caminho_96" data-name="Caminho 96" d="M251.666,380.622a2.931,2.931,0,0,1,2.239-1.992c0-.035-.187-.089-.5-.049a2.164,2.164,0,0,0-1.732,1.54c-.077.3-.044.5-.01.5" transform="translate(-112.643 -169.468)" fill="#263238"/>
          <path id="Caminho_97" data-name="Caminho 97" d="M254.188,383.766c.076.038.371-.491.98-.863a11.132,11.132,0,0,1,1.2-.506,1.508,1.508,0,0,0-1.358.26c-.692.428-.9,1.093-.826,1.109" transform="translate(-113.783 -171.153)" fill="#263238"/>
          <path id="Caminho_98" data-name="Caminho 98" d="M247.523,377.2a6.981,6.981,0,0,1,3.2-2.4,3.713,3.713,0,0,0-3.2,2.4" transform="translate(-110.802 -167.773)" fill="#263238"/>
          <path id="Caminho_99" data-name="Caminho 99" d="M245.152,371.284c.055.067.68-.423,1.589-.71s1.7-.268,1.7-.355a3.373,3.373,0,0,0-3.294,1.065" transform="translate(-109.742 -165.682)" fill="#263238"/>
          <path id="Caminho_100" data-name="Caminho 100" d="M243.257,364.516a4.318,4.318,0,0,1,3.447-.826c.014-.033-.17-.154-.512-.244a2.961,2.961,0,0,0-2.589.621c-.265.233-.373.425-.346.449" transform="translate(-108.894 -162.664)" fill="#263238"/>
          <path id="Caminho_101" data-name="Caminho 101" d="M243.936,360.712a1.14,1.14,0,0,0-.116-.488,3.486,3.486,0,0,0-.735-1.159,1.544,1.544,0,0,0-.835-.535.546.546,0,0,0-.561.282.886.886,0,0,0-.043.632,1.92,1.92,0,0,0,2.1,1.264,2.227,2.227,0,0,0,1.8-1.706.773.773,0,0,0-.136-.629.536.536,0,0,0-.616-.124,1.9,1.9,0,0,0-.721.671,3.886,3.886,0,0,0-.6,1.234,1.19,1.19,0,0,0-.075.5,6.2,6.2,0,0,1,.836-1.606,1.778,1.778,0,0,1,.643-.569.286.286,0,0,1,.336.066.529.529,0,0,1,.065.419,1.987,1.987,0,0,1-1.576,1.462,1.667,1.667,0,0,1-1.794-1.048.645.645,0,0,1,.011-.443.3.3,0,0,1,.307-.16,1.4,1.4,0,0,1,.716.44,5.156,5.156,0,0,1,1,1.5" transform="translate(-108.158 -160.352)" fill="#263238"/>
          <path id="Caminho_102" data-name="Caminho 102" d="M164.836,351.2l.687,9.91s-9.842,4.026-9.894,5.869l19.262-.641-.436-15.484Z" transform="translate(-69.668 -157.064)" fill="#2d366e"/>
          <path id="Caminho_103" data-name="Caminho 103" d="M183.529,367.533a.787.787,0,0,1,.574.88.757.757,0,0,1-.867.576.831.831,0,0,1-.6-.935.785.785,0,0,1,.968-.5" transform="translate(-81.747 -164.516)" fill="#e0e0e0"/>
          <path id="Caminho_104" data-name="Caminho 104" d="M174.882,377.628l-.1-1.559-18.428,1.2s-.845.4-.729,1Z" transform="translate(-69.66 -168.35)" fill="#e0e0e0"/>
          <path id="Caminho_105" data-name="Caminho 105" d="M172.969,369.187c.007.095.478.121.951.408s.732.674.817.634c.086-.021-.073-.579-.652-.916s-1.14-.211-1.117-.126" transform="translate(-77.431 -165.226)" fill="#263238"/>
          <path id="Caminho_106" data-name="Caminho 106" d="M169.363,370.867c-.019.092.394.239.727.626s.439.8.532.8c.089.012.135-.541-.287-1.015s-.973-.5-.972-.408" transform="translate(-75.816 -166.003)" fill="#263238"/>
          <path id="Caminho_107" data-name="Caminho 107" d="M166.778,374.052c.086.017.2-.457-.057-.964s-.705-.7-.742-.618.244.346.45.765.256.81.35.817" transform="translate(-74.299 -166.731)" fill="#263238"/>
          <path id="Caminho_108" data-name="Caminho 108" d="M173.138,364.847c.042.085.469-.059,1-.041s.953.172,1,.09-.363-.4-.991-.418-1.059.3-1.01.368" transform="translate(-77.505 -163.161)" fill="#263238"/>
          <path id="Caminho_109" data-name="Caminho 109" d="M172.957,360.2a1.81,1.81,0,0,0,.964-.036,4.4,4.4,0,0,0,1-.344,4.7,4.7,0,0,0,.544-.313,1.187,1.187,0,0,0,.284-.236.411.411,0,0,0,.027-.5.518.518,0,0,0-.42-.2,1.284,1.284,0,0,0-.36.062,3.491,3.491,0,0,0-.593.226,3.4,3.4,0,0,0-.87.614c-.433.429-.574.785-.541.8s.251-.272.695-.629a3.827,3.827,0,0,1,.844-.513,3.571,3.571,0,0,1,.548-.189c.2-.061.376-.067.431.021.02.034.023.048-.018.108a.968.968,0,0,1-.209.173,5.022,5.022,0,0,1-.5.308,5.315,5.315,0,0,1-.92.388,6.748,6.748,0,0,0-.906.261" transform="translate(-77.425 -160.515)" fill="#263238"/>
          <path id="Caminho_110" data-name="Caminho 110" d="M172.1,359.3a1.536,1.536,0,0,0,.224-.94,3.133,3.133,0,0,0-.167-1.052,3.168,3.168,0,0,0-.265-.578.8.8,0,0,0-.632-.467.451.451,0,0,0-.394.283,1.3,1.3,0,0,0-.087.356,2.171,2.171,0,0,0,.021.65,2.218,2.218,0,0,0,.445.983c.393.487.789.586.8.554.029-.049-.3-.219-.609-.689a2.217,2.217,0,0,1-.335-.9,1.99,1.99,0,0,1,0-.558c.023-.205.094-.373.172-.355.1,0,.264.144.348.3a3.221,3.221,0,0,1,.256.515,3.443,3.443,0,0,1,.219.957c.045.564-.043.92.008.932" transform="translate(-76.445 -159.483)" fill="#263238"/>
          <path id="Caminho_111" data-name="Caminho 111" d="M162.783,156.321l3.1,115.319,15.194-.456-1.167-98.975,19.362,101.727,13.723-3.582L195.277,156.541Z" transform="translate(-72.871 -69.978)" fill="#ca4f5a"/>
          <path id="Caminho_112" data-name="Caminho 112" d="M177.745,278.84c-.076,0-.139-23.9-.139-53.386s.062-53.391.139-53.391.139,23.9.139,53.391-.062,53.386-.139,53.386" transform="translate(-79.507 -77.025)" fill="#ca4f5a"/>
          <path id="Caminho_113" data-name="Caminho 113" d="M224.064,286.19c-.076.012-3.625-22.908-7.928-51.185s-7.729-51.219-7.653-51.231,3.624,22.9,7.928,51.19,7.728,51.215,7.653,51.226" transform="translate(-93.328 -82.268)" fill="#ca4f5a"/>
          <path id="Caminho_114" data-name="Caminho 114" d="M185.231,14.229a23.6,23.6,0,0,0,1.284-3.67A6.486,6.486,0,0,0,186.6,7.27a2.3,2.3,0,0,0-2.489-1.51A5.561,5.561,0,0,0,180.893,1.4,14.183,14.183,0,0,0,175.564.015a4.522,4.522,0,0,0-2,.251,2.556,2.556,0,0,0-1.2,1.295A4.411,4.411,0,0,0,168.45.933c-1.465.4-3.139,1.19-3.782,2.566a4.289,4.289,0,0,0-.116,3.25c.286.9,1.232,2.3,2.113,1.974" transform="translate(-73.547 0)" fill="#263238"/>
          <path id="Caminho_115" data-name="Caminho 115" d="M179.475,43.284h0a6.579,6.579,0,0,1-6.434-6.9c.092-1.842.177-3.326.177-3.326s-5.014-.651-5.2-5.643.391-16.48.391-16.48A17.357,17.357,0,0,1,185.9,12.687l.754.551-.467,23.6a6.578,6.578,0,0,1-6.714,6.447" transform="translate(-75.198 -4.183)" fill="#e3e3e3"/>
          <path id="Caminho_116" data-name="Caminho 116" d="M177.388,50.51a11.616,11.616,0,0,0,6.464-2.014,6.348,6.348,0,0,1-6.534,3.549Z" transform="translate(-79.377 -21.71)" fill="#a8a8a8"/>
          <path id="Caminho_117" data-name="Caminho 117" d="M200.855,25.635c.084-.039,3.406-1.1,3.382,2.315s-3.449,2.689-3.454,2.59.072-4.906.072-4.906" transform="translate(-89.882 -11.392)" fill="#e3e3e3"/>
          <path id="Caminho_118" data-name="Caminho 118" d="M202.685,30.15c.015-.012.059.042.16.088a.594.594,0,0,0,.445.013,1.472,1.472,0,0,0,.69-1.317,1.958,1.958,0,0,0-.161-.853.687.687,0,0,0-.444-.46.3.3,0,0,0-.353.161c-.046.1-.025.164-.043.17s-.073-.058-.044-.2a.376.376,0,0,1,.136-.213.448.448,0,0,1,.329-.085.837.837,0,0,1,.619.534,2.019,2.019,0,0,1,.2.953,1.545,1.545,0,0,1-.878,1.47.639.639,0,0,1-.544-.094c-.105-.085-.123-.161-.111-.167" transform="translate(-90.732 -12.289)" fill="#e3e3e3"/>
          <path id="Caminho_119" data-name="Caminho 119" d="M185.92,12.632a36.084,36.084,0,0,1,.115,4.5c-.033.217-.579.808-.623,1.022-.262,1.273-.773,1.828-1.557.542a11.445,11.445,0,0,1-.65-2.448l-1.024-4.588a7.988,7.988,0,0,1-3.774,1,3.883,3.883,0,0,1-3.292-1.833,4.028,4.028,0,0,1-6.228.977,1.682,1.682,0,0,1-2.212.53,2,2,0,0,1-.867-2.183c.314-1.227,1.6-1.921,2.808-2.308,4.714-1.517,9.993-.553,14.325,1.845a7.263,7.263,0,0,1,1.756,1.255c.5.521,1.192,1.13,1.232,1.851" transform="translate(-74.198 -3.184)" fill="#263238"/>
          <path id="Caminho_120" data-name="Caminho 120" d="M195.769,16.276a2.448,2.448,0,0,1,.775.124,2.636,2.636,0,0,1,.713.459c.242.211.485.49.776.762a2.505,2.505,0,0,0,.971.61,1.741,1.741,0,0,0,.946.013c.528-.148.738-.439.713-.457a5.432,5.432,0,0,1-.756.254,1.672,1.672,0,0,1-.82-.067,2.476,2.476,0,0,1-.854-.567c-.278-.259-.527-.535-.8-.754a2.446,2.446,0,0,0-.818-.448c-.536-.157-.867.048-.842.072" transform="translate(-87.637 -7.228)" fill="#455a64"/>
          <path id="Caminho_121" data-name="Caminho 121" d="M196.825,19.031a1.533,1.533,0,0,1,.541.241,2.767,2.767,0,0,1,.435.493,2.327,2.327,0,0,0,2.2.934c.41-.062.625-.214.61-.244s-.25.033-.627.038a2.565,2.565,0,0,1-1.384-.372c-.487-.276-.731-.794-1.121-1.02s-.684-.1-.658-.07" transform="translate(-88.109 -8.489)" fill="#455a64"/>
          <path id="Caminho_122" data-name="Caminho 122" d="M171.388,1.49c0-.015-.161-.041-.438.041a1.909,1.909,0,0,0-.963.724,4.575,4.575,0,0,0-.279,3.85,5.422,5.422,0,0,0,2.446,3.008,4.808,4.808,0,0,0,1.094.467,1.05,1.05,0,0,0,.43.072,14.165,14.165,0,0,1-1.415-.715,5.535,5.535,0,0,1-2.276-2.923,4.6,4.6,0,0,1,.172-3.642,1.958,1.958,0,0,1,.831-.732c.246-.109.4-.124.4-.148" transform="translate(-75.845 -0.66)" fill="#455a64"/>
          <path id="Caminho_123" data-name="Caminho 123" d="M165.467,5.256a2.176,2.176,0,0,0,.043.962,5.953,5.953,0,0,0,2.529,3.8,2.172,2.172,0,0,0,.871.411,9.711,9.711,0,0,1-2.271-2.223,9.7,9.7,0,0,1-1.172-2.954" transform="translate(-74.059 -2.353)" fill="#455a64"/>
          <path id="Caminho_124" data-name="Caminho 124" d="M108.38,131.249l-7.307.37a1.726,1.726,0,0,0-1.64,1.756c.034,1.669.317,3.955,1.617,3.738l.832-3.638,6.064,5.35a4.388,4.388,0,0,0,2.185,1.07l1.425-.147Z" transform="translate(-44.512 -58.755)" fill="#e3e3e3"/>
          <path id="Caminho_125" data-name="Caminho 125" d="M174.261,59.315l-3.819,1.262-1.895,31.714V120.42l23.446,2.6.272-40.567-1.515-20.19-3.581-4.28Z" transform="translate(-75.451 -25.955)" fill="#f5f5f5"/>
          <path id="Caminho_126" data-name="Caminho 126" d="M176.765,59.083V56.01L190.7,54.07l-.56,7.08-3.2,5.55-5.232.292-3.781-2.335Z" transform="translate(-79.13 -24.205)" fill="#f5f5f5"/>
          <path id="Caminho_127" data-name="Caminho 127" d="M178.95,60.229a3.643,3.643,0,0,1-.079-1.4,3.653,3.653,0,0,1,.2-1.392,3.657,3.657,0,0,1,.078,1.4,3.662,3.662,0,0,1-.2,1.392" transform="translate(-80.067 -25.71)" fill="#f5f5f5"/>
          <path id="Caminho_128" data-name="Caminho 128" d="M185.274,59.505a4.513,4.513,0,0,1-.047-1.57,4.523,4.523,0,0,1,.23-1.554,4.547,4.547,0,0,1,.047,1.57,4.532,4.532,0,0,1-.23,1.554" transform="translate(-82.906 -25.24)" fill="#f5f5f5"/>
          <path id="Caminho_129" data-name="Caminho 129" d="M191.384,58.723a5.064,5.064,0,0,1-.017-1.66,5.039,5.039,0,0,1,.26-1.64,5.064,5.064,0,0,1,.017,1.66,5.055,5.055,0,0,1-.26,1.64" transform="translate(-85.646 -24.81)" fill="#f5f5f5"/>
          <path id="Caminho_130" data-name="Caminho 130" d="M197.185,57.9a3.823,3.823,0,0,1-.122-1.573,3.82,3.82,0,0,1,.265-1.555,5.629,5.629,0,0,1,.012,1.568,5.63,5.63,0,0,1-.155,1.56" transform="translate(-88.212 -24.52)" fill="#f5f5f5"/>
          <path id="Caminho_131" data-name="Caminho 131" d="M188.7,84.707a2.129,2.129,0,0,1-.184.521c-.135.329-.345.8-.616,1.371-.542,1.147-1.349,2.7-2.338,4.371s-1.975,3.117-2.724,4.142c-.374.513-.685.92-.91,1.2a2.078,2.078,0,0,1-.37.411A18.894,18.894,0,0,1,182.679,95c.706-1.051,1.66-2.514,2.646-4.172s1.815-3.2,2.4-4.317a18.623,18.623,0,0,1,.976-1.8" transform="translate(-81.276 -37.919)" fill="#f5f5f5"/>
          <path id="Caminho_132" data-name="Caminho 132" d="M200.232,57.085l3.783,1.822,7.3,1.786a6.085,6.085,0,0,1,4.994,6.769l-3.824,29.825,4.565,28.915-18.1-.539-1.062-10.756V85.086Z" transform="translate(-88.585 -25.555)" fill="#2d366e"/>
          <path id="Caminho_133" data-name="Caminho 133" d="M197.884,92.361a1.892,1.892,0,0,1,.054-.37c.052-.267.12-.615.205-1.048.2-.94.471-2.245.806-3.844.713-3.268,1.687-7.73,2.763-12.66l.878-3.95.034.123L201.371,69.3l-.07-.073.051-.086,2.107-3.5-.007.1-2.319-5.623-.63-1.576a3.808,3.808,0,0,1-.2-.566,3.9,3.9,0,0,1,.265.539l.689,1.55,2.41,5.585.023.053-.03.052-2.081,3.518-.018-.159,1.26,1.307.05.052-.015.071c-.28,1.269-.572,2.592-.872,3.95-1.107,4.923-2.109,9.379-2.843,12.643-.371,1.591-.674,2.89-.892,3.825-.106.429-.192.773-.257,1.037a1.884,1.884,0,0,1-.108.357" transform="translate(-88.583 -25.955)" fill="#2d366e"/>
          <path id="Caminho_134" data-name="Caminho 134" d="M116.192,98.934,132.21,90l7.762-20.932a11.239,11.239,0,0,1,6.213-6.467l2.061-.859.009,55.114.413,13.056-8.68-2.6,4.426-26.241-1.529-12.917-1.521,6.249a8.486,8.486,0,0,1-3.954,5.315l-16.675,8.661Z" transform="translate(-52.014 -27.641)" fill="#2d366e"/>
          <path id="Caminho_135" data-name="Caminho 135" d="M115.452,129.807l-1.348.4,3.792,9.04,1.767-.685Z" transform="translate(-51.08 -58.109)" fill="#2d366e"/>
          <path id="Caminho_136" data-name="Caminho 136" d="M148.031,116.726a7.433,7.433,0,0,0-2.971-3.578,4.484,4.484,0,0,1,2.971,3.578" transform="translate(-64.937 -50.648)" fill="#2d366e"/>
          <path id="Caminho_137" data-name="Caminho 137" d="M119.422,129.214c.017.036-.079.108-.088.263a.239.239,0,1,0,.413-.122c-.092-.125-.212-.133-.217-.173s.149-.119.352.031a.474.474,0,1,1-.739.218c.09-.237.278-.253.279-.218" transform="translate(-53.323 -57.805)" fill="#2d366e"/>
          <path id="Caminho_138" data-name="Caminho 138" d="M121.762,128.227c.017.036-.079.108-.088.263a.239.239,0,1,0,.413-.122c-.092-.125-.212-.134-.217-.174s.149-.119.352.032a.474.474,0,1,1-.739.218c.089-.238.278-.253.279-.218" transform="translate(-54.37 -57.364)" fill="#2d366e"/>
          <path id="Caminho_139" data-name="Caminho 139" d="M172.222,94.9a1.616,1.616,0,0,1-.07-.34L172,93.575c-.121-.888-.288-2.115-.492-3.617-.392-3.088-.926-7.3-1.517-11.949-.082-.66-.162-1.312-.24-1.953l0-.035.013-.032,1.17-2.975,0,.1-1.156-2.639-.018-.04.012-.041,1.735-6.274.508-1.76a4.141,4.141,0,0,1,.2-.617,4.233,4.233,0,0,1-.131.637l-.442,1.778c-.405,1.558-.969,3.724-1.638,6.3L170,70.378l1.174,2.631.022.05-.02.052c-.372.953-.759,1.95-1.16,2.978l.009-.067c.079.64.16,1.292.242,1.952l1.436,11.959c.168,1.506.3,2.737.4,3.628.039.405.071.734.1.988a1.684,1.684,0,0,1,.014.347" transform="translate(-75.99 -27.641)" fill="#2d366e"/>
          <path id="Caminho_140" data-name="Caminho 140" d="M164.431,112.282a.98.98,0,0,1-.055-.261c-.028-.2-.062-.452-.1-.753-.086-.7-.2-1.635-.341-2.773-.283-2.342-.682-5.576-1.16-9.143s-.949-6.793-1.294-9.127c-.165-1.135-.3-2.07-.4-2.764-.039-.3-.072-.55-.1-.755a.966.966,0,0,1-.015-.266.984.984,0,0,1,.071.257l.15.745c.125.648.293,1.589.489,2.752.394,2.327.895,5.55,1.375,9.12s.846,6.81,1.08,9.158c.117,1.174.2,2.126.254,2.784.02.3.038.553.052.758a.975.975,0,0,1,0,.266" transform="translate(-72.053 -38.695)" fill="#2d366e"/>
          <path id="Caminho_141" data-name="Caminho 141" d="M163.236,160.518a2.577,2.577,0,0,0,.371.448,1.69,1.69,0,0,0,1.462.327,2.482,2.482,0,0,0,1.585-1.559,9.725,9.725,0,0,0,.447-2.865,6.571,6.571,0,0,0-.3-2.856,5.225,5.225,0,0,0-1.452-1.835,6.8,6.8,0,0,1-1.109-1.207,1.464,1.464,0,0,1-.262-.544c.022-.01.115.182.349.481a8.276,8.276,0,0,0,1.152,1.125,5.2,5.2,0,0,1,1.557,1.882,6.6,6.6,0,0,1,.337,2.97,9.474,9.474,0,0,1-.488,2.946,2.654,2.654,0,0,1-1.779,1.653,1.763,1.763,0,0,1-1.578-.439,1.265,1.265,0,0,1-.259-.374c-.036-.1-.048-.15-.039-.154" transform="translate(-73.072 -67.34)" fill="#2d366e"/>
          <path id="Caminho_142" data-name="Caminho 142" d="M152.464,125.841s.517-6.107,5.367-6.672a7.165,7.165,0,0,1-5.367,6.672" transform="translate(-68.252 -53.347)" fill="#2d366e"/>
          <path id="Caminho_143" data-name="Caminho 143" d="M199.4,154.12c.318.212,14.083,9.213,14.083,9.213l1.588-1.271.751-20.648-13.411-10.165-1.845.635Z" transform="translate(-89.262 -58.755)" fill="#ff4f5b"/>
          <path id="Caminho_144" data-name="Caminho 144" d="M202.626,131.779l.55,22.347h-2.959l.991-21.9Z" transform="translate(-89.628 -58.992)" fill="#e0e0e0"/>
          <path id="Caminho_145" data-name="Caminho 145" d="M209.6,173.3a1.732,1.732,0,0,0,1.589,1.08c.039,0,.078.033.116.1a1.574,1.574,0,0,0,1.339.833,2.893,2.893,0,0,0,1.51-.436c.736-.449,2.047-3.388,2.047-3.388l3.106-6.918-5.223-1.412-6.635,2.069c0,.12-1.553,6.4-1.553,6.4a1.6,1.6,0,0,0,1.864-.988,17.025,17.025,0,0,1,1.171-2.192l.494,2.827-1.887.646a1.253,1.253,0,0,0,.808,1.434Z" transform="translate(-92.17 -73.04)" fill="#e3e3e3"/>
          <path id="Caminho_146" data-name="Caminho 146" d="M216.842,82.483l8.7,16.006-7.077,21.01,7.87,4.43,10-23.369a6.632,6.632,0,0,0-.085-5.409L223.977,68.8Z" transform="translate(-97.071 -30.797)" fill="#2d366e"/>
          <path id="Caminho_147" data-name="Caminho 147" d="M219.178,160.592l-.735,1.628,7.425,4,.778-1.424Z" transform="translate(-97.788 -71.89)" fill="#e0e0e0"/>
          <path id="Caminho_148" data-name="Caminho 148" d="M216.46,119.017a.375.375,0,0,1,.023-.108c.024-.083.055-.185.092-.309l.376-1.189L218.4,113l5.013-15.032.012.112c-1.012-1.719-2.051-3.536-3.1-5.411-1.916-3.425-3.677-6.724-5.183-9.774-.743-1.531-1.437-2.991-2.023-4.388a8.782,8.782,0,0,1-.725-4.148,9.59,9.59,0,0,1,.777-3.394,6.638,6.638,0,0,1,1.535-2.132,5.242,5.242,0,0,1,1.385-.916,2.806,2.806,0,0,1,.546-.194,6.105,6.105,0,0,0-1.858,1.188,6.657,6.657,0,0,0-1.467,2.118,9.541,9.541,0,0,0-.722,3.339,8.641,8.641,0,0,0,.741,4.048c.593,1.387,1.293,2.841,2.041,4.365,1.516,3.038,3.283,6.33,5.2,9.752,1.049,1.874,2.087,3.691,3.093,5.409l.032.054-.02.058-5.1,15c-.642,1.854-1.158,3.342-1.521,4.389l-.42,1.174-.114.3a.412.412,0,0,1-.046.1" transform="translate(-95.069 -30.315)" fill="#263238"/>
          <path id="Caminho_149" data-name="Caminho 149" d="M238.437,121.561a6.243,6.243,0,0,1-.857-.3,6.1,6.1,0,0,0-4.221.131,6.28,6.28,0,0,1-.837.356,2.038,2.038,0,0,1,.756-.534,5.286,5.286,0,0,1,4.372-.136,2.038,2.038,0,0,1,.788.486" transform="translate(-104.09 -54.017)" fill="#263238"/>
          <path id="Caminho_150" data-name="Caminho 150" d="M213.694,86.681l6.249,20.908.882-6.875Z" transform="translate(-95.661 -38.803)" fill="#263238"/>
          <path id="Caminho_151" data-name="Caminho 151" d="M232.133,160.98c.017.036-.079.108-.09.263a.24.24,0,1,0,.413-.122c-.092-.125-.211-.134-.216-.174s.149-.119.352.032a.474.474,0,1,1-.739.218c.089-.238.278-.253.279-.218" transform="translate(-103.779 -72.025)" fill="#263238"/>
          <path id="Caminho_152" data-name="Caminho 152" d="M233.27,158.255c.017.036-.079.108-.088.263a.239.239,0,1,0,.413-.122c-.092-.125-.212-.134-.217-.174s.148-.119.352.032a.474.474,0,1,1-.739.218c.09-.238.278-.253.279-.218" transform="translate(-104.288 -70.806)" fill="#263238"/>
          <path id="Caminho_153" data-name="Caminho 153" d="M248.008,110.106a3.006,3.006,0,0,0-1.149,2.911,24.662,24.662,0,0,1,.465,3.12,12.839,12.839,0,0,1-.4,2.217,3.825,3.825,0,0,0,.067,2.221,1.709,1.709,0,0,0,1.763,1.115l.738-1.492a8.213,8.213,0,0,0-.1-7.486Z" transform="translate(-110.479 -49.29)" fill="#263238"/>
        </g>
      </g>
    </g>
  </g>
</svg>
