<svg id="Componente_4_1" data-name="Componente 4 – 1" xmlns="http://www.w3.org/2000/svg" xmlns:xlink="http://www.w3.org/1999/xlink" width="324.5" height="255" viewBox="0 0 324.5 255">
  <defs>
    <clipPath id="clip-path">
      <rect id="Retângulo_88" data-name="Retângulo 88" width="135.258" height="231.711" fill="none"/>
    </clipPath>
    <clipPath id="clip-path-3">
      <path id="Caminho_510" data-name="Caminho 510" d="M59.449,12.667l-.305,69.759a2.519,2.519,0,0,0,2.507,2.529L93.9,85.1a2.518,2.518,0,0,0,2.529-2.506l.3-69.759A2.517,2.517,0,0,0,94.224,10.3l-32.247-.141h-.011a2.517,2.517,0,0,0-2.517,2.506" transform="translate(-59.144 -10.161)" fill="none"/>
    </clipPath>
    <clipPath id="clip-path-5">
      <rect id="Retângulo_86" data-name="Retângulo 86" width="70.095" height="16.061" fill="none"/>
    </clipPath>
    <clipPath id="clip-path-6">
      <rect id="Retângulo_96" data-name="Retângulo 96" width="101.334" height="126.908" fill="none"/>
    </clipPath>
    <clipPath id="clip-path-8">
      <rect id="Retângulo_89" data-name="Retângulo 89" width="45.749" height="99.154" fill="none"/>
    </clipPath>
    <clipPath id="clip-path-9">
      <rect id="Retângulo_90" data-name="Retângulo 90" width="39.08" height="93.213" fill="none"/>
    </clipPath>
    <clipPath id="clip-path-10">
      <rect id="Retângulo_91" data-name="Retângulo 91" width="48.799" height="33.784" fill="none"/>
    </clipPath>
  </defs>
  <g id="Elipse_7" data-name="Elipse 7" fill="#fff" stroke="#e95362" stroke-width="3">
    <circle cx="127.5" cy="127.5" r="127.5" stroke="none"/>
    <circle cx="127.5" cy="127.5" r="126" fill="none"/>
  </g>
  <g id="Grupo_134" data-name="Grupo 134" transform="translate(189.241 21.806)">
    <g id="Grupo_133" data-name="Grupo 133" clip-path="url(#clip-path)">
      <g id="Grupo_125" data-name="Grupo 125">
        <g id="Grupo_124" data-name="Grupo 124" clip-path="url(#clip-path)">
          <path id="Caminho_498" data-name="Caminho 498" d="M103,121.342c-5.993-9.922-45.733.891-44.385,4.384,6.5,16.862,11.6,22.54,22.035,27.622,6.959-.65,16.033-2.288,22.02-8.12.039-3.772,2.562-20.191.33-23.886" transform="translate(-25.715 -51.471)" fill="#e3e3e3"/>
          <path id="Caminho_499" data-name="Caminho 499" d="M64.377,68.309C60.482,65.34,44.234,53.68,39.64,54.021c-2.627.2-4.057,2.187-3.352,4.5.628,2.06,2.522,3.744,4.15,5.317,3.183,3.079,7.587,5.5,10.514,8.309,1.573,1.511,5.188,5.771,7.259,6.662,3.227,1.388,10.248-7.385,6.166-10.5" transform="translate(-15.851 -23.711)" fill="#e3e3e3"/>
          <path id="Caminho_500" data-name="Caminho 500" d="M157.962,246.706c-9.343-24.65-30.88-67.061-37.87-83.462-9.65-1.747-19.825,2.5-22.174,10.121,4.37,19.882,23.817,65.107,29.434,91.2,12.218-6.769,22.166-7.558,30.61-17.862" transform="translate(-42.983 -71.489)" fill="#e3e3e3"/>
          <path id="Caminho_501" data-name="Caminho 501" d="M91.22,92.261l-31.426-.137a5.741,5.741,0,0,1-5.716-5.766l.335-76.636A5.741,5.741,0,0,1,60.179,4L91.6,4.142a5.742,5.742,0,0,1,5.716,5.767l-.334,76.636a5.742,5.742,0,0,1-5.767,5.716" transform="translate(-23.739 -1.758)" fill="#1d2769"/>
          <path id="Caminho_502" data-name="Caminho 502" d="M91.238,88.256l-31.426-.137A5.741,5.741,0,0,1,54.1,82.352l.335-76.636A5.741,5.741,0,0,1,60.2,0L91.623.137A5.742,5.742,0,0,1,97.339,5.9L97,82.54a5.741,5.741,0,0,1-5.766,5.716" transform="translate(-23.747 0)" fill="#2d366e"/>
          <path id="Caminho_503" data-name="Caminho 503" d="M96.026,7.034l-5.417-.024a.713.713,0,0,1,.006-1.426l5.417.024a.713.713,0,0,1-.006,1.426" transform="translate(-39.464 -2.452)" fill="#1d2769"/>
          <path id="Caminho_504" data-name="Caminho 504" d="M85.227,6.274a.713.713,0,1,1-.71-.716.713.713,0,0,1,.71.716" transform="translate(-36.787 -2.44)" fill="#1d2769"/>
          <path id="Caminho_505" data-name="Caminho 505" d="M92.8,147.37a2.193,2.193,0,1,1-2.184-2.2,2.194,2.194,0,0,1,2.184,2.2" transform="translate(-38.814 -63.725)" fill="#1d2769"/>
        </g>
      </g>
      <g id="Grupo_127" data-name="Grupo 127" transform="translate(33.181 5.701)">
        <g id="Grupo_126" data-name="Grupo 126" clip-path="url(#clip-path-3)">
          <rect id="Retângulo_84" data-name="Retângulo 84" width="75.914" height="42.657" transform="translate(-2.51 77.49) rotate(-89.78)" fill="#c1c9e7"/>
          <rect id="Retângulo_85" data-name="Retângulo 85" width="36.891" height="42.657" transform="translate(-2.464 65.644) rotate(-89.78)" fill="#fff"/>
          <path id="Caminho_506" data-name="Caminho 506" d="M63.326,46.4a.753.753,0,0,1,.091-1.5l32.624.126a.753.753,0,0,1-.006,1.506L63.412,46.4a.847.847,0,0,1-.086-.006" transform="translate(-60.688 -25.409)" fill="#98a4d1"/>
          <path id="Caminho_507" data-name="Caminho 507" d="M63.3,54a.753.753,0,0,1,.091-1.5l32.624.126a.753.753,0,1,1-.006,1.506l-32.624-.125A.72.72,0,0,1,63.3,54" transform="translate(-60.676 -28.746)" fill="#98a4d1"/>
          <path id="Caminho_508" data-name="Caminho 508" d="M67.941,132.8a2.886,2.886,0,1,1-2.875-2.9,2.887,2.887,0,0,1,2.875,2.9" transform="translate(-60.472 -62.724)" fill="#98a4d1"/>
          <path id="Caminho_509" data-name="Caminho 509" d="M77.148,135.02a.753.753,0,0,1,.091-1.5l24.594.095a.753.753,0,0,1-.006,1.506l-24.594-.095a.858.858,0,0,1-.086-.006" transform="translate(-66.756 -64.312)" fill="#98a4d1"/>
        </g>
      </g>
      <g id="Grupo_132" data-name="Grupo 132">
        <g id="Grupo_131" data-name="Grupo 131" clip-path="url(#clip-path)">
          <path id="Caminho_511" data-name="Caminho 511" d="M104.781,130.893c-2.394-1.366,1.151-13.416,13.687-24.116-1.038-6.121.214-22.385,6.47-21.9,3,.231,4.482,23.5,4.482,23.5a201.184,201.184,0,0,1-6.777,22.634s-15.779-3.723-17.862-.117" transform="translate(-45.689 -37.253)" fill="#e3e3e3"/>
          <path id="Caminho_512" data-name="Caminho 512" d="M118.3,124.163a59.955,59.955,0,0,0-5.19,4.765,36.618,36.618,0,0,0-4.247,5.432,38.848,38.848,0,0,0-3.15,6.143c-.874,2.152-1.578,4.387-2.275,6.678a25.228,25.228,0,0,1,1-7.118,24.889,24.889,0,0,1,2.967-6.634,24.17,24.17,0,0,1,4.783-5.48,23.258,23.258,0,0,1,6.115-3.787" transform="translate(-45.408 -54.505)" fill="#e3e3e3"/>
          <path id="Caminho_513" data-name="Caminho 513" d="M175.919,270.528c-18.123-32.069-36.305-69.334-49.58-90.548-12.358.854-22.4,4.247-33.713,12.257,8.168,27.2,25.191,83.852,37.652,118.481,18.281-11.153,33.788-24.822,45.641-40.189" transform="translate(-40.661 -79.007)" fill="#2d366e"/>
          <path id="Caminho_514" data-name="Caminho 514" d="M149.237,179.98q-2.273.157-4.448.433a370.031,370.031,0,0,1,22.292,64.436,381.779,381.779,0,0,1,8.951,49.405,156.9,156.9,0,0,0,22.786-23.726c-18.123-32.069-36.305-69.334-49.58-90.548" transform="translate(-63.559 -79.007)" fill="#2d366e"/>
          <path id="Caminho_515" data-name="Caminho 515" d="M54.313,124.8c-1.6-.461-3.17-.41-4.063.428-1.628,1.527-1.472,5.186.249,6.758a5.5,5.5,0,0,0,2.5,1.2c1.774.435,3.928.539,5.4-.885,3.352-3.248-1.806-6.847-4.087-7.5" transform="translate(-21.56 -54.657)" fill="#e3e3e3"/>
          <path id="Caminho_516" data-name="Caminho 516" d="M56.882,114.1c3.827-3.707-2.061-7.816-4.665-8.565-1.826-.526-3.619-.468-4.639.489-1.858,1.743-1.681,5.92.283,7.715a6.269,6.269,0,0,0,2.858,1.372c2.025.5,4.484.615,6.162-1.01" transform="translate(-20.316 -46.184)" fill="#e3e3e3"/>
          <path id="Caminho_517" data-name="Caminho 517" d="M49.679,95.419a6.138,6.138,0,0,0,2.8,1.344c1.983.486,4.389.6,6.033-.989,3.746-3.629-2.017-7.651-4.567-8.385-1.787-.514-3.542-.458-4.541.479-1.819,1.706-1.645,5.8.278,7.552" transform="translate(-21.129 -38.22)" fill="#e3e3e3"/>
          <g id="Grupo_130" data-name="Grupo 130" transform="translate(0 16.637)" opacity="0.2">
            <g id="Grupo_129" data-name="Grupo 129">
              <g id="Grupo_128" data-name="Grupo 128" clip-path="url(#clip-path-5)">
                <path id="Caminho_518" data-name="Caminho 518" d="M62.138,45.715,7.9,45.507a7.926,7.926,0,0,1,.061-15.853l54.242.209a7.926,7.926,0,1,1-.061,15.853" transform="translate(0 -29.654)" fill="#000a49"/>
              </g>
            </g>
          </g>
          <path id="Caminho_519" data-name="Caminho 519" d="M62.138,37.074,7.9,36.866a7.926,7.926,0,0,1,.061-15.853l54.242.209a7.926,7.926,0,1,1-.061,15.853" transform="translate(0 -9.224)" fill="#fff"/>
          <path id="Caminho_520" data-name="Caminho 520" d="M34.992,29.6a.622.622,0,0,1,.075-1.239l41.653.16a.622.622,0,1,1,0,1.243l-41.653-.16c-.024,0-.048,0-.071,0" transform="translate(-15.12 -12.452)" fill="#2b459c"/>
          <path id="Caminho_521" data-name="Caminho 521" d="M64.336,35.4a.622.622,0,0,1,.075-1.239l25.179.1a.622.622,0,0,1,0,1.244l-25.178-.1a.583.583,0,0,1-.071,0" transform="translate(-28.001 -14.995)" fill="#2b459c"/>
          <path id="Caminho_522" data-name="Caminho 522" d="M34.97,35.283a.622.622,0,0,1,.075-1.239l13.133.05a.622.622,0,0,1,0,1.244l-13.133-.05c-.024,0-.048,0-.071,0" transform="translate(-15.11 -14.945)" fill="#2b459c"/>
          <path id="Caminho_523" data-name="Caminho 523" d="M34.948,40.963a.622.622,0,0,1,.076-1.239l30.306.117a.622.622,0,1,1,0,1.244l-30.307-.117-.071,0" transform="translate(-15.1 -17.438)" fill="#2b459c"/>
          <path id="Caminho_524" data-name="Caminho 524" d="M17.616,30.377,14.382,29.9l-1.435-2.936L11.49,29.884l-3.237.458,2.332,2.291-.565,3.219,2.9-1.51,2.888,1.532-.54-3.224Z" transform="translate(-3.623 -11.834)" fill="#dd5361"/>
        </g>
      </g>
    </g>
  </g>
  <g id="Grupo_156" data-name="Grupo 156" transform="translate(123.225 77.578)">
    <g id="Grupo_155" data-name="Grupo 155" clip-path="url(#clip-path-6)">
      <g id="Grupo_154" data-name="Grupo 154">
        <g id="Grupo_153" data-name="Grupo 153" clip-path="url(#clip-path-6)">
          <path id="Caminho_525" data-name="Caminho 525" d="M98.442,107.663,55.981,129.407a5.08,5.08,0,0,1-6.838-2.207L.56,32.325a5.081,5.081,0,0,1,2.207-6.839L5.43,24.122,45.25,7.569c2.5-1.279,2.916-2.443,4.195.055l51.2,93.2a5.081,5.081,0,0,1-2.207,6.839" transform="translate(0 -3.058)" fill="#2d366e"/>
          <path id="Caminho_526" data-name="Caminho 526" d="M102.594,104.44,63.485,124.467a4.718,4.718,0,0,1-6.35-2.049L8.221,26.9a4.719,4.719,0,0,1,2.049-6.35L49.38.519a4.718,4.718,0,0,1,6.35,2.049L104.643,98.09a4.718,4.718,0,0,1-2.049,6.35" transform="translate(-3.829 0)" fill="#e3e3e3"/>
          <path id="Caminho_527" data-name="Caminho 527" d="M50.4,27.437a.726.726,0,0,1-.589-1.324l9.242-4.743a.726.726,0,1,1,.663,1.291L50.47,27.4c-.024.012-.049.023-.074.033" transform="translate(-24.567 -10.585)" fill="#1c3e59"/>
          <path id="Caminho_528" data-name="Caminho 528" d="M39.916,37.165a1.089,1.089,0,0,0,0-2.178,1.089,1.089,0,0,0,0,2.178" transform="translate(-19.323 -17.395)" fill="#1c3e59"/>
          <path id="Caminho_529" data-name="Caminho 529" d="M103.195,100.208,60.928,121.852a.726.726,0,0,1-.976-.315l-4.7-9.183-37.7-73.622a.726.726,0,0,1,.315-.977L60.131,16.112a.725.725,0,0,1,.976.315L91.277,75.341l12.233,23.89a.726.726,0,0,1-.315.977" transform="translate(-8.686 -7.971)" fill="#f7d6dc"/>
          <path id="Caminho_530" data-name="Caminho 530" d="M92.606,171l4.7,9.183a.725.725,0,0,0,.976.315l42.267-21.644a.726.726,0,0,0,.315-.977l-12.233-23.889s-6.069,3.72-9.035,15.882C115.542,166.508,92.606,171,92.606,171" transform="translate(-46.043 -66.618)" fill="#f7d6dc"/>
          <g id="Grupo_137" data-name="Grupo 137" transform="translate(21.47 15.247)" opacity="0.22">
            <g id="Grupo_136" data-name="Grupo 136">
              <g id="Grupo_135" data-name="Grupo 135" clip-path="url(#clip-path-8)">
                <path id="Caminho_531" data-name="Caminho 531" d="M42.7,38.192l30.071,91.285,15.679-8.3L58.8,30.323Z" transform="translate(-42.7 -30.323)" fill="#fff"/>
              </g>
            </g>
          </g>
          <g id="Grupo_140" data-name="Grupo 140" transform="translate(42.009 9.754)" opacity="0.22">
            <g id="Grupo_139" data-name="Grupo 139">
              <g id="Grupo_138" data-name="Grupo 138" clip-path="url(#clip-path-9)">
                <path id="Caminho_532" data-name="Caminho 532" d="M83.549,22.618,115.1,112.612l7.533-3.858L90.785,19.4Z" transform="translate(-83.549 -19.399)" fill="#fff"/>
              </g>
            </g>
          </g>
          <path id="Caminho_533" data-name="Caminho 533" d="M152.941,211.5a3.9,3.9,0,1,0-3.9,3.9,3.9,3.9,0,0,0,3.9-3.9" transform="translate(-72.161 -103.216)" fill="#2d366e"/>
          <g id="Grupo_143" data-name="Grupo 143" transform="translate(10.35 16.368)" opacity="0.18">
            <g id="Grupo_142" data-name="Grupo 142">
              <g id="Grupo_141" data-name="Grupo 141" clip-path="url(#clip-path-10)">
                <path id="Caminho_534" data-name="Caminho 534" d="M68.766,44.936,27.425,66.106c-.383.2-.73.284-.774.2L20.589,54.466c-.045-.087.23-.316.613-.512l41.341-21.17c.383-.2.729-.285.774-.2l6.061,11.837c.045.087-.229.317-.612.513" transform="translate(-20.585 -32.553)"/>
              </g>
            </g>
          </g>
          <path id="Caminho_535" data-name="Caminho 535" d="M68.766,30.936,27.425,52.106c-.383.2-.73.284-.774.2L20.589,40.466c-.045-.087.23-.316.613-.512l41.341-21.17c.383-.2.729-.285.774-.2l6.061,11.837c.045.087-.229.317-.612.513" transform="translate(-10.234 -9.224)" fill="#fff"/>
          <path id="Caminho_536" data-name="Caminho 536" d="M48.473,51.459l-.353-.694a.39.39,0,0,1,.171-.524l9.463-4.815a.39.39,0,0,1,.524.17l.353.694a.389.389,0,0,1-.17.524L49,51.63a.39.39,0,0,1-.524-.17" transform="translate(-23.904 -22.564)" fill="#c8c8c8"/>
          <path id="Caminho_537" data-name="Caminho 537" d="M51.608,55.458l-.177-.347a.39.39,0,0,1,.17-.524l14.016-7.156a.389.389,0,0,1,.524.17l.177.346a.39.39,0,0,1-.169.524L52.132,55.628a.389.389,0,0,1-.524-.169" transform="translate(-25.55 -23.561)" fill="#c8c8c8"/>
          <g id="Grupo_146" data-name="Grupo 146" transform="translate(17.926 31.683)" opacity="0.18">
            <g id="Grupo_145" data-name="Grupo 145">
              <g id="Grupo_144" data-name="Grupo 144" clip-path="url(#clip-path-10)">
                <path id="Caminho_538" data-name="Caminho 538" d="M83.832,75.4,42.491,96.565c-.383.2-.73.284-.774.2L35.655,84.925c-.044-.087.23-.316.613-.512L77.61,63.243c.383-.2.73-.285.774-.2l6.061,11.837c.045.087-.229.317-.612.513" transform="translate(-35.651 -63.012)"/>
              </g>
            </g>
          </g>
          <path id="Caminho_539" data-name="Caminho 539" d="M83.832,61.4,42.491,82.565c-.383.2-.73.284-.774.2L35.655,70.925c-.044-.087.23-.316.613-.512L77.61,49.243c.383-.2.73-.285.774-.2l6.061,11.837c.045.087-.229.317-.612.513" transform="translate(-17.725 -24.368)" fill="#fff"/>
          <path id="Caminho_540" data-name="Caminho 540" d="M53.518,92.324a3.151,3.151,0,1,1-4.274-1.261,3.151,3.151,0,0,1,4.274,1.261" transform="translate(-23.666 -45.085)" fill="#dd5361"/>
          <path id="Caminho_541" data-name="Caminho 541" d="M63.539,81.919l-.353-.694a.39.39,0,0,1,.17-.524l9.463-4.815a.389.389,0,0,1,.524.17l.353.694a.39.39,0,0,1-.17.524L64.062,82.09a.39.39,0,0,1-.524-.17" transform="translate(-31.394 -37.709)" fill="#c8c8c8"/>
          <path id="Caminho_542" data-name="Caminho 542" d="M66.674,85.917,66.5,85.57a.39.39,0,0,1,.17-.524L80.683,77.89a.389.389,0,0,1,.524.17l.177.346a.39.39,0,0,1-.169.524L67.2,86.087a.389.389,0,0,1-.524-.169" transform="translate(-33.041 -38.705)" fill="#c8c8c8"/>
          <g id="Grupo_149" data-name="Grupo 149" transform="translate(26.277 47.076)" opacity="0.18">
            <g id="Grupo_148" data-name="Grupo 148">
              <g id="Grupo_147" data-name="Grupo 147" clip-path="url(#clip-path-10)">
                <path id="Caminho_543" data-name="Caminho 543" d="M100.443,106.01,59.1,127.18c-.383.2-.73.284-.774.2L52.266,115.54c-.045-.087.229-.316.612-.512L94.22,93.858c.383-.2.73-.285.774-.2l6.061,11.837c.045.087-.23.317-.613.513" transform="translate(-52.261 -93.627)"/>
              </g>
            </g>
          </g>
          <path id="Caminho_544" data-name="Caminho 544" d="M100.443,92.01,59.1,113.18c-.383.2-.73.284-.774.2L52.266,101.54c-.045-.087.229-.316.612-.512L94.22,79.858c.383-.2.73-.285.774-.2L101.056,91.5c.045.087-.23.317-.613.513" transform="translate(-25.984 -39.59)" fill="#fff"/>
          <path id="Caminho_545" data-name="Caminho 545" d="M70.127,122.939a3.151,3.151,0,1,1-4.274-1.262,3.151,3.151,0,0,1,4.274,1.262" transform="translate(-31.924 -60.306)" fill="#dd5361"/>
          <path id="Caminho_546" data-name="Caminho 546" d="M80.149,112.533l-.353-.694a.389.389,0,0,1,.17-.523l9.463-4.815a.389.389,0,0,1,.523.17l.353.694a.39.39,0,0,1-.17.524L80.672,112.7a.39.39,0,0,1-.524-.17" transform="translate(-39.652 -52.93)" fill="#c8c8c8"/>
          <path id="Caminho_547" data-name="Caminho 547" d="M83.284,116.532l-.177-.347a.389.389,0,0,1,.169-.524L97.293,108.5a.389.389,0,0,1,.524.17l.177.346a.391.391,0,0,1-.17.524L83.808,116.7a.389.389,0,0,1-.524-.169" transform="translate(-41.299 -53.926)" fill="#c8c8c8"/>
          <g id="Grupo_152" data-name="Grupo 152" transform="translate(34.793 63.452)" opacity="0.18">
            <g id="Grupo_151" data-name="Grupo 151">
              <g id="Grupo_150" data-name="Grupo 150" clip-path="url(#clip-path-10)">
                <path id="Caminho_548" data-name="Caminho 548" d="M117.378,138.579l-41.341,21.17c-.383.2-.73.284-.774.2L69.2,148.109c-.044-.087.23-.316.613-.512l41.341-21.17c.383-.2.73-.285.774-.2l6.061,11.837c.045.087-.229.317-.612.513" transform="translate(-69.197 -126.196)"/>
              </g>
            </g>
          </g>
          <path id="Caminho_549" data-name="Caminho 549" d="M117.378,124.579l-41.341,21.17c-.383.2-.73.284-.774.2L69.2,134.109c-.044-.087.23-.316.613-.512l41.341-21.17c.383-.2.73-.285.774-.2l6.061,11.837c.045.087-.229.317-.612.513" transform="translate(-34.404 -55.783)" fill="#fff"/>
          <path id="Caminho_550" data-name="Caminho 550" d="M87.064,155.508a3.151,3.151,0,1,1-4.274-1.262,3.151,3.151,0,0,1,4.274,1.262" transform="translate(-40.345 -76.499)" fill="#dd5361"/>
          <path id="Caminho_551" data-name="Caminho 551" d="M97.085,145.1l-.353-.694a.389.389,0,0,1,.17-.523l9.463-4.815a.389.389,0,0,1,.523.17l.353.694a.39.39,0,0,1-.17.524l-9.463,4.815a.39.39,0,0,1-.524-.17" transform="translate(-48.073 -69.123)" fill="#c8c8c8"/>
          <path id="Caminho_552" data-name="Caminho 552" d="M100.22,149.1l-.177-.347a.39.39,0,0,1,.17-.524l14.016-7.156a.389.389,0,0,1,.524.17l.177.346a.39.39,0,0,1-.169.524l-14.016,7.156a.389.389,0,0,1-.524-.169" transform="translate(-49.719 -70.119)" fill="#c8c8c8"/>
          <path id="Caminho_553" data-name="Caminho 553" d="M35.908,62.111,33.11,63l-2.316-1.8-.023,2.935-2.431,1.645,2.785.929.814,2.82,1.743-2.361,2.934.1-1.707-2.387Z" transform="translate(-14.091 -30.425)" fill="#dd5361"/>
        </g>
      </g>
    </g>
  </g>
</svg>
