<svg id="Grupo_110" data-name="Grupo 110" xmlns="http://www.w3.org/2000/svg" xmlns:xlink="http://www.w3.org/1999/xlink" width="202.879" height="40.701" viewBox="0 0 202.879 40.701">
  <defs>
    <clipPath id="clip-path">
      <rect id="Retângulo_66" data-name="Retângulo 66" width="202.879" height="40.701" fill="none"/>
    </clipPath>
  </defs>
  <g id="Grupo_109" data-name="Grupo 109" clip-path="url(#clip-path)">
    <path id="Caminho_342" data-name="Caminho 342" d="M219.922,49.526,226.8,33.994a2.682,2.682,0,0,1,2.537-1.719h.254a2.645,2.645,0,0,1,2.509,1.719l6.878,15.531a2.113,2.113,0,0,1,.226.874,2.057,2.057,0,0,1-2.058,2.086,2.21,2.21,0,0,1-2.086-1.494l-1.325-3.1h-8.682l-1.381,3.242a2.131,2.131,0,0,1-2,1.353,2,2,0,0,1-2-2.029,2.3,2.3,0,0,1,.254-.93m12.205-5.469-2.734-6.511-2.734,6.511Z" transform="translate(-162.792 -23.918)" fill="#fff"/>
    <path id="Caminho_343" data-name="Caminho 343" d="M310.894,52.493a2.142,2.142,0,1,1,4.284,0v.2a5.549,5.549,0,0,1,4.707-2.452c3.524,0,6.878,2.762,6.878,7.808V58.1c0,5.046-3.3,7.808-6.878,7.808a5.8,5.8,0,0,1-4.707-2.255v4.51a2.142,2.142,0,1,1-4.284,0ZM322.479,58.1v-.056c0-2.509-1.691-4.172-3.693-4.172s-3.664,1.663-3.664,4.172V58.1c0,2.509,1.663,4.172,3.664,4.172s3.693-1.635,3.693-4.172" transform="translate(-230.398 -37.231)" fill="#fff"/>
    <path id="Caminho_344" data-name="Caminho 344" d="M389.491,31.7a2.142,2.142,0,1,1,4.284,0v16.63a2.142,2.142,0,1,1-4.284,0Z" transform="translate(-288.645 -21.902)" fill="#fff"/>
    <path id="Caminho_345" data-name="Caminho 345" d="M425.741,31.664a2.435,2.435,0,0,1,4.792,0v.056a2.429,2.429,0,0,1-4.792,0Zm.254,5.581a2.142,2.142,0,1,1,4.284,0V48.408a2.142,2.142,0,1,1-4.284,0Z" transform="translate(-315.51 -21.983)" fill="#fff"/>
    <path id="Caminho_346" data-name="Caminho 346" d="M460.358,58.159V58.1a7.757,7.757,0,0,1,7.921-7.864,7.56,7.56,0,0,1,5.158,1.691,1.9,1.9,0,0,1,.676,1.466,1.925,1.925,0,0,1-1.945,1.916,2.015,2.015,0,0,1-1.24-.423,4.084,4.084,0,0,0-2.678-.958,3.86,3.86,0,0,0-3.664,4.115V58.1a3.871,3.871,0,0,0,3.834,4.172,4.342,4.342,0,0,0,2.819-1.043,1.994,1.994,0,0,1,1.156-.395,1.818,1.818,0,0,1,1.184,3.185,7.433,7.433,0,0,1-5.356,1.945,7.714,7.714,0,0,1-7.864-7.808" transform="translate(-341.164 -37.231)" fill="#fff"/>
    <path id="Caminho_347" data-name="Caminho 347" d="M526.219,61.611v-.056c0-3.3,2.509-4.82,6.089-4.82a10.732,10.732,0,0,1,3.692.62V57.1c0-1.776-1.1-2.762-3.241-2.762a9.833,9.833,0,0,0-2.96.423,1.811,1.811,0,0,1-.62.113,1.745,1.745,0,0,1-1.776-1.748,1.776,1.776,0,0,1,1.156-1.663,13.157,13.157,0,0,1,4.82-.789,6.974,6.974,0,0,1,5.1,1.691,6.584,6.584,0,0,1,1.635,4.82v6.878a2.058,2.058,0,0,1-2.086,2.058,1.919,1.919,0,0,1-2.058-1.776v-.028a5.808,5.808,0,0,1-4.566,1.917c-2.847,0-5.187-1.635-5.187-4.622m9.838-.987v-.761a6.641,6.641,0,0,0-2.734-.564c-1.832,0-2.96.733-2.96,2.086v.056c0,1.156.958,1.832,2.34,1.832,2,0,3.354-1.1,3.354-2.649" transform="translate(-389.972 -37.554)" fill="#fff"/>
    <path id="Caminho_348" data-name="Caminho 348" d="M595.034,50.613v-7.16h-.141a1.832,1.832,0,1,1,0-3.664h.141V37.9a2.142,2.142,0,1,1,4.284,0v1.889h1.889a1.832,1.832,0,0,1,0,3.664h-1.889v6.455c0,.986.423,1.466,1.381,1.466.141,0,.423-.028.508-.028a1.786,1.786,0,0,1,1.776,1.776,1.744,1.744,0,0,1-1.1,1.607,6.321,6.321,0,0,1-2.452.423c-2.622,0-4.4-1.043-4.4-4.538" transform="translate(-439.508 -26.5)" fill="#fff"/>
    <path id="Caminho_349" data-name="Caminho 349" d="M647.275,31.664a2.435,2.435,0,0,1,4.792,0v.056a2.429,2.429,0,0,1-4.792,0Zm.254,5.581a2.142,2.142,0,1,1,4.284,0V48.408a2.142,2.142,0,1,1-4.284,0Z" transform="translate(-479.685 -21.983)" fill="#fff"/>
    <path id="Caminho_350" data-name="Caminho 350" d="M681.985,38.775h-.169a1.745,1.745,0,0,1-1.776-1.748,1.768,1.768,0,0,1,1.776-1.776h.169v-.959a4.986,4.986,0,0,1,1.212-3.664,4.7,4.7,0,0,1,3.467-1.184,10.5,10.5,0,0,1,1.748.113,1.742,1.742,0,0,1,1.465,1.719,1.781,1.781,0,0,1-1.747,1.776h-.366c-.987,0-1.55.507-1.55,1.635v.592h1.86a1.748,1.748,0,1,1,0,3.5h-1.8v9.471a2.142,2.142,0,1,1-4.284,0Z" transform="translate(-503.966 -21.821)" fill="#fff"/>
    <path id="Caminho_351" data-name="Caminho 351" d="M728.626,70.152a1.855,1.855,0,0,1-1.353-1.776,1.709,1.709,0,0,1,1.691-1.747,2.02,2.02,0,0,1,.7.113,2.8,2.8,0,0,0,.9.169,1.4,1.4,0,0,0,1.522-.9l.141-.338-5.158-11.951a3.13,3.13,0,0,1-.226-.987,2.03,2.03,0,0,1,2.114-2.058,2.072,2.072,0,0,1,2.057,1.607l3.27,8.794,3.157-8.766a2.173,2.173,0,0,1,2.058-1.635,1.991,1.991,0,0,1,2.03,1.973,3.234,3.234,0,0,1-.2,1.015l-5.271,12.656c-1.268,3.073-2.537,4.228-5.1,4.228a6.45,6.45,0,0,1-2.34-.395" transform="translate(-538.656 -37.554)" fill="#fff"/>
    <path id="Caminho_352" data-name="Caminho 352" d="M5.683,21.536s-9.174-4.222-4.209-11.288A12.139,12.139,0,0,1,6.164,6.354C9.479,4.752,16.578,1.9,27.471.428c0,0,8.243-1.678,11.141,1.612S40.3,12.345,40.3,12.345s-.218-3.5-5.169-3.9S21.522,9.728,14.312,12.02C7.448,14.2,4.834,14.527,4.227,18.035c-.5,2.874,1.455,3.5,1.455,3.5" transform="translate(0 0)" fill="#fff"/>
    <path id="Caminho_353" data-name="Caminho 353" d="M28.467,64.382c-.291-.651-1.111-1.6-3.487-1.852a42.013,42.013,0,0,1-7.529-1.674l0,0a.128.128,0,0,0-.033-.008.222.222,0,0,1-.058-.025l-.066-.045-.331-.222A3.091,3.091,0,0,1,16.1,57.4c.409-2.353,1.717-3.272,4.6-4.28l3.426.747,0,0a.16.16,0,0,0,.025.02c.269.251,2.4,2.438,4.312,10.486" transform="translate(-11.868 -39.369)" fill="#ededed"/>
    <path id="Caminho_354" data-name="Caminho 354" d="M64.357,97.46l-.117-.552a1.691,1.691,0,0,1,.117.552" transform="translate(-47.607 -71.817)" fill="#fff"/>
    <path id="Caminho_355" data-name="Caminho 355" d="M21.009,82.716l.1.049a.792.792,0,0,1-.136-.061.213.213,0,0,1-.058-.025c-.033-.016-.066-.037-.1-.057a.245.245,0,0,1,.033.012c.066.033.116.061.157.078Z" transform="translate(-15.426 -61.23)" fill="#fff"/>
    <path id="Caminho_356" data-name="Caminho 356" d="M64.357,97.46l-.117-.552a1.691,1.691,0,0,1,.117.552" transform="translate(-47.607 -71.817)" fill="#fff"/>
    <path id="Caminho_357" data-name="Caminho 357" d="M112.707,57.428c-.156.277-1.542,2.637-3.486,2.255-.1-.02-.2-.041-.293-.057a6.083,6.083,0,0,1-1.99-.686,3.131,3.131,0,0,1-.281-.193.092.092,0,0,1-.025-.017,3.615,3.615,0,0,1-.376-.341c-.046-.045-.087-.091-.128-.14L106,58.1c-.041-.054-.083-.107-.12-.161s-.079-.115-.12-.173a1.991,1.991,0,0,1-.112-.185c-.037-.066-.075-.132-.112-.2a1.7,1.7,0,0,1-.108-.21c-.033-.074-.07-.149-.1-.227-.075-.165-.141-.338-.208-.523-.058-.169-.113-.346-.171-.532-.029-.1-.054-.2-.084-.3v0c1.042-2.755,3.846-10.477,4.5-15.49a39.742,39.742,0,0,0,.453-7.656,22.785,22.785,0,0,1,3.027.014c4.95.4,5.168,3.9,5.168,3.9s-1.2,13.614-5.3,21.077" transform="translate(-77.713 -24.006)" fill="#ededed"/>
    <path id="Caminho_358" data-name="Caminho 358" d="M20.816,82.621c.186.095.293.143.293.143a1.737,1.737,0,0,1-.293-.143" transform="translate(-15.426 -61.229)" fill="#fff"/>
    <path id="Caminho_359" data-name="Caminho 359" d="M47.344,56.01s2.481,2.054,4.576,11.533,2.929,12.363,5.407,13.592a8.388,8.388,0,0,0,8.249-.028,9.085,9.085,0,0,0,4.516-6.2s-1.435,2.686-3.5,2.28-3.715-.812-4.554-4.934a81.717,81.717,0,0,0-2.508-9.89c-.415-.823-.01-2.887-3.726-4.112s-8.463-2.24-8.463-2.24" transform="translate(-35.086 -41.508)" fill="#fff"/>
  </g>
</svg>
